M48
;Layer_Color=9474304
;FILE_FORMAT=4:4
METRIC,LZ
;TYPE=PLATED
T1F00S00C0.4000
T2F00S00C0.5000
T3F00S00C0.6000
T4F00S00C0.9500
T5F00S00C1.0000
T6F00S00C1.1000
T7F00S00C1.2000
T8F00S00C1.8000
T9F00S00C2.3000
T10F00S00C3.0000
%
T01
X00825Y0005
X008375
X0085
X008625
X0085Y001
X008375
X00825
X008125
Y001125
X00825
X008375
X0085
X00925Y001375
Y0015
X009125
X00775Y00225
X007625
X0075
X007375
Y002375
X0075
X007625
X00775
X006875Y002125
X00675
Y002
X006875
X0065Y002625
X006375
X00625
X005625
Y0025
X0055
Y002625
Y00275
X005625
X005525Y003075
X005375
X005075Y00305
X004835Y002585
X00465375Y0024875
X0045725Y00241
X004575Y00225
X00465Y00275
X00406Y00281
X00417Y0032
X00399Y00181
X00414Y00149
X00399Y00122
X004Y000875
X004125
X00425
X004375
X004425Y001125
X0047Y0014
X00485
X005
Y00155
X00485
X0047
Y0017
X00485
X005
X0052Y00215
X00555Y001825
X005875Y001875
Y002
Y002125
X006Y000875
Y00075
Y000625
Y0005
X005025Y00085
X00509Y00094
X00325Y001
X003125
X003
X002875
X0025975Y001885
X002595Y002025
X00206Y00199
X00207Y00214
X00199Y00224
X00183Y00268
X00171Y00275
X0016Y0027
X00157Y00249
X00105Y00225
Y0021
X0009Y002175
Y002325
X00025Y0025
Y002625
Y00275
Y002875
X0018625Y0029625
X00275999Y00284999
X00276Y00273
X00304Y00289
X00347Y00299
X003475Y003225
X003725Y003025
Y002775
X00374Y00265
X003475Y0026
Y002475
Y002725
X00335Y00211
X000875Y000625
Y0005
Y000375
Y00025
X000625Y000875
X0005
X000375
X00025
X00125Y003375
Y0035
X001375
X0015
Y003375
X001375
X001875Y0035
X002
X002125
X002625Y003685
X00279Y0036
X00275Y003375
X002875
X003
Y004125
X003125
X00325
Y004375
X003125
X003
X002875
Y004125
Y004625
X003
X003125
X00325
Y0055
X003375
X0035
X003625
X0025Y005375
X002375
X00225
X002125
X0008Y00545
Y00555
Y00565
Y00575
X000225
Y00565
Y00555
Y00545
X000625Y004375
X00075
X000875
X001
X0015Y006625
X001625
X00175
X001875
X004375Y00675
X0045
X004625
X00475
X004625Y00575
Y005625
Y0055
X00525Y005875
X005375
X0055
X005375Y004575
X00582Y0047
X0063675Y00463
X006875Y004625
X00705
X007225
X00725Y003375
X007125
X007
X006875
X0063675Y0034075
X005525Y003375
X005Y00375
X004875
X00475
X004625
X00605Y00685
X00615
X00625
X00635
Y007
X00625
X00615
X00605
X0066
Y0069
Y0068
Y0071
X00725Y00625
Y006125
Y006
X007875
Y006125
Y00625
X0085
Y006125
Y006
X009125
Y006125
Y00625
Y0055
X009
X008875
X00875
X0081925Y00507
X00819519Y00470181
X00819289Y00378019
X00819525Y00345175
X00875Y0035
X008875
X009
X009125
Y00375
X009
X008875
X00875
X009125Y007
Y007125
Y00725
Y007375
X0085Y007875
X008375
X00825
X008125
X0075
X007375
X00725
X007125
X005125
X005
X004875
X00475
X004625
X002875
X00275
X002625
X00075
Y00775
Y007625
X0005Y007375
X000375
X00025
T02
X00582Y0035
X00624Y00434
X00721Y00433
X0072Y00557
X00624
X00576Y00569
X00485Y00525
X00475Y00705
X00748Y00648
X008Y00569
Y00434
T03
X009125Y001675
T04
X007969Y000715
X008223
X008477
X008731
X008985
X009239
Y001985
X008985
X008731
X008477
X008223
X007969
X007715
X007461
Y000715
X007715
X002035Y000765
Y000565
X001785
Y000765
T05
X007975Y0029
X008225
X008475
X008725
X00715
X0069
X00665
X0064
X0066Y001675
Y001175
X0034Y00705
X0011
X00045Y0067
X00141Y0059
X00191
X00045Y00467
X00407Y00456
X00457
X00715Y006955
X009205Y0046975
Y0044475
X00715Y007455
X0034Y00755
X0011
T06
X006573Y0004
X006827
X003874
X00362
X003366
X003112
X000704Y001822
X00045
Y002076
X000704
Y00233
X00045
Y002584
X000704
Y002838
Y003092
Y003346
X00045
Y003092
Y002838
Y0036
X000704
T07
X0023Y00705
Y0073
Y00755
T08
X008067Y007125
X008575
T09
X001305Y000305
X002505
T10
X00935Y00025
X00025
X00935Y00785
X00025
M30
