G04*
G04 #@! TF.GenerationSoftware,Altium Limited,Altium Designer,19.1.8 (144)*
G04*
G04 Layer_Physical_Order=1*
G04 Layer_Color=255*
%FSLAX44Y44*%
%MOMM*%
G71*
G01*
G75*
%ADD12C,0.8000*%
%ADD45R,1.2000X1.6000*%
%ADD46R,0.3000X1.4000*%
%ADD47R,1.4000X0.3000*%
%ADD48R,2.4000X2.0000*%
%ADD49R,2.0000X2.4000*%
%ADD50R,1.2200X0.9100*%
%ADD51R,1.7000X2.5000*%
%ADD52R,2.5000X1.7000*%
%ADD53R,1.2500X1.0000*%
%ADD54R,1.0000X1.2500*%
%ADD55R,1.5000X2.2000*%
%ADD56R,0.6000X1.5500*%
%ADD57R,2.0000X1.2000*%
%ADD58R,1.4000X0.3500*%
%ADD59R,1.4000X0.3500*%
%ADD60R,2.6000X1.1000*%
%ADD61R,3.2000X1.6000*%
%ADD62R,1.6000X3.2000*%
%ADD63R,1.6000X1.2000*%
%ADD64C,0.3000*%
%ADD65C,0.6000*%
%ADD66C,0.5000*%
%ADD67C,0.3500*%
%ADD68C,1.0000*%
%ADD69C,0.2540*%
%ADD70C,0.4000*%
%ADD71R,2.0000X2.0000*%
%ADD72C,2.0000*%
%ADD73C,1.8000*%
%ADD74R,1.8000X1.8000*%
%ADD75R,3.0000X3.0000*%
%ADD76C,3.0000*%
%ADD77R,1.8000X1.8000*%
%ADD78C,1.6000*%
%ADD79R,1.6000X1.6000*%
%ADD80R,2.0000X2.0000*%
%ADD81R,1.6000X1.6000*%
%ADD82C,0.8000*%
%ADD83C,1.0000*%
%ADD84C,1.5000*%
G36*
X910000Y775250D02*
X925000Y760250D01*
X952500D01*
Y680250D01*
X852654D01*
X852391Y680359D01*
X842609Y690141D01*
X842500Y690404D01*
X842500Y742750D01*
X834000Y751000D01*
X768000D01*
X762109Y745109D01*
X761846Y745000D01*
X702154D01*
X701891Y745109D01*
X687000Y760000D01*
X617000D01*
Y760000D01*
X603500D01*
Y765000D01*
X614500D01*
Y781500D01*
X610000D01*
X610000Y800000D01*
X610084Y800203D01*
Y800505D01*
X610143Y800800D01*
X610084Y801096D01*
Y801397D01*
X610714Y802546D01*
X910000Y802546D01*
Y775250D01*
D02*
G37*
G36*
X563750Y672750D02*
X591655D01*
X592000Y672681D01*
X592345Y672750D01*
X594950D01*
Y668000D01*
X600950D01*
Y665500D01*
X603450D01*
Y654750D01*
X604000D01*
Y649000D01*
X590000Y635000D01*
X573000Y635000D01*
X553000Y615000D01*
X477000D01*
Y650000D01*
X495000D01*
X500000Y655000D01*
Y675000D01*
X563750D01*
Y672750D01*
D02*
G37*
G36*
X838212Y514000D02*
Y497633D01*
X838050Y496000D01*
X836991Y496000D01*
X827050D01*
X826050Y496000D01*
X824350Y496000D01*
X821850D01*
Y485250D01*
X816850D01*
Y496000D01*
X814350D01*
X813350Y496000D01*
X811650Y496000D01*
X800650D01*
X800444Y497615D01*
Y514006D01*
X838208D01*
X838212Y514000D01*
D02*
G37*
G36*
X435790Y315791D02*
X438423Y314700D01*
X438085Y313000D01*
X434000D01*
Y309953D01*
X422953D01*
Y316080D01*
X424577Y320000D01*
X422357Y325358D01*
X417000Y327577D01*
X411642Y325358D01*
X409423Y320000D01*
X411047Y316080D01*
Y304000D01*
Y299000D01*
X408750D01*
Y283000D01*
X427250D01*
Y298047D01*
X434000D01*
Y295000D01*
X456000D01*
Y312347D01*
X456000Y313000D01*
X457266Y314047D01*
X531111D01*
X531931Y312347D01*
X529923Y307500D01*
X530125Y307013D01*
X499056Y275944D01*
X497629Y272500D01*
Y207000D01*
X492371D01*
Y254250D01*
X490944Y257694D01*
X490802Y257836D01*
X491077Y258500D01*
X488857Y263857D01*
X483500Y266077D01*
X478143Y263857D01*
X476617Y260175D01*
X474612Y259776D01*
X473444Y260944D01*
X470000Y262371D01*
X457439D01*
X456000Y263000D01*
X456000Y264071D01*
Y269500D01*
X445000D01*
X434000D01*
Y264071D01*
X434000Y263000D01*
X432561Y262371D01*
X428689D01*
X427250Y263000D01*
X427250Y264071D01*
Y268500D01*
X420500D01*
Y263000D01*
X420577D01*
X420915Y261300D01*
X420056Y260944D01*
X402571Y243459D01*
X401000Y244109D01*
Y251500D01*
Y258000D01*
Y264500D01*
Y271000D01*
Y274000D01*
X391000D01*
Y277500D01*
X401000D01*
Y277500D01*
Y284000D01*
Y290500D01*
Y297000D01*
Y303500D01*
Y310000D01*
Y316500D01*
Y326000D01*
X381000D01*
Y316500D01*
Y310000D01*
Y303500D01*
Y297000D01*
Y290500D01*
Y284000D01*
Y274768D01*
X364871D01*
Y305483D01*
X368444Y309056D01*
X369871Y312500D01*
Y345750D01*
X373000D01*
Y349047D01*
X402534D01*
X435790Y315791D01*
D02*
G37*
G36*
X579047Y302534D02*
Y299250D01*
X577000D01*
Y280750D01*
X579047D01*
Y244466D01*
X550790Y216210D01*
X549047Y212000D01*
Y187371D01*
X527000D01*
X526105Y187000D01*
X518700D01*
X517000Y187000D01*
X517000Y188700D01*
Y207000D01*
X512371D01*
Y260483D01*
X552013Y300125D01*
X552500Y299923D01*
X557858Y302142D01*
X560077Y307500D01*
X558069Y312347D01*
X558889Y314047D01*
X567534D01*
X579047Y302534D01*
D02*
G37*
G36*
X103408Y236408D02*
X108000Y234506D01*
X118217D01*
X119500Y233500D01*
Y213364D01*
X119047Y212270D01*
Y197000D01*
X118750D01*
Y181000D01*
X137250D01*
Y181212D01*
X145000D01*
X145129Y181125D01*
Y160089D01*
X141911Y156871D01*
X113018D01*
X109871Y160018D01*
Y187000D01*
X108444Y190444D01*
X89639Y209249D01*
X86195Y210676D01*
X82115D01*
X79584Y216784D01*
X73149Y219450D01*
Y221150D01*
X79584Y223816D01*
X82353Y230500D01*
X70400D01*
Y235500D01*
X82353D01*
X79584Y242184D01*
X73149Y244850D01*
Y246550D01*
X79584Y249216D01*
X80533Y251506D01*
X88310D01*
X103408Y236408D01*
D02*
G37*
G36*
X463000Y196105D02*
Y187000D01*
X515300D01*
X517000Y187000D01*
X517000Y185300D01*
Y177999D01*
X526105D01*
X527000Y177629D01*
Y177000D01*
X517000D01*
Y173000D01*
Y163000D01*
Y153000D01*
Y143000D01*
Y133000D01*
Y124700D01*
X517000Y123000D01*
X515300Y123000D01*
X492999D01*
Y113895D01*
X492629Y113000D01*
X492371D01*
X492000Y113895D01*
Y123000D01*
X454700D01*
X453000Y123000D01*
X453000Y124700D01*
Y132001D01*
X443395D01*
X443000Y132164D01*
Y132999D01*
X453000D01*
Y133000D01*
Y143000D01*
Y153000D01*
Y163000D01*
Y173000D01*
Y185300D01*
X453000Y187000D01*
X454700Y187000D01*
X462001D01*
Y196105D01*
X462371Y197000D01*
X462629D01*
X463000Y196105D01*
D02*
G37*
G36*
X606837Y801397D02*
Y801096D01*
X606959Y800800D01*
X606837Y800505D01*
Y800203D01*
X606753Y800000D01*
X606753Y781500D01*
X592500D01*
Y743500D01*
X607156D01*
Y731865D01*
X606950Y730250D01*
X594950D01*
Y725994D01*
X568500D01*
X563908Y724092D01*
X553408Y713592D01*
X551506Y709000D01*
Y700500D01*
X548250D01*
Y685093D01*
X548212Y685000D01*
Y680000D01*
X548250Y679907D01*
Y678247D01*
X535500D01*
Y684000D01*
X504500D01*
Y678247D01*
X500000D01*
X497704Y677296D01*
X496753Y675000D01*
Y656345D01*
X493655Y653247D01*
X477000D01*
X476788Y653389D01*
Y661000D01*
X475679Y663679D01*
X473000Y664788D01*
X428000D01*
X427494Y665126D01*
Y693500D01*
X444000D01*
Y698006D01*
X470981D01*
X475000Y696341D01*
X481123Y698877D01*
X483659Y705000D01*
X481123Y711123D01*
X475000Y713659D01*
X468877Y711123D01*
X468824Y710994D01*
X444000D01*
Y715500D01*
X406000D01*
Y710994D01*
X352000D01*
Y717000D01*
X328000D01*
Y711494D01*
X279250D01*
Y713000D01*
X260750D01*
Y711494D01*
X241381D01*
X239950Y714950D01*
X235845Y716650D01*
Y718350D01*
X239950Y720050D01*
X243036Y727500D01*
X230000D01*
X216964D01*
X220050Y720050D01*
X224155Y718350D01*
Y716650D01*
X220050Y714950D01*
X215929Y705000D01*
X220050Y695050D01*
X230000Y690929D01*
X239950Y695050D01*
X241381Y698506D01*
X260750D01*
Y697000D01*
X279250D01*
Y698506D01*
X328000D01*
Y693000D01*
X352000D01*
Y698006D01*
X406000D01*
Y693500D01*
X414506D01*
Y641000D01*
X410500D01*
Y613000D01*
X414506D01*
Y603000D01*
X416408Y598408D01*
X427408Y587408D01*
X432000Y585506D01*
X471310D01*
X504506Y552310D01*
Y473515D01*
X506408Y468923D01*
X509922Y465408D01*
X514515Y463506D01*
X530571D01*
X531707Y461806D01*
X529923Y457500D01*
X532142Y452142D01*
X537500Y449923D01*
X542858Y452142D01*
X543059Y452629D01*
X603250D01*
X606694Y454056D01*
X614894Y462256D01*
X616321Y465700D01*
Y473371D01*
X617450Y474500D01*
X619150Y474500D01*
X629150D01*
X630150Y474500D01*
X631850Y474500D01*
X634350D01*
Y485250D01*
X639350D01*
Y474500D01*
X642850D01*
X642850Y474500D01*
X643550D01*
Y474500D01*
X644550Y474500D01*
X655550D01*
Y484057D01*
X656044Y485250D01*
Y496110D01*
X665690Y505756D01*
X712500D01*
Y503000D01*
X728500D01*
Y503000D01*
X728887Y503259D01*
X729000Y503212D01*
X732000D01*
X732500Y503000D01*
D01*
X734006Y502531D01*
Y499000D01*
X732500D01*
Y480500D01*
X734006D01*
Y459500D01*
X735908Y454908D01*
X736621Y454194D01*
X735917Y452494D01*
X649000D01*
X644408Y450592D01*
X632542Y438726D01*
X630689Y438758D01*
X630123Y440123D01*
X624000Y442659D01*
X617877Y440123D01*
X615341Y434000D01*
X617877Y427877D01*
X618047Y426453D01*
X616939Y425000D01*
X605450D01*
Y421244D01*
X585500D01*
X580908Y419342D01*
X578693Y417127D01*
X576797Y412550D01*
X572900D01*
Y411494D01*
X559000D01*
Y413250D01*
X527000D01*
Y396250D01*
X527045D01*
X527212Y396000D01*
Y379000D01*
X527322Y378732D01*
X527000Y378250D01*
X527000D01*
Y361250D01*
X541376D01*
X542212Y360000D01*
Y343000D01*
X543321Y340321D01*
X544576Y339802D01*
X545226Y338231D01*
X544923Y337500D01*
X547142Y332142D01*
X552500Y329923D01*
X557858Y332142D01*
X558059Y332629D01*
X605000D01*
X608444Y334056D01*
X614894Y340506D01*
X616321Y343950D01*
Y348371D01*
X617450Y349500D01*
X619150Y349500D01*
X629150D01*
X630150Y349500D01*
X631850Y349500D01*
X634350D01*
Y360250D01*
X639350D01*
Y349500D01*
X642850D01*
X642850Y349500D01*
X643550D01*
Y349500D01*
X644550Y349500D01*
X655550D01*
Y359057D01*
X656044Y360250D01*
Y371110D01*
X665690Y380756D01*
X712500D01*
Y378000D01*
X728500D01*
Y378000D01*
X728887Y378259D01*
X729000Y378212D01*
X732000D01*
X732500Y378000D01*
D01*
X734006Y377531D01*
Y373212D01*
X733000Y371788D01*
X728000D01*
X727304Y371500D01*
X723000D01*
Y362250D01*
Y353000D01*
X728500D01*
Y353212D01*
X732500D01*
Y353000D01*
X734006D01*
Y336250D01*
X735703Y332153D01*
X734891Y330453D01*
X660000D01*
X655790Y328709D01*
X635790Y308710D01*
X634047Y304500D01*
Y300523D01*
X630816Y299184D01*
X629477Y295953D01*
X593000D01*
Y299250D01*
X590953D01*
Y305000D01*
X589210Y309209D01*
X574210Y324210D01*
X570000Y325953D01*
X442466D01*
X409210Y359210D01*
X405000Y360953D01*
X373000D01*
Y364250D01*
X357000D01*
Y345750D01*
X360129D01*
Y314517D01*
X358732Y313121D01*
X329000D01*
Y326000D01*
X309000D01*
Y325871D01*
X299115D01*
X295671Y324444D01*
X285556Y314329D01*
X284129Y310885D01*
Y310875D01*
X284000Y310788D01*
X268288D01*
Y315500D01*
X268250Y315593D01*
Y320500D01*
X249750D01*
Y315593D01*
X249712Y315500D01*
Y310750D01*
X249750Y310657D01*
Y307871D01*
X241232D01*
X240000Y309000D01*
X240000Y309571D01*
Y317500D01*
X233500D01*
Y309000D01*
X238284D01*
X238622Y307300D01*
X236556Y306444D01*
X216982Y286871D01*
X212000D01*
Y286975D01*
X202292D01*
X202000Y287096D01*
X201708Y286975D01*
X192000D01*
Y277475D01*
Y269006D01*
X190300Y268668D01*
X188358Y273358D01*
X183000Y275577D01*
X179464Y274112D01*
X178577Y275000D01*
X176358Y280358D01*
X171000Y282577D01*
X165643Y280358D01*
X163423Y275000D01*
X165643Y269643D01*
X166378Y269338D01*
Y267000D01*
X167732Y263732D01*
X177907Y253557D01*
X181175Y252203D01*
X192000D01*
Y248996D01*
X178893D01*
X164444Y263444D01*
X161000Y264871D01*
X149500D01*
Y273500D01*
X130953D01*
Y284000D01*
X137250D01*
Y299407D01*
X137288Y299500D01*
Y304250D01*
X137250Y304343D01*
Y309500D01*
X118750D01*
Y304342D01*
X118712Y304250D01*
Y299500D01*
X118750Y299408D01*
Y284000D01*
X119047D01*
Y268000D01*
X119500Y266906D01*
Y247500D01*
X117802Y247494D01*
X110690D01*
X95592Y262592D01*
X91000Y264494D01*
X80864D01*
X79584Y267584D01*
X73149Y270250D01*
Y271950D01*
X79584Y274616D01*
X82353Y281300D01*
X70400D01*
Y286300D01*
X82353D01*
X79584Y292984D01*
X73149Y295650D01*
Y297350D01*
X79584Y300016D01*
X83389Y309200D01*
X79584Y318384D01*
X73149Y321050D01*
Y322750D01*
X79584Y325416D01*
X82353Y332100D01*
X70400D01*
Y337100D01*
X82353D01*
X79584Y343784D01*
X73149Y346450D01*
Y348150D01*
X79584Y350816D01*
X83389Y360000D01*
X79584Y369184D01*
X70400Y372989D01*
X61216Y369184D01*
X59877Y365953D01*
X57000D01*
Y372000D01*
X50953D01*
Y455395D01*
X54950Y457050D01*
X59071Y467000D01*
X54950Y476950D01*
X45000Y481071D01*
X35050Y476950D01*
X30929Y467000D01*
X35050Y457050D01*
X39047Y455395D01*
Y372000D01*
X33000D01*
Y348000D01*
X41551D01*
X41889Y346300D01*
X35816Y343784D01*
X33047Y337100D01*
X45000D01*
Y332100D01*
X33047D01*
X35816Y325416D01*
X42251Y322750D01*
Y321050D01*
X35816Y318384D01*
X33047Y311700D01*
X45000D01*
Y306700D01*
X33047D01*
X35816Y300016D01*
X42251Y297350D01*
Y295650D01*
X35816Y292984D01*
X32011Y283800D01*
X35816Y274616D01*
X42251Y271950D01*
Y270250D01*
X35816Y267584D01*
X33047Y260900D01*
X45000D01*
Y255900D01*
X33047D01*
X35816Y249216D01*
X42251Y246550D01*
Y244850D01*
X35816Y242184D01*
X32011Y233000D01*
X35816Y223816D01*
X42251Y221150D01*
Y219450D01*
X35816Y216784D01*
X32011Y207600D01*
X35816Y198416D01*
X42251Y195750D01*
Y194050D01*
X35816Y191384D01*
X33047Y184700D01*
X45000D01*
Y182200D01*
X47500D01*
Y170247D01*
X54184Y173016D01*
X56850Y179451D01*
X58550D01*
X61216Y173016D01*
X67900Y170247D01*
Y182200D01*
X70400D01*
Y184700D01*
X82353D01*
X80752Y188566D01*
X81696Y189979D01*
X85133D01*
X93129Y181982D01*
Y156000D01*
X94556Y152556D01*
X104556Y142556D01*
X108000Y141129D01*
X147000D01*
X150444Y142556D01*
X159444Y151556D01*
X160871Y155000D01*
Y157125D01*
X161000Y157212D01*
X169750D01*
Y157000D01*
X188250D01*
Y158506D01*
X197000D01*
Y154000D01*
X215000D01*
X215129Y152353D01*
Y151202D01*
X158166Y94238D01*
X156739Y90794D01*
Y69504D01*
X158166Y66060D01*
X163710Y60516D01*
X167154Y59089D01*
X167470Y58616D01*
X166594Y56500D01*
X170081Y48081D01*
X178500Y44594D01*
X186358Y47849D01*
X188500Y46962D01*
X193500D01*
X195642Y47849D01*
X201000Y45629D01*
Y56500D01*
X203500D01*
Y59000D01*
X214371D01*
X212383Y63800D01*
X213518Y65500D01*
X214500D01*
Y87500D01*
X192500D01*
Y87500D01*
X192344Y87396D01*
X192000Y87538D01*
X187500D01*
X184821Y86429D01*
X184595Y85882D01*
X178500Y88406D01*
X174828Y86886D01*
X173866Y88327D01*
X229444Y143905D01*
X230871Y147350D01*
Y154000D01*
X235500D01*
Y165000D01*
X238000D01*
Y167500D01*
X247000D01*
Y176000D01*
X248612Y176212D01*
X271547D01*
Y157000D01*
X267750D01*
Y142300D01*
X267212Y141000D01*
Y137000D01*
X267750Y135700D01*
Y121000D01*
X286250D01*
Y122506D01*
X297750D01*
Y121000D01*
X316250D01*
Y122506D01*
X328000D01*
X332592Y124408D01*
X339592Y131408D01*
X341494Y136000D01*
Y208387D01*
X342577Y211000D01*
X340358Y216358D01*
X335000Y218577D01*
X329642Y216358D01*
X329539Y216108D01*
X328500Y216538D01*
X318500D01*
X317663Y216192D01*
X316250Y217136D01*
Y220000D01*
X312121D01*
Y232000D01*
X329000D01*
Y238500D01*
Y245000D01*
Y248000D01*
X319000D01*
Y252250D01*
X329000D01*
Y253750D01*
X319000D01*
Y257999D01*
X329000D01*
Y258000D01*
Y264500D01*
Y271000D01*
Y277500D01*
Y280501D01*
X319292D01*
X319000Y280621D01*
Y283879D01*
X319000D01*
X319292Y284000D01*
X329000D01*
Y284000D01*
Y290500D01*
Y297000D01*
Y303379D01*
X355129D01*
Y265000D01*
X356556Y261556D01*
X365306Y252806D01*
X368750Y251379D01*
X381000D01*
Y245000D01*
Y238500D01*
Y232000D01*
X390708D01*
X391000Y231879D01*
X402750D01*
X406194Y233306D01*
X425518Y252629D01*
X457875D01*
X458820Y251216D01*
X457798Y248750D01*
X457294Y248559D01*
X457250Y248577D01*
X451893Y246357D01*
X449673Y241000D01*
X450384Y239284D01*
X449440Y237871D01*
X418000D01*
X414556Y236444D01*
X351556Y173444D01*
X350129Y170000D01*
Y79018D01*
X339982Y68871D01*
X317000D01*
X313556Y67444D01*
X307756Y61644D01*
X306329Y58200D01*
Y53000D01*
X298200D01*
Y27000D01*
X324200D01*
Y31609D01*
X325867Y31940D01*
X326650Y30050D01*
X334100Y26964D01*
Y40000D01*
X339100D01*
Y26964D01*
X346550Y30050D01*
X348450Y34638D01*
X350150D01*
X352050Y30050D01*
X362000Y25929D01*
X371950Y30050D01*
X373850Y34638D01*
X375550D01*
X377450Y30050D01*
X387400Y25929D01*
X397350Y30050D01*
X401471Y40000D01*
X397350Y49950D01*
X387400Y54071D01*
X386367Y53643D01*
X384953Y54587D01*
Y106547D01*
X438580D01*
X442500Y104923D01*
X447858Y107142D01*
X448059Y107629D01*
X453000D01*
Y103000D01*
X472629D01*
Y86517D01*
X460556Y74444D01*
X459129Y71000D01*
Y68000D01*
X447000D01*
Y49953D01*
X441859D01*
X440288Y50500D01*
Y55500D01*
X440250Y55593D01*
Y60500D01*
X421750D01*
Y55593D01*
X421712Y55500D01*
Y50500D01*
X421750Y50407D01*
Y35000D01*
X440250D01*
Y38047D01*
X447000D01*
Y38000D01*
X473000D01*
Y68000D01*
X470293D01*
X469588Y69700D01*
X480500Y80612D01*
X491129Y69983D01*
Y68000D01*
X487000D01*
Y38000D01*
X513000D01*
Y38047D01*
X519750D01*
Y35000D01*
X538250D01*
Y51000D01*
X519750D01*
Y49953D01*
X513000D01*
Y68000D01*
X500871D01*
Y72000D01*
X501291Y72629D01*
X519579D01*
X519750Y71000D01*
X519750Y70929D01*
Y65500D01*
X538250D01*
Y70929D01*
X538250Y71000D01*
X538421Y72629D01*
X545579D01*
X545750Y71000D01*
X545750D01*
Y55000D01*
X564250D01*
Y71000D01*
X564250D01*
X564421Y72629D01*
X567500D01*
X570944Y74056D01*
X584444Y87556D01*
X585871Y91000D01*
Y99750D01*
X589000D01*
Y118250D01*
X588788D01*
Y137000D01*
X588875Y137129D01*
X593000D01*
X596444Y138556D01*
X604444Y146556D01*
X605871Y150000D01*
Y168983D01*
X702018Y265129D01*
X711000D01*
X714444Y266556D01*
X718444Y270556D01*
X719871Y274000D01*
Y278000D01*
X727000D01*
Y302000D01*
X703000D01*
Y294415D01*
X701300Y294077D01*
X699184Y299184D01*
X690000Y302989D01*
X680816Y299184D01*
X678350Y293232D01*
X676650D01*
X674184Y299184D01*
X667500Y301953D01*
Y290000D01*
Y278047D01*
X674184Y280816D01*
X676650Y286768D01*
X678350D01*
X680816Y280816D01*
X685129Y279029D01*
Y270725D01*
X591556Y177151D01*
X590129Y173707D01*
Y172482D01*
X589000Y171250D01*
X583500D01*
Y162000D01*
X581000D01*
Y159500D01*
X573000D01*
Y152871D01*
X569000D01*
Y171250D01*
X553000D01*
Y167371D01*
X537000D01*
Y177629D01*
X549441D01*
X549642Y177142D01*
X555000Y174923D01*
X560358Y177142D01*
X562577Y182500D01*
X560953Y186420D01*
Y209534D01*
X589210Y237791D01*
X590953Y242000D01*
Y280750D01*
X593000D01*
Y284047D01*
X629477D01*
X630816Y280816D01*
X640000Y277011D01*
X649184Y280816D01*
X651650Y286768D01*
X653350D01*
X655816Y280816D01*
X662500Y278047D01*
Y290000D01*
Y301953D01*
X655816Y299184D01*
X653350Y293232D01*
X651650D01*
X649184Y299184D01*
X646181Y300429D01*
X646012Y302093D01*
X662466Y318547D01*
X780846D01*
X781212Y318000D01*
Y207848D01*
X779512Y207088D01*
X774000Y209371D01*
Y198500D01*
Y187629D01*
X779919Y190081D01*
X783159Y197902D01*
X784212Y198258D01*
X785233Y197922D01*
X788481Y190081D01*
X796900Y186594D01*
X805319Y190081D01*
X808631Y198078D01*
X809600Y198326D01*
X810569Y198078D01*
X813881Y190081D01*
X822300Y186594D01*
X830719Y190081D01*
X834031Y198078D01*
X835000Y198326D01*
X835969Y198078D01*
X839281Y190081D01*
X847700Y186594D01*
X856119Y190081D01*
X859431Y198078D01*
X860400Y198326D01*
X861369Y198078D01*
X864681Y190081D01*
X873100Y186594D01*
X881519Y190081D01*
X884831Y198078D01*
X885800Y198326D01*
X886769Y198078D01*
X890081Y190081D01*
X898500Y186594D01*
X906919Y190081D01*
X910406Y198500D01*
X906919Y206919D01*
X903953Y208148D01*
Y224750D01*
X906000D01*
Y225212D01*
X910000D01*
Y224750D01*
X915500D01*
Y234000D01*
Y243250D01*
X911800D01*
X910500Y243788D01*
X905500D01*
X904923Y244236D01*
X904803Y246384D01*
X918210Y259790D01*
X919953Y264000D01*
Y301750D01*
X918210Y305959D01*
X895460Y328709D01*
X891250Y330453D01*
X838109D01*
X837034Y332153D01*
X838544Y335800D01*
Y360250D01*
X838050Y361443D01*
Y371000D01*
X827050D01*
X826050Y371000D01*
X824350Y371000D01*
X821850D01*
Y360250D01*
X816850D01*
Y371000D01*
X814350D01*
X813350Y371000D01*
X811650Y371000D01*
X800650D01*
X800444Y372615D01*
Y385956D01*
X848450D01*
X853042Y387858D01*
X870092Y404908D01*
X871994Y409500D01*
Y419250D01*
X874750D01*
Y420756D01*
X903000D01*
X907592Y422658D01*
X916684Y431750D01*
X933500D01*
Y457750D01*
X929857D01*
X929525Y459417D01*
X930450Y459800D01*
X934571Y469750D01*
X930450Y479700D01*
X920500Y483821D01*
X917045Y482390D01*
X907592Y491842D01*
X903000Y493744D01*
X874750D01*
Y495250D01*
X871994D01*
Y511750D01*
X870092Y516342D01*
X861342Y525092D01*
X856750Y526994D01*
X838519D01*
X838050Y528500D01*
X838050D01*
Y550000D01*
X826050D01*
Y550000D01*
X825350D01*
Y550000D01*
X813350D01*
Y550000D01*
X812650D01*
Y550000D01*
X807877D01*
Y567111D01*
X808659Y569000D01*
X806123Y575123D01*
X800000Y577659D01*
X794242Y575274D01*
X793000Y575788D01*
X769000D01*
X766020Y574554D01*
X763750Y575494D01*
X649750D01*
X645158Y573592D01*
X632761Y561196D01*
X630844Y561383D01*
X630123Y563123D01*
X624000Y565659D01*
X617877Y563123D01*
X615341Y557000D01*
X617554Y551657D01*
X616533Y550000D01*
X605450D01*
Y545744D01*
X587500D01*
X582908Y543842D01*
X580508Y541442D01*
X578606Y536850D01*
Y536050D01*
X572900D01*
Y534994D01*
X556500D01*
Y538250D01*
X524500D01*
Y538250D01*
X524423Y538199D01*
X523000Y538788D01*
X518000D01*
X517494Y539126D01*
Y555000D01*
X515592Y559592D01*
X478592Y596592D01*
X476732Y597363D01*
X476788Y597500D01*
Y611611D01*
X477000Y611753D01*
X553000D01*
X555296Y612704D01*
X574345Y631753D01*
X590000Y631753D01*
X592296Y632704D01*
X593935Y634343D01*
X595506Y633692D01*
Y621500D01*
X592250D01*
Y619994D01*
X585750D01*
Y621500D01*
X567250D01*
Y606093D01*
X567212Y606000D01*
Y601000D01*
X567250Y600907D01*
Y585500D01*
X570006D01*
Y575176D01*
X569877Y575123D01*
X567341Y569000D01*
X569877Y562877D01*
X576000Y560341D01*
X582123Y562877D01*
X584659Y569000D01*
X582994Y573019D01*
Y585500D01*
X585750D01*
Y600907D01*
X585788Y601000D01*
Y606000D01*
X587058Y607006D01*
X590942D01*
X592212Y606000D01*
Y601000D01*
X592250Y600907D01*
Y596000D01*
X610750D01*
Y600907D01*
X610788Y601000D01*
Y605462D01*
X617212D01*
Y601000D01*
X617250Y600907D01*
Y585500D01*
X635750D01*
Y587006D01*
X643500D01*
Y584250D01*
X658907D01*
X659000Y584212D01*
X664000D01*
X664093Y584250D01*
X669000D01*
Y593500D01*
Y602750D01*
X664092D01*
X664000Y602788D01*
X659000D01*
X658907Y602750D01*
X643500D01*
Y599994D01*
X637058D01*
X635788Y601000D01*
Y606000D01*
X635750Y606093D01*
Y621500D01*
X632844D01*
Y649117D01*
X634544Y649455D01*
X634841Y648740D01*
X640291Y643290D01*
X644500Y641547D01*
X644500Y641547D01*
X652250D01*
Y636092D01*
X652212Y636000D01*
Y631000D01*
X652250Y630908D01*
Y626000D01*
X670750D01*
Y630907D01*
X670788Y631000D01*
Y636000D01*
X670750Y636093D01*
Y641547D01*
X683500D01*
Y638250D01*
X698907D01*
X699000Y638212D01*
X704000D01*
X704093Y638250D01*
X719500D01*
Y641506D01*
X742774D01*
X748000Y639341D01*
X754123Y641877D01*
X756659Y648000D01*
X754123Y654123D01*
X748000Y656659D01*
X742774Y654494D01*
X719500D01*
Y656750D01*
X704092D01*
X704000Y656788D01*
X699000D01*
X698907Y656750D01*
X683500D01*
Y653453D01*
X646966D01*
X645050Y655369D01*
Y676250D01*
X634050D01*
X633050Y676250D01*
X631350Y676250D01*
X620350D01*
Y676250D01*
X619650D01*
Y676250D01*
X608650D01*
X607650Y676250D01*
Y676250D01*
X606950D01*
Y676250D01*
X595788D01*
Y708750D01*
X606950D01*
Y708750D01*
X607650D01*
Y708750D01*
X618650D01*
X619650Y708750D01*
Y708750D01*
X620350D01*
Y708750D01*
X631350D01*
X632350Y708750D01*
X634050Y708750D01*
X636550D01*
Y719500D01*
Y730250D01*
X634050D01*
X633050Y730250D01*
X632303Y731641D01*
Y735750D01*
X635500D01*
Y736212D01*
X639500D01*
Y735750D01*
X645000D01*
Y745000D01*
Y754250D01*
X641300D01*
X640000Y754788D01*
X635000D01*
X633700Y754250D01*
X620144D01*
Y756753D01*
X685655D01*
X699595Y742812D01*
X700192Y742565D01*
X700649Y742109D01*
X700911Y742000D01*
X701557D01*
X702154Y741753D01*
X703000D01*
Y733500D01*
X727000D01*
Y741753D01*
X761846D01*
X762443Y742000D01*
X763089Y742000D01*
X763351Y742109D01*
X763808Y742565D01*
X764405Y742812D01*
X769345Y747753D01*
X832683D01*
X839253Y741376D01*
X839253Y690404D01*
X839500Y689807D01*
Y689161D01*
X839609Y688899D01*
X840066Y688442D01*
X840313Y687845D01*
X850095Y678063D01*
X850692Y677815D01*
X851149Y677359D01*
X851411Y677250D01*
X852057Y677250D01*
X852654Y677003D01*
X952500D01*
Y50000D01*
X925000D01*
X910000Y35000D01*
X910000Y7500D01*
X50000D01*
X50000Y35000D01*
X34997Y50003D01*
X7500Y50003D01*
X7500Y760000D01*
X35000D01*
X50000Y775000D01*
X50000Y802500D01*
X605454D01*
X606837Y801397D01*
D02*
G37*
%LPC*%
G36*
X598450Y663000D02*
X594950D01*
Y654750D01*
X598450D01*
Y663000D01*
D02*
G37*
G36*
X456000Y281000D02*
X447500D01*
Y274500D01*
X456000D01*
Y281000D01*
D02*
G37*
G36*
X442500D02*
X434000D01*
Y274500D01*
X442500D01*
Y281000D01*
D02*
G37*
G36*
X427250Y279000D02*
X420500D01*
Y273500D01*
X427250D01*
Y279000D01*
D02*
G37*
G36*
X415500D02*
X408750D01*
Y273500D01*
X415500D01*
Y279000D01*
D02*
G37*
G36*
Y268500D02*
X408750D01*
Y263000D01*
X415500D01*
Y268500D01*
D02*
G37*
G36*
X573000Y299250D02*
X567500D01*
Y292500D01*
X573000D01*
Y299250D01*
D02*
G37*
G36*
X562500D02*
X557000D01*
Y292500D01*
X562500D01*
Y299250D01*
D02*
G37*
G36*
X573000Y287500D02*
X567500D01*
Y280750D01*
X573000D01*
Y287500D01*
D02*
G37*
G36*
X562500D02*
X557000D01*
Y280750D01*
X562500D01*
Y287500D01*
D02*
G37*
G36*
X137250Y177000D02*
X130500D01*
Y171500D01*
X137250D01*
Y177000D01*
D02*
G37*
G36*
X125500D02*
X118750D01*
Y171500D01*
X125500D01*
Y177000D01*
D02*
G37*
G36*
X137250Y166500D02*
X130500D01*
Y161000D01*
X137250D01*
Y166500D01*
D02*
G37*
G36*
X125500D02*
X118750D01*
Y161000D01*
X125500D01*
Y166500D01*
D02*
G37*
G36*
X191750Y783000D02*
X185000D01*
Y777500D01*
X191750D01*
Y783000D01*
D02*
G37*
G36*
X180000D02*
X173250D01*
Y777500D01*
X180000D01*
Y783000D01*
D02*
G37*
G36*
X191750Y772500D02*
X185000D01*
Y767000D01*
X191750D01*
Y772500D01*
D02*
G37*
G36*
X180000D02*
X173250D01*
Y767000D01*
X180000D01*
Y772500D01*
D02*
G37*
G36*
X558500Y781500D02*
X550000D01*
Y765000D01*
X558500D01*
Y781500D01*
D02*
G37*
G36*
X545000D02*
X536500D01*
Y765000D01*
X545000D01*
Y781500D01*
D02*
G37*
G36*
X444000Y771500D02*
X427500D01*
Y763000D01*
X444000D01*
Y771500D01*
D02*
G37*
G36*
X422500D02*
X406000D01*
Y763000D01*
X422500D01*
Y771500D01*
D02*
G37*
G36*
X230000Y769071D02*
X220050Y764950D01*
X218619Y761494D01*
X191750D01*
Y763000D01*
X173250D01*
Y747000D01*
X176006D01*
Y730190D01*
X157310Y711494D01*
X122000D01*
Y717000D01*
X98000D01*
Y693000D01*
X103506D01*
Y576000D01*
X105408Y571408D01*
X157506Y519310D01*
Y445690D01*
X145310Y433494D01*
X142000D01*
Y436400D01*
X116000D01*
Y418400D01*
X142000D01*
Y420506D01*
X148000D01*
X152592Y422408D01*
X168592Y438408D01*
X170494Y443000D01*
Y522000D01*
X168592Y526592D01*
X116494Y578690D01*
Y693000D01*
X122000D01*
Y698506D01*
X160000D01*
X164592Y700408D01*
X187092Y722908D01*
X188994Y727500D01*
Y747000D01*
X191750D01*
Y748506D01*
X218619D01*
X220050Y745050D01*
X224155Y743350D01*
Y741650D01*
X220050Y739950D01*
X216964Y732500D01*
X230000D01*
X243036D01*
X239950Y739950D01*
X235845Y741650D01*
Y743350D01*
X239950Y745050D01*
X244071Y755000D01*
X239950Y764950D01*
X230000Y769071D01*
D02*
G37*
G36*
X342500Y766953D02*
Y757500D01*
X351953D01*
X349184Y764184D01*
X342500Y766953D01*
D02*
G37*
G36*
X337500Y766953D02*
X330816Y764184D01*
X328047Y757500D01*
X337500D01*
Y766953D01*
D02*
G37*
G36*
X112500Y766953D02*
Y757500D01*
X121953D01*
X119184Y764184D01*
X112500Y766953D01*
D02*
G37*
G36*
X107500Y766953D02*
X100816Y764184D01*
X98047Y757500D01*
X107500D01*
Y766953D01*
D02*
G37*
G36*
X444000Y758000D02*
X427500D01*
Y749500D01*
X444000D01*
Y758000D01*
D02*
G37*
G36*
X422500D02*
X406000D01*
Y749500D01*
X422500D01*
Y758000D01*
D02*
G37*
G36*
X655500Y754250D02*
X650000D01*
Y747500D01*
X655500D01*
Y754250D01*
D02*
G37*
G36*
X558500Y760000D02*
X550000D01*
Y743500D01*
X558500D01*
Y760000D01*
D02*
G37*
G36*
X545000D02*
X536500D01*
Y743500D01*
X545000D01*
Y760000D01*
D02*
G37*
G36*
X121953Y752500D02*
X112500D01*
Y743047D01*
X119184Y745816D01*
X121953Y752500D01*
D02*
G37*
G36*
X351953Y752500D02*
X342500D01*
Y743047D01*
X349184Y745816D01*
X351953Y752500D01*
D02*
G37*
G36*
X337500D02*
X328047D01*
X330816Y745816D01*
X337500Y743047D01*
Y752500D01*
D02*
G37*
G36*
X107500Y752500D02*
X98047D01*
X100816Y745816D01*
X107500Y743047D01*
Y752500D01*
D02*
G37*
G36*
X655500Y742500D02*
X650000D01*
Y735750D01*
X655500D01*
Y742500D01*
D02*
G37*
G36*
X279250Y733000D02*
X272500D01*
Y727500D01*
X279250D01*
Y733000D01*
D02*
G37*
G36*
X267500D02*
X260750D01*
Y727500D01*
X267500D01*
Y733000D01*
D02*
G37*
G36*
X641550Y730250D02*
Y722000D01*
X645050D01*
Y730250D01*
X641550D01*
D02*
G37*
G36*
X279250Y722500D02*
X272500D01*
Y717000D01*
X279250D01*
Y722500D01*
D02*
G37*
G36*
X267500D02*
X260750D01*
Y717000D01*
X267500D01*
Y722500D01*
D02*
G37*
G36*
X535500Y724000D02*
X522500D01*
Y715000D01*
X535500D01*
Y724000D01*
D02*
G37*
G36*
X517500D02*
X504500D01*
Y715000D01*
X517500D01*
Y724000D01*
D02*
G37*
G36*
X809200Y730948D02*
Y715000D01*
X825148D01*
X820477Y726277D01*
X809200Y730948D01*
D02*
G37*
G36*
X804200Y730947D02*
X792923Y726277D01*
X788252Y715000D01*
X804200D01*
Y730947D01*
D02*
G37*
G36*
X645050Y717000D02*
X641550D01*
Y708750D01*
X645050D01*
Y717000D01*
D02*
G37*
G36*
X535500Y710000D02*
X522500D01*
Y701000D01*
X535500D01*
Y710000D01*
D02*
G37*
G36*
X517500D02*
X504500D01*
Y701000D01*
X517500D01*
Y710000D01*
D02*
G37*
G36*
X717500Y707453D02*
Y698000D01*
X726953D01*
X724184Y704684D01*
X717500Y707453D01*
D02*
G37*
G36*
X712500Y707453D02*
X705816Y704684D01*
X703047Y698000D01*
X712500D01*
Y707453D01*
D02*
G37*
G36*
X804200Y710000D02*
X788253D01*
X792923Y698723D01*
X804200Y694053D01*
Y710000D01*
D02*
G37*
G36*
X825147D02*
X809200D01*
Y694052D01*
X820477Y698723D01*
X825147Y710000D01*
D02*
G37*
G36*
X726953Y693000D02*
X717500D01*
Y683547D01*
X724184Y686316D01*
X726953Y693000D01*
D02*
G37*
G36*
X712500D02*
X703047D01*
X705816Y686316D01*
X712500Y683547D01*
Y693000D01*
D02*
G37*
G36*
X251250Y623000D02*
X244500D01*
Y617500D01*
X251250D01*
Y623000D01*
D02*
G37*
G36*
X239500D02*
X232750D01*
Y617500D01*
X239500D01*
Y623000D01*
D02*
G37*
G36*
X670750Y621000D02*
X664000D01*
Y615500D01*
X670750D01*
Y621000D01*
D02*
G37*
G36*
X659000D02*
X652250D01*
Y615500D01*
X659000D01*
Y621000D01*
D02*
G37*
G36*
X251250Y612500D02*
X244500D01*
Y607000D01*
X251250D01*
Y612500D01*
D02*
G37*
G36*
X239500D02*
X232750D01*
Y607000D01*
X239500D01*
Y612500D01*
D02*
G37*
G36*
X370000Y666288D02*
X302000D01*
X299321Y665179D01*
X298212Y662500D01*
Y641000D01*
X293500D01*
Y613000D01*
X297506D01*
Y601690D01*
X292310Y596494D01*
X251250D01*
Y603000D01*
X232750D01*
Y596494D01*
X203000D01*
Y602000D01*
X179000D01*
Y578000D01*
X184506D01*
Y396500D01*
X186408Y391908D01*
X191908Y386408D01*
X196500Y384506D01*
X213506D01*
Y378558D01*
X212500Y377288D01*
X207750D01*
X207657Y377250D01*
X192000D01*
Y374494D01*
X182000D01*
Y377250D01*
X166000D01*
Y377038D01*
X162000D01*
Y377250D01*
X156500D01*
Y368000D01*
Y358750D01*
X162000D01*
Y359212D01*
X166000D01*
Y358750D01*
X182000D01*
Y361506D01*
X192000D01*
Y358750D01*
X207657D01*
X207750Y358712D01*
X212500D01*
X212593Y358750D01*
X228000D01*
Y361756D01*
X260490D01*
X262500Y360923D01*
X267858Y363143D01*
X270077Y368500D01*
X267858Y373857D01*
X262500Y376077D01*
X259283Y374744D01*
X228000D01*
Y377250D01*
X226494D01*
Y388000D01*
X224592Y392592D01*
X221592Y395592D01*
X217000Y397494D01*
X199190D01*
X197494Y399190D01*
Y578000D01*
X203000D01*
Y583506D01*
X262756D01*
Y554250D01*
X263250Y553056D01*
Y543500D01*
X275250D01*
Y543500D01*
X275950D01*
Y543500D01*
X287950D01*
X288156Y541885D01*
Y537350D01*
X290058Y532758D01*
X302408Y520408D01*
X307000Y518506D01*
X331442D01*
X332712Y517500D01*
Y512750D01*
X332750Y512657D01*
Y507500D01*
X342000D01*
X351250D01*
Y512658D01*
X351288Y512750D01*
Y517500D01*
X352558Y518506D01*
X450506D01*
Y468000D01*
X445000D01*
Y444000D01*
X469000D01*
Y468000D01*
X463494D01*
Y518506D01*
X479774D01*
X485000Y516341D01*
X491123Y518877D01*
X493659Y525000D01*
X491123Y531123D01*
X485000Y533659D01*
X479774Y531494D01*
X351250D01*
Y533000D01*
X332750D01*
Y531494D01*
X309690D01*
X301144Y540040D01*
Y541885D01*
X301350Y543500D01*
X302844Y543500D01*
X304850D01*
Y554250D01*
Y565000D01*
X302350D01*
X301350Y565000D01*
X299650Y565000D01*
X288650D01*
X288444Y566615D01*
Y567260D01*
X290690Y569506D01*
X381310D01*
X383506Y567310D01*
Y564500D01*
X378500D01*
Y533500D01*
X401500D01*
Y564500D01*
X396494D01*
Y570000D01*
X394592Y574592D01*
X388592Y580592D01*
X384000Y582494D01*
X374494D01*
Y613000D01*
X378500D01*
Y641000D01*
X374457D01*
X373788Y642000D01*
Y662500D01*
X372679Y665179D01*
X370000Y666288D01*
D02*
G37*
G36*
X679500Y602750D02*
X674000D01*
Y596000D01*
X679500D01*
Y602750D01*
D02*
G37*
G36*
X143500Y601953D02*
Y592500D01*
X152953D01*
X150184Y599184D01*
X143500Y601953D01*
D02*
G37*
G36*
X138500Y601953D02*
X131816Y599184D01*
X129047Y592500D01*
X138500D01*
Y601953D01*
D02*
G37*
G36*
X610750Y591000D02*
X604000D01*
Y585500D01*
X610750D01*
Y591000D01*
D02*
G37*
G36*
X599000D02*
X592250D01*
Y585500D01*
X599000D01*
Y591000D01*
D02*
G37*
G36*
X679500Y591000D02*
X674000D01*
Y584250D01*
X679500D01*
Y591000D01*
D02*
G37*
G36*
X152953Y587500D02*
X143500D01*
Y578047D01*
X150184Y580816D01*
X152953Y587500D01*
D02*
G37*
G36*
X138500D02*
X129047D01*
X131816Y580816D01*
X138500Y578047D01*
Y587500D01*
D02*
G37*
G36*
X309850Y565000D02*
Y556750D01*
X313350D01*
Y565000D01*
X309850D01*
D02*
G37*
G36*
X441500Y564500D02*
X432500D01*
Y551500D01*
X441500D01*
Y564500D01*
D02*
G37*
G36*
X427500D02*
X418500D01*
Y551500D01*
X427500D01*
Y564500D01*
D02*
G37*
G36*
X313350Y551750D02*
X309850D01*
Y543500D01*
X313350D01*
Y551750D01*
D02*
G37*
G36*
X441500Y546500D02*
X432500D01*
Y533500D01*
X441500D01*
Y546500D01*
D02*
G37*
G36*
X427500D02*
X418500D01*
Y533500D01*
X427500D01*
Y546500D01*
D02*
G37*
G36*
X301350Y511000D02*
X299650Y511000D01*
X297150D01*
Y500250D01*
Y489500D01*
X299650D01*
X300650Y489500D01*
X302350Y489500D01*
X304850D01*
Y500250D01*
Y511000D01*
X302350D01*
X301350Y511000D01*
D02*
G37*
G36*
X288650D02*
X286950Y511000D01*
X284450D01*
Y500250D01*
Y489500D01*
X286950D01*
X287950Y489500D01*
X289650Y489500D01*
X292150D01*
Y500250D01*
Y511000D01*
X289650D01*
X288650Y511000D01*
D02*
G37*
G36*
X142000Y512600D02*
X131500D01*
Y506100D01*
X142000D01*
Y512600D01*
D02*
G37*
G36*
X126500D02*
X116000D01*
Y506100D01*
X126500D01*
Y512600D01*
D02*
G37*
G36*
X309850Y511000D02*
Y502750D01*
X313350D01*
Y511000D01*
X309850D01*
D02*
G37*
G36*
X266750D02*
X263250D01*
Y502750D01*
X266750D01*
Y511000D01*
D02*
G37*
G36*
X699000Y503250D02*
X685500D01*
Y497250D01*
X699000D01*
Y503250D01*
D02*
G37*
G36*
X680500D02*
X667000D01*
Y497250D01*
X680500D01*
Y503250D01*
D02*
G37*
G36*
X351250Y502500D02*
X344500D01*
Y497000D01*
X351250D01*
Y502500D01*
D02*
G37*
G36*
X339500D02*
X332750D01*
Y497000D01*
X339500D01*
Y502500D01*
D02*
G37*
G36*
X234000Y512800D02*
X208000D01*
Y494800D01*
X234000D01*
Y512800D01*
D02*
G37*
G36*
X142000Y501100D02*
X131500D01*
Y494600D01*
X142000D01*
Y501100D01*
D02*
G37*
G36*
X126500D02*
X116000D01*
Y494600D01*
X126500D01*
Y501100D01*
D02*
G37*
G36*
X728500Y499000D02*
X723000D01*
Y492250D01*
X728500D01*
Y499000D01*
D02*
G37*
G36*
X718000D02*
X712500D01*
Y492250D01*
X718000D01*
Y499000D01*
D02*
G37*
G36*
X313350Y497750D02*
X309850D01*
Y489500D01*
X313350D01*
Y497750D01*
D02*
G37*
G36*
X275950Y511000D02*
X274250Y511000D01*
X271750D01*
Y500250D01*
Y489500D01*
X274250D01*
X275250Y489500D01*
X276950Y489500D01*
X279450D01*
Y500250D01*
Y511000D01*
X276950D01*
X275950Y511000D01*
D02*
G37*
G36*
X266750Y497750D02*
X263250D01*
Y489500D01*
X266750D01*
Y497750D01*
D02*
G37*
G36*
X699000Y492250D02*
X685500D01*
Y486250D01*
X699000D01*
Y492250D01*
D02*
G37*
G36*
X680500D02*
X667000D01*
Y486250D01*
X680500D01*
Y492250D01*
D02*
G37*
G36*
X234000Y487400D02*
X223500D01*
Y480900D01*
X234000D01*
Y487400D01*
D02*
G37*
G36*
X218500D02*
X208000D01*
Y480900D01*
X218500D01*
Y487400D01*
D02*
G37*
G36*
X728500Y487250D02*
X723000D01*
Y480500D01*
X728500D01*
Y487250D01*
D02*
G37*
G36*
X718000D02*
X712500D01*
Y480500D01*
X718000D01*
Y487250D01*
D02*
G37*
G36*
X234000Y475900D02*
X223500D01*
Y469400D01*
X234000D01*
Y475900D01*
D02*
G37*
G36*
X218500D02*
X208000D01*
Y469400D01*
X218500D01*
Y475900D01*
D02*
G37*
G36*
X45000Y684071D02*
X35050Y679950D01*
X30929Y670000D01*
X35050Y660050D01*
X39047Y658395D01*
Y512000D01*
X40791Y507790D01*
X73790Y474790D01*
X78000Y473047D01*
X116000D01*
Y469200D01*
X142000D01*
Y487200D01*
X116000D01*
Y484953D01*
X80466D01*
X50953Y514466D01*
Y658395D01*
X54950Y660050D01*
X59071Y670000D01*
X54950Y679950D01*
X45000Y684071D01*
D02*
G37*
G36*
X409500Y467953D02*
Y458500D01*
X418953D01*
X416184Y465184D01*
X409500Y467953D01*
D02*
G37*
G36*
X404500Y467953D02*
X397816Y465184D01*
X395047Y458500D01*
X404500D01*
Y467953D01*
D02*
G37*
G36*
X418953Y453500D02*
X409500D01*
Y444047D01*
X416184Y446816D01*
X418953Y453500D01*
D02*
G37*
G36*
X404500D02*
X395047D01*
X397816Y446816D01*
X404500Y444047D01*
Y453500D01*
D02*
G37*
G36*
X142000Y461800D02*
X116000D01*
Y443800D01*
X142000D01*
Y461800D01*
D02*
G37*
G36*
X234000Y436600D02*
X208000D01*
Y418600D01*
X234000D01*
Y436600D01*
D02*
G37*
G36*
X699000Y378250D02*
X685500D01*
Y372250D01*
X699000D01*
Y378250D01*
D02*
G37*
G36*
X680500D02*
X667000D01*
Y372250D01*
X680500D01*
Y378250D01*
D02*
G37*
G36*
X151500Y377250D02*
X146000D01*
Y370500D01*
X151500D01*
Y377250D01*
D02*
G37*
G36*
X718000Y371500D02*
X712500D01*
Y364750D01*
X718000D01*
Y371500D01*
D02*
G37*
G36*
X699000Y367250D02*
X685500D01*
Y361250D01*
X699000D01*
Y367250D01*
D02*
G37*
G36*
X680500D02*
X667000D01*
Y361250D01*
X680500D01*
Y367250D01*
D02*
G37*
G36*
X151500Y365500D02*
X146000D01*
Y358750D01*
X151500D01*
Y365500D01*
D02*
G37*
G36*
X353000Y364250D02*
X347500D01*
Y357500D01*
X353000D01*
Y364250D01*
D02*
G37*
G36*
X342500D02*
X337000D01*
Y357500D01*
X342500D01*
Y364250D01*
D02*
G37*
G36*
X718000Y359750D02*
X712500D01*
Y353000D01*
X718000D01*
Y359750D01*
D02*
G37*
G36*
X234000Y462000D02*
X208000D01*
Y444000D01*
X234000D01*
Y448129D01*
X245750D01*
Y445593D01*
X245712Y445500D01*
Y440750D01*
X245750Y440657D01*
Y425000D01*
X250129D01*
Y401000D01*
X251556Y397556D01*
X274129Y374982D01*
Y365559D01*
X273643Y365358D01*
X271423Y360000D01*
X273643Y354642D01*
X279000Y352423D01*
X284357Y354642D01*
X286577Y360000D01*
X284357Y365358D01*
X283871Y365559D01*
Y377000D01*
X282444Y380444D01*
X259871Y403018D01*
Y425000D01*
X264250D01*
Y440657D01*
X264288Y440750D01*
Y445500D01*
X264250Y445593D01*
Y461000D01*
X245750D01*
Y457871D01*
X234000D01*
Y462000D01*
D02*
G37*
G36*
X353000Y352500D02*
X347500D01*
Y345750D01*
X353000D01*
Y352500D01*
D02*
G37*
G36*
X342500D02*
X337000D01*
Y345750D01*
X342500D01*
Y352500D01*
D02*
G37*
G36*
X268250Y331000D02*
X261500D01*
Y325500D01*
X268250D01*
Y331000D01*
D02*
G37*
G36*
X256500D02*
X249750D01*
Y325500D01*
X256500D01*
Y331000D01*
D02*
G37*
G36*
X208000Y331000D02*
X190000D01*
Y325412D01*
X187750D01*
X187000Y325101D01*
X186250Y325412D01*
X183000D01*
Y329250D01*
X167593D01*
X167500Y329288D01*
X162750D01*
X162657Y329250D01*
X157500D01*
Y320000D01*
Y310750D01*
X162657D01*
X162750Y310712D01*
X167500D01*
X167593Y310750D01*
X180838D01*
Y301476D01*
X178673Y296250D01*
X180892Y290892D01*
X186250Y288673D01*
X191607Y290892D01*
X193827Y296250D01*
X191662Y301476D01*
Y309000D01*
X208000D01*
Y331000D01*
D02*
G37*
G36*
X152500Y329250D02*
X147000D01*
Y322500D01*
X152500D01*
Y329250D01*
D02*
G37*
G36*
X240000Y331000D02*
X233500D01*
Y322500D01*
X240000D01*
Y331000D01*
D02*
G37*
G36*
X228500D02*
X222000D01*
Y322500D01*
X228500D01*
Y331000D01*
D02*
G37*
G36*
X137250Y320000D02*
X130500D01*
Y314500D01*
X137250D01*
Y320000D01*
D02*
G37*
G36*
X125500D02*
X118750D01*
Y314500D01*
X125500D01*
Y320000D01*
D02*
G37*
G36*
X152500Y317500D02*
X147000D01*
Y310750D01*
X152500D01*
Y317500D01*
D02*
G37*
G36*
X228500Y317500D02*
X222000D01*
Y309000D01*
X228500D01*
Y317500D01*
D02*
G37*
G36*
X926000Y243250D02*
X920500D01*
Y236500D01*
X926000D01*
Y243250D01*
D02*
G37*
G36*
Y231500D02*
X920500D01*
Y224750D01*
X926000D01*
Y231500D01*
D02*
G37*
G36*
X926400Y209371D02*
Y201000D01*
X934771D01*
X932319Y206919D01*
X926400Y209371D01*
D02*
G37*
G36*
X921400D02*
X915481Y206919D01*
X913029Y201000D01*
X921400D01*
Y209371D01*
D02*
G37*
G36*
X769000D02*
X763081Y206919D01*
X760629Y201000D01*
X769000D01*
Y209371D01*
D02*
G37*
G36*
X934771Y196000D02*
X926400D01*
Y187629D01*
X932319Y190081D01*
X934771Y196000D01*
D02*
G37*
G36*
X921400D02*
X913029D01*
X915481Y190081D01*
X921400Y187629D01*
Y196000D01*
D02*
G37*
G36*
X769000D02*
X760629D01*
X763081Y190081D01*
X769000Y187629D01*
Y196000D01*
D02*
G37*
G36*
X757100Y209500D02*
X735100D01*
Y187500D01*
X736201D01*
X737401Y186296D01*
X737368Y176159D01*
X672000D01*
Y179500D01*
X648000D01*
Y155500D01*
X672000D01*
Y158841D01*
X905967Y158841D01*
X912500Y156135D01*
X920536Y159464D01*
X923865Y167500D01*
X920536Y175536D01*
X912500Y178865D01*
X905967Y176159D01*
X755890Y176159D01*
X754690Y177363D01*
X754723Y187500D01*
X757100D01*
Y209500D01*
D02*
G37*
G36*
X82353Y179700D02*
X72900D01*
Y170247D01*
X79584Y173016D01*
X82353Y179700D01*
D02*
G37*
G36*
X42500D02*
X33047D01*
X35816Y173016D01*
X42500Y170247D01*
Y179700D01*
D02*
G37*
G36*
X578500Y171250D02*
X573000D01*
Y164500D01*
X578500D01*
Y171250D01*
D02*
G37*
G36*
X247000Y162500D02*
X240500D01*
Y154000D01*
X247000D01*
Y162500D01*
D02*
G37*
G36*
X188250Y153000D02*
X181500D01*
Y147500D01*
X188250D01*
Y153000D01*
D02*
G37*
G36*
X176500D02*
X169750D01*
Y147500D01*
X176500D01*
Y153000D01*
D02*
G37*
G36*
X188250Y142500D02*
X181500D01*
Y137000D01*
X188250D01*
Y142500D01*
D02*
G37*
G36*
X176500D02*
X169750D01*
Y137000D01*
X176500D01*
Y142500D01*
D02*
G37*
G36*
X662500Y129453D02*
Y120000D01*
X671953D01*
X669184Y126684D01*
X662500Y129453D01*
D02*
G37*
G36*
X657500Y129453D02*
X650816Y126684D01*
X648047Y120000D01*
X657500D01*
Y129453D01*
D02*
G37*
G36*
X671953Y115000D02*
X662500D01*
Y105547D01*
X669184Y108316D01*
X671953Y115000D01*
D02*
G37*
G36*
X657500D02*
X648047D01*
X650816Y108316D01*
X657500Y105547D01*
Y115000D01*
D02*
G37*
G36*
X440250Y71000D02*
X433500D01*
Y65500D01*
X440250D01*
Y71000D01*
D02*
G37*
G36*
X428500D02*
X421750D01*
Y65500D01*
X428500D01*
Y71000D01*
D02*
G37*
G36*
X934900Y82500D02*
X912900D01*
Y60500D01*
X934900D01*
Y82500D01*
D02*
G37*
G36*
X898500Y83406D02*
X890081Y79919D01*
X886594Y71500D01*
X890081Y63081D01*
X898500Y59594D01*
X906919Y63081D01*
X910406Y71500D01*
X906919Y79919D01*
X898500Y83406D01*
D02*
G37*
G36*
X873100D02*
X864681Y79919D01*
X861194Y71500D01*
X864681Y63081D01*
X873100Y59594D01*
X881519Y63081D01*
X885006Y71500D01*
X881519Y79919D01*
X873100Y83406D01*
D02*
G37*
G36*
X847700D02*
X839281Y79919D01*
X835794Y71500D01*
X839281Y63081D01*
X847700Y59594D01*
X856119Y63081D01*
X859606Y71500D01*
X856119Y79919D01*
X847700Y83406D01*
D02*
G37*
G36*
X822300D02*
X813881Y79919D01*
X810394Y71500D01*
X813881Y63081D01*
X822300Y59594D01*
X830719Y63081D01*
X834206Y71500D01*
X830719Y79919D01*
X822300Y83406D01*
D02*
G37*
G36*
X796900D02*
X788481Y79919D01*
X784994Y71500D01*
X788481Y63081D01*
X796900Y59594D01*
X805319Y63081D01*
X808806Y71500D01*
X805319Y79919D01*
X796900Y83406D01*
D02*
G37*
G36*
X746100D02*
X737681Y79919D01*
X734194Y71500D01*
X737681Y63081D01*
X746100Y59594D01*
X754519Y63081D01*
X758006Y71500D01*
X754519Y79919D01*
X746100Y83406D01*
D02*
G37*
G36*
X538250Y60500D02*
X531500D01*
Y55000D01*
X538250D01*
Y60500D01*
D02*
G37*
G36*
X526500D02*
X519750D01*
Y55000D01*
X526500D01*
Y60500D01*
D02*
G37*
G36*
X771500Y83406D02*
X763081Y79919D01*
X759594Y71500D01*
X763081Y63081D01*
X765547Y62060D01*
Y59966D01*
X761534Y55953D01*
X692700D01*
X688491Y54209D01*
X686697Y52416D01*
X682700Y54071D01*
X672750Y49950D01*
X671967Y48060D01*
X670300Y48391D01*
Y53000D01*
X659800D01*
Y40000D01*
Y27000D01*
X670300D01*
Y31609D01*
X671967Y31940D01*
X672750Y30050D01*
X682700Y25929D01*
X692650Y30050D01*
X696771Y40000D01*
X695799Y42347D01*
X696935Y44047D01*
X764000D01*
X768210Y45791D01*
X775710Y53291D01*
X777453Y57500D01*
Y62060D01*
X779919Y63081D01*
X783406Y71500D01*
X779919Y79919D01*
X771500Y83406D01*
D02*
G37*
G36*
X214371Y54000D02*
X206000D01*
Y45629D01*
X211919Y48081D01*
X214371Y54000D01*
D02*
G37*
G36*
X564250Y51000D02*
X557500D01*
Y45500D01*
X564250D01*
Y51000D01*
D02*
G37*
G36*
X552500D02*
X545750D01*
Y45500D01*
X552500D01*
Y51000D01*
D02*
G37*
G36*
X654800Y53000D02*
X644300D01*
Y42500D01*
X654800D01*
Y53000D01*
D02*
G37*
G36*
X564250Y40500D02*
X557500D01*
Y35000D01*
X564250D01*
Y40500D01*
D02*
G37*
G36*
X552500D02*
X545750D01*
Y35000D01*
X552500D01*
Y40500D01*
D02*
G37*
G36*
X253000Y48948D02*
Y33000D01*
X268948D01*
X264277Y44277D01*
X253000Y48948D01*
D02*
G37*
G36*
X248000Y48948D02*
X236723Y44277D01*
X232052Y33000D01*
X248000D01*
Y48948D01*
D02*
G37*
G36*
X133000Y48948D02*
Y33000D01*
X148947D01*
X144277Y44277D01*
X133000Y48948D01*
D02*
G37*
G36*
X128000D02*
X116723Y44277D01*
X112052Y33000D01*
X128000D01*
Y48948D01*
D02*
G37*
G36*
X654800Y37500D02*
X644300D01*
Y27000D01*
X654800D01*
Y37500D01*
D02*
G37*
G36*
X248000Y28000D02*
X232052D01*
X236723Y16723D01*
X248000Y12053D01*
Y28000D01*
D02*
G37*
G36*
X148947Y28000D02*
X133000D01*
Y12053D01*
X144277Y16723D01*
X148947Y28000D01*
D02*
G37*
G36*
X128000D02*
X112052D01*
X116723Y16723D01*
X128000Y12053D01*
Y28000D01*
D02*
G37*
G36*
X268948Y28000D02*
X253000D01*
Y12053D01*
X264277Y16723D01*
X268948Y28000D01*
D02*
G37*
%LPD*%
D12*
X800000Y417300D02*
Y434000D01*
Y417300D02*
X800300Y417000D01*
X825700Y395300D02*
Y412000D01*
X825500Y523000D02*
Y536500D01*
X800300Y540300D02*
Y568700D01*
D45*
X238000Y165000D02*
D03*
X206000D02*
D03*
X199000Y320000D02*
D03*
X231000D02*
D03*
D46*
X457500Y113000D02*
D03*
X462500D02*
D03*
X467500D02*
D03*
X472500D02*
D03*
X477500D02*
D03*
X482500D02*
D03*
X487500D02*
D03*
X492500D02*
D03*
X497500D02*
D03*
X502500D02*
D03*
X507500D02*
D03*
X512500D02*
D03*
Y197000D02*
D03*
X507500D02*
D03*
X502500D02*
D03*
X497500D02*
D03*
X492500D02*
D03*
X487500D02*
D03*
X482500D02*
D03*
X477500D02*
D03*
X472500D02*
D03*
X467500D02*
D03*
X462500D02*
D03*
X457500D02*
D03*
D47*
X527000Y127500D02*
D03*
Y132500D02*
D03*
Y137500D02*
D03*
Y142500D02*
D03*
Y147500D02*
D03*
Y152500D02*
D03*
Y157500D02*
D03*
Y162500D02*
D03*
Y167500D02*
D03*
Y172500D02*
D03*
Y177500D02*
D03*
Y182500D02*
D03*
X443000D02*
D03*
Y177500D02*
D03*
Y172500D02*
D03*
Y167500D02*
D03*
Y162500D02*
D03*
Y157500D02*
D03*
Y152500D02*
D03*
Y147500D02*
D03*
Y142500D02*
D03*
Y137500D02*
D03*
Y132500D02*
D03*
Y127500D02*
D03*
D48*
X134500Y220500D02*
D03*
Y260500D02*
D03*
D49*
X500000Y53000D02*
D03*
X460000D02*
D03*
D50*
X582000Y528500D02*
D03*
Y495750D02*
D03*
Y405000D02*
D03*
Y372250D02*
D03*
D51*
X430000Y549000D02*
D03*
X390000D02*
D03*
D52*
X520000Y712500D02*
D03*
Y672500D02*
D03*
D53*
X278000Y192000D02*
D03*
Y212000D02*
D03*
X307000Y192000D02*
D03*
Y212000D02*
D03*
X865500Y427250D02*
D03*
Y447250D02*
D03*
X661500Y643500D02*
D03*
Y623500D02*
D03*
X601500Y613500D02*
D03*
Y593500D02*
D03*
X576500Y613500D02*
D03*
Y593500D02*
D03*
X255000Y453000D02*
D03*
Y433000D02*
D03*
X277000Y129000D02*
D03*
Y149000D02*
D03*
X259000Y323000D02*
D03*
Y303000D02*
D03*
X307000Y129000D02*
D03*
Y149000D02*
D03*
X555000Y63000D02*
D03*
Y43000D02*
D03*
X865500Y467250D02*
D03*
Y487250D02*
D03*
X242000Y595000D02*
D03*
Y615000D02*
D03*
X342000Y525000D02*
D03*
Y505000D02*
D03*
X626500Y613500D02*
D03*
Y593500D02*
D03*
X182500Y755000D02*
D03*
Y775000D02*
D03*
X270000Y705000D02*
D03*
Y725000D02*
D03*
X557500Y672500D02*
D03*
Y692500D02*
D03*
X418000Y291000D02*
D03*
Y271000D02*
D03*
X179000Y145000D02*
D03*
Y165000D02*
D03*
X128000Y292000D02*
D03*
Y312000D02*
D03*
Y189000D02*
D03*
Y169000D02*
D03*
X529000Y43000D02*
D03*
Y63000D02*
D03*
X431000Y43000D02*
D03*
Y63000D02*
D03*
D54*
X174000Y368000D02*
D03*
X154000D02*
D03*
X561000Y109000D02*
D03*
X581000D02*
D03*
X740500Y489750D02*
D03*
X720500D02*
D03*
X740500Y512250D02*
D03*
X720500D02*
D03*
X740500Y537250D02*
D03*
X720500D02*
D03*
X740500Y362250D02*
D03*
X720500D02*
D03*
X740500Y387250D02*
D03*
X720500D02*
D03*
X740500Y412250D02*
D03*
X720500D02*
D03*
X651500Y593500D02*
D03*
X671500D02*
D03*
X627500Y745000D02*
D03*
X647500D02*
D03*
X711500Y647500D02*
D03*
X691500D02*
D03*
X200000Y368000D02*
D03*
X220000D02*
D03*
X379000Y141000D02*
D03*
X399000D02*
D03*
X379000Y164000D02*
D03*
X399000D02*
D03*
X561000Y162000D02*
D03*
X581000D02*
D03*
X898000Y234000D02*
D03*
X918000D02*
D03*
X585000Y290000D02*
D03*
X565000D02*
D03*
X365000Y355000D02*
D03*
X345000D02*
D03*
X155000Y320000D02*
D03*
X175000D02*
D03*
D55*
X304000Y627000D02*
D03*
X368000D02*
D03*
X421000D02*
D03*
X485000D02*
D03*
D56*
X793950Y485250D02*
D03*
X806650D02*
D03*
X819350D02*
D03*
X832050D02*
D03*
Y539250D02*
D03*
X819350D02*
D03*
X806650D02*
D03*
X793950D02*
D03*
X611450Y485250D02*
D03*
X624150D02*
D03*
X636850D02*
D03*
X649550D02*
D03*
Y539250D02*
D03*
X636850D02*
D03*
X624150D02*
D03*
X611450D02*
D03*
X793950Y360250D02*
D03*
X806650D02*
D03*
X819350D02*
D03*
X832050D02*
D03*
Y414250D02*
D03*
X819350D02*
D03*
X806650D02*
D03*
X793950D02*
D03*
X611450Y360250D02*
D03*
X624150D02*
D03*
X636850D02*
D03*
X649550D02*
D03*
Y414250D02*
D03*
X636850D02*
D03*
X624150D02*
D03*
X611450D02*
D03*
X307350Y554250D02*
D03*
X294650D02*
D03*
X281950D02*
D03*
X269250D02*
D03*
Y500250D02*
D03*
X281950D02*
D03*
X294650D02*
D03*
X307350D02*
D03*
X600950Y665500D02*
D03*
X613650D02*
D03*
X626350D02*
D03*
X639050D02*
D03*
Y719500D02*
D03*
X626350D02*
D03*
X613650D02*
D03*
X600950D02*
D03*
D57*
X129000Y427400D02*
D03*
Y452800D02*
D03*
Y478200D02*
D03*
Y503600D02*
D03*
X221000Y503800D02*
D03*
Y478400D02*
D03*
Y453000D02*
D03*
Y427600D02*
D03*
D58*
X202000Y282225D02*
D03*
Y275875D02*
D03*
Y269525D02*
D03*
Y263175D02*
D03*
Y256825D02*
D03*
Y250475D02*
D03*
Y244125D02*
D03*
Y237775D02*
D03*
X258000Y282225D02*
D03*
Y275875D02*
D03*
Y269525D02*
D03*
Y263175D02*
D03*
Y256825D02*
D03*
Y250475D02*
D03*
Y244125D02*
D03*
Y237775D02*
D03*
D59*
X391000Y236750D02*
D03*
Y243250D02*
D03*
Y249750D02*
D03*
Y256250D02*
D03*
Y262750D02*
D03*
Y269250D02*
D03*
Y275750D02*
D03*
Y282250D02*
D03*
Y288750D02*
D03*
Y295250D02*
D03*
Y301750D02*
D03*
Y308250D02*
D03*
Y314750D02*
D03*
Y321250D02*
D03*
X319000Y236750D02*
D03*
Y243250D02*
D03*
Y249750D02*
D03*
Y256250D02*
D03*
Y262750D02*
D03*
Y269250D02*
D03*
Y275750D02*
D03*
Y282250D02*
D03*
Y288750D02*
D03*
Y295250D02*
D03*
Y301750D02*
D03*
Y308250D02*
D03*
Y314750D02*
D03*
Y321250D02*
D03*
D60*
X683000Y404750D02*
D03*
Y369750D02*
D03*
X540500Y529750D02*
D03*
Y494750D02*
D03*
X683000Y529750D02*
D03*
Y494750D02*
D03*
X543000Y404750D02*
D03*
Y369750D02*
D03*
D61*
X425000Y760500D02*
D03*
Y704500D02*
D03*
D62*
X547500Y762500D02*
D03*
X603500D02*
D03*
D63*
X445000Y304000D02*
D03*
Y272000D02*
D03*
D64*
X315000Y250000D02*
Y256500D01*
X319002Y256462D02*
X341250Y256250D01*
X319002Y249965D02*
X343897Y249750D01*
X315000Y256500D02*
X319002Y256462D01*
X315000Y250000D02*
X319002Y249965D01*
X374000Y262750D02*
X391000D01*
X442500Y112500D02*
Y127500D01*
X561000Y95000D02*
Y109000D01*
X551000Y85000D02*
X561000Y95000D01*
X502500Y85000D02*
X551000D01*
X499393Y77500D02*
X555000D01*
X487500Y89393D02*
X499393Y77500D01*
X346147Y247500D02*
X347500D01*
X345000Y260000D02*
X347500D01*
X341250Y256250D02*
X345000Y260000D01*
X70400Y205805D02*
X86195D01*
X299115Y321000D02*
X319000D01*
X464000Y71000D02*
X477500Y84500D01*
X464000Y57000D02*
Y71000D01*
X460000Y53000D02*
X464000Y57000D01*
X278000Y212000D02*
Y229000D01*
Y210500D02*
Y212000D01*
Y229000D02*
X301000Y252000D01*
Y271000D01*
X307250Y212750D02*
Y268250D01*
X365000Y355000D02*
Y357500D01*
Y312500D02*
Y355000D01*
X601000Y171000D02*
X700000Y270000D01*
X601000Y150000D02*
Y171000D01*
X593000Y142000D02*
X601000Y150000D01*
X595000Y154000D02*
Y173707D01*
X589000Y148000D02*
X595000Y154000D01*
Y173707D02*
X690000Y268707D01*
X86195Y205805D02*
X105000Y187000D01*
X195000Y220000D02*
X199000Y224000D01*
X182000Y220000D02*
X195000D01*
X150000Y188000D02*
X182000Y220000D01*
X185000Y214000D02*
X207000D01*
X156000Y185000D02*
X185000Y214000D01*
X156000Y155000D02*
Y185000D01*
X147000Y146000D02*
X156000Y155000D01*
X108000Y146000D02*
X147000D01*
X150000Y158071D02*
Y188000D01*
X143929Y152000D02*
X150000Y158071D01*
X111000Y152000D02*
X143929D01*
X105000Y158000D02*
X111000Y152000D01*
X105000Y158000D02*
Y187000D01*
X98000Y156000D02*
X108000Y146000D01*
X98000Y156000D02*
Y184000D01*
X87150Y194850D02*
X98000Y184000D01*
X343897Y249750D02*
X346147Y247500D01*
X406000Y278000D02*
Y281000D01*
X403750Y275750D02*
X406000Y278000D01*
X391000Y275750D02*
X403750D01*
X360000Y307500D02*
X365000Y312500D01*
X360000Y265000D02*
Y307500D01*
Y265000D02*
X368750Y256250D01*
X318750Y315000D02*
X319000Y314750D01*
X300949Y315000D02*
X318750D01*
X295000Y309051D02*
X300949Y315000D01*
X289000Y310885D02*
X299115Y321000D01*
X537500Y457500D02*
X603250D01*
X279000Y360000D02*
Y377000D01*
X255000Y401000D02*
X279000Y377000D01*
X255000Y401000D02*
Y433000D01*
X221000Y453000D02*
X255000D01*
X368750Y256250D02*
X391000D01*
X319000Y308250D02*
X360000D01*
X502500Y197000D02*
Y272500D01*
X537500Y307500D01*
X507500Y197000D02*
Y262500D01*
X552500Y307500D01*
Y305832D02*
Y307500D01*
X603250Y457500D02*
X611450Y465700D01*
Y343950D02*
Y360250D01*
X605000Y337500D02*
X611450Y343950D01*
X552500Y337500D02*
X605000D01*
X611450Y465700D02*
Y485250D01*
X567500Y77500D02*
X581000Y91000D01*
X555000Y77500D02*
X567500D01*
X555000Y63000D02*
Y77500D01*
X487500Y89393D02*
Y107500D01*
X487500Y107500D02*
X487500Y107500D01*
X487500Y107500D02*
Y113000D01*
X497500Y90000D02*
Y113000D01*
Y90000D02*
X502500Y85000D01*
X497500Y113000D02*
X497500Y113000D01*
X502500Y99500D02*
X508000Y94000D01*
X502500Y99500D02*
Y113000D01*
X508000Y94000D02*
X509000D01*
X374000Y262750D02*
Y265000D01*
X581000Y91000D02*
Y109000D01*
X477500Y84500D02*
Y113000D01*
X496000Y57000D02*
Y72000D01*
X482500Y85500D02*
X496000Y72000D01*
X482500Y85500D02*
Y113000D01*
X496000Y57000D02*
X500000Y53000D01*
X57750Y194850D02*
X87150D01*
X45000Y207600D02*
X57750Y194850D01*
X276000Y273000D02*
Y273273D01*
X275772Y284999D02*
X275999D01*
X272997Y282225D02*
X275772Y284999D01*
X700000Y270000D02*
X711000D01*
X551000Y142000D02*
X593000D01*
X540500Y152500D02*
X551000Y142000D01*
X527000Y152500D02*
X540500D01*
X690000Y268707D02*
Y290000D01*
X554000Y148000D02*
X589000D01*
X544500Y157500D02*
X554000Y148000D01*
X527000Y157500D02*
X544500D01*
X467500Y248750D02*
X477500Y238750D01*
Y197000D02*
Y238750D01*
X470000Y257500D02*
X482500Y245000D01*
Y197000D02*
Y245000D01*
X220000Y149184D02*
Y264000D01*
X213995Y270005D02*
X220000Y264000D01*
X202480Y270005D02*
X213995D01*
X225000Y267000D02*
X226000Y266000D01*
X225000Y267000D02*
Y267071D01*
X217066Y275005D02*
X225000Y267071D01*
X226000Y147350D02*
Y266000D01*
X211995Y275005D02*
X217066D01*
X166690Y88039D02*
X226000Y147350D01*
X233000Y199270D02*
Y262000D01*
X233000D01*
X239890Y268890D01*
X238000Y256236D02*
X238000Y256236D01*
X238000Y256236D02*
Y259165D01*
X242645Y263810D01*
X233000Y199270D02*
X238810Y193460D01*
X238000Y203000D02*
Y256236D01*
Y203000D02*
X242000Y199000D01*
X211760Y275240D02*
X211995Y275005D01*
X295000Y261000D02*
Y309051D01*
X289000Y264000D02*
Y310885D01*
X285110Y251110D02*
X295000Y261000D01*
X307250Y268250D02*
X308250Y269250D01*
X319000D01*
X264845Y251110D02*
X285110D01*
X281190Y256190D02*
X289000Y264000D01*
X264845Y256190D02*
X281190D01*
X301000Y271000D02*
X305500Y275500D01*
X399270Y140730D02*
X422730D01*
X399000Y141000D02*
X399270Y140730D01*
X422730D02*
X424500Y142500D01*
X242645Y263810D02*
X251155D01*
X239890Y268890D02*
X251155D01*
X242000Y199000D02*
X256289D01*
X239461Y193460D02*
X240001Y192920D01*
X238810Y193460D02*
X239461D01*
X256289Y199000D02*
X259500Y202211D01*
X208845Y275240D02*
X211760D01*
X208690Y275395D02*
X208845Y275240D01*
X202480Y275395D02*
X208690D01*
X169909Y69040D02*
X171362D01*
X166690Y72259D02*
X169909Y69040D01*
X166690Y72259D02*
Y88039D01*
X161610Y90794D02*
X220000Y149184D01*
X379000Y113000D02*
X379500Y112500D01*
X304250Y288750D02*
X319000D01*
X715000Y274000D02*
Y290000D01*
X711000Y270000D02*
X715000Y274000D01*
X161610Y69504D02*
Y90794D01*
X176775Y237775D02*
X202000D01*
X159000Y220000D02*
X176775Y237775D01*
X137000Y220000D02*
X159000D01*
X171362Y69040D02*
X178500Y76178D01*
X240000Y303000D02*
X259000D01*
X219000Y282000D02*
X240000Y303000D01*
X202225Y282000D02*
X219000D01*
X202000Y282225D02*
X202225Y282000D01*
X560500Y162500D02*
X561000Y162000D01*
X527000Y162500D02*
X560500D01*
X317000Y64000D02*
X342000D01*
X355000Y77000D01*
Y170000D01*
X311200Y58200D02*
X317000Y64000D01*
X311200Y40000D02*
Y58200D01*
X171362Y63960D02*
X178500Y56822D01*
X167154Y63960D02*
X171362D01*
X161610Y69504D02*
X167154Y63960D01*
X258000Y282225D02*
X272997D01*
X273523Y275750D02*
X276000Y273273D01*
X258125Y275750D02*
X273523D01*
X258000Y275875D02*
X258125Y275750D01*
X70400Y205805D02*
Y207600D01*
X183000Y268000D02*
X187825Y263175D01*
X202000D01*
X465000Y241000D02*
X472500Y233500D01*
X457250Y241000D02*
X465000D01*
X418000Y233000D02*
X461536D01*
X472500Y197000D02*
Y233500D01*
X465375Y248750D02*
X467500D01*
X483500Y258250D02*
Y258500D01*
Y258250D02*
X487500Y254250D01*
Y197000D02*
Y254250D01*
X423500Y257500D02*
X470000D01*
X255330Y192920D02*
X259750Y188500D01*
X240001Y192920D02*
X255330D01*
X259500Y202211D02*
Y202500D01*
X399000Y164000D02*
Y181000D01*
Y122000D02*
Y141000D01*
X402750Y236750D02*
X423500Y257500D01*
X391000Y236750D02*
X402750D01*
X318750Y275500D02*
X319000Y275750D01*
X305500Y275500D02*
X318750D01*
X161000Y260000D02*
X176875Y244125D01*
X138000Y260000D02*
X161000D01*
X137000Y261000D02*
X138000Y260000D01*
X176875Y244125D02*
X202000D01*
X467500Y197000D02*
Y227036D01*
X461536Y233000D02*
X467500Y227036D01*
X355000Y170000D02*
X418000Y233000D01*
X487500Y197000D02*
X487500Y197000D01*
X135000Y220000D02*
X137000D01*
X264690Y250955D02*
X264845Y251110D01*
X258480Y250955D02*
X264690D01*
X258000Y250475D02*
X258480Y250955D01*
X264690Y256345D02*
X264845Y256190D01*
X258480Y256345D02*
X264690D01*
X258000Y256825D02*
X258480Y256345D01*
X178500Y76178D02*
Y76500D01*
Y56500D02*
Y56822D01*
X202000Y275875D02*
X202480Y275395D01*
X202000Y269525D02*
X202480Y270005D01*
X257520Y263655D02*
X258000Y263175D01*
X251310Y263655D02*
X257520D01*
X251155Y263810D02*
X251310Y263655D01*
X257520Y269045D02*
X258000Y269525D01*
X251310Y269045D02*
X257520D01*
X251155Y268890D02*
X251310Y269045D01*
X432000Y206000D02*
X443000Y195000D01*
X400000Y206000D02*
X432000D01*
X362000Y168000D02*
X400000Y206000D01*
X443000Y182500D02*
Y195000D01*
X579000Y174000D02*
X581000Y172000D01*
X548000Y174000D02*
X579000D01*
X544500Y177500D02*
X548000Y174000D01*
X527000Y177500D02*
X544500D01*
X581000Y162000D02*
Y172000D01*
X581000Y172000D02*
X581000Y172000D01*
X362000Y40000D02*
Y168000D01*
X423500Y157500D02*
X443000D01*
X417000Y164000D02*
X423500Y157500D01*
X399000Y164000D02*
X417000D01*
X424500Y142500D02*
X443000D01*
X512000Y178000D02*
X512500Y177500D01*
X527000D01*
X442500Y112500D02*
X457000D01*
X527000Y182500D02*
X555000D01*
X457500Y197000D02*
Y225000D01*
X416000Y147500D02*
X443000D01*
D65*
X580000Y392500D02*
X628250D01*
X575000Y387500D02*
X580000Y392500D01*
X547500Y387500D02*
X575000D01*
X579750Y517250D02*
X628000D01*
X575000Y512500D02*
X579750Y517250D01*
X547500Y512500D02*
X575000D01*
X191000Y590000D02*
X269250D01*
X220000Y371000D02*
X222750Y368250D01*
X179000Y165000D02*
X206000D01*
X613650Y719500D02*
Y781500D01*
X421000Y603000D02*
X432000Y592000D01*
X474000D01*
X511000Y555000D01*
X583000Y370750D02*
Y379750D01*
X421000Y627000D02*
Y704500D01*
X585500Y414750D02*
X611450D01*
X583285Y403785D02*
Y412535D01*
X220000Y371000D02*
Y388000D01*
X217000Y391000D02*
X220000Y388000D01*
X196500Y391000D02*
X217000D01*
X191000Y396500D02*
X196500Y391000D01*
X191000Y396500D02*
Y590000D01*
X277000Y129000D02*
X307000D01*
X276000D02*
X277000D01*
X421000Y603000D02*
Y627000D01*
X206000Y165000D02*
Y199000D01*
X832050Y458800D02*
Y485250D01*
X830750Y457500D02*
X832050Y458800D01*
X742500Y457500D02*
X830750D01*
X740500Y459500D02*
X742500Y457500D01*
X740500Y459500D02*
Y489750D01*
X832050Y335800D02*
Y360250D01*
X831000Y334750D02*
X832050Y335800D01*
X742000Y334750D02*
X831000D01*
X740500Y336250D02*
X742000Y334750D01*
X740500Y336250D02*
Y362250D01*
X543000Y383000D02*
X547500Y387500D01*
X543000Y383000D02*
X543000Y369750D01*
X800300Y414250D02*
Y417000D01*
Y414250D02*
X806650D01*
X793950D02*
X800300D01*
X819350D02*
X830000D01*
X783050Y392450D02*
X848450D01*
X865500Y409500D01*
Y427250D01*
X793950Y539250D02*
X799250D01*
X800300D02*
X806650D01*
X800000Y569000D02*
X800300Y568700D01*
X778000Y397500D02*
Y435000D01*
X767000Y446000D02*
X778000Y435000D01*
X649000Y446000D02*
X767000D01*
X636850Y433850D02*
X649000Y446000D01*
X636850Y414250D02*
Y433850D01*
X368000Y576000D02*
X384000D01*
X288000D02*
X368000D01*
Y627000D01*
X390000Y549000D02*
Y570000D01*
X390000Y549000D02*
X390000Y549000D01*
X384000Y576000D02*
X390000Y570000D01*
X281950Y569950D02*
X288000Y576000D01*
X281950Y554250D02*
Y569950D01*
X457000Y525000D02*
X485000D01*
X457000Y456000D02*
Y525000D01*
X342000D02*
X457000D01*
X304000Y599000D02*
Y627000D01*
X295000Y590000D02*
X304000Y599000D01*
X269250Y590000D02*
X295000D01*
X269250Y554250D02*
Y590000D01*
X421000Y704500D02*
X425000D01*
X511000Y473515D02*
Y555000D01*
X582000Y470000D02*
Y495750D01*
X514515Y470000D02*
X582000D01*
Y350000D02*
Y370700D01*
X582050Y370750D01*
X583000D01*
X340000Y705000D02*
X340500Y704500D01*
X582000Y495750D02*
X582000Y495750D01*
X511000Y473515D02*
X514515Y470000D01*
X712000Y648000D02*
X748000D01*
X711500Y647500D02*
X712000Y648000D01*
X474500Y704500D02*
X475000Y705000D01*
X425000Y704500D02*
X474500D01*
X164000Y443000D02*
Y522000D01*
X110000Y576000D02*
X164000Y522000D01*
X110000Y576000D02*
Y705000D01*
X148000Y427000D02*
X164000Y443000D01*
X129400Y427000D02*
X148000D01*
X129000Y427400D02*
X129400Y427000D01*
X110000Y705000D02*
X160000D01*
X182500Y727500D01*
Y755000D01*
X230000D01*
Y705000D02*
X270000D01*
X340000D01*
X340500Y704500D02*
X421000D01*
X576000Y569000D02*
X576500Y569500D01*
Y593500D01*
X558000Y693000D02*
Y709000D01*
X557500Y692500D02*
X558000Y693000D01*
Y709000D02*
X568500Y719500D01*
X600950D01*
X602000Y614000D02*
Y636000D01*
X601500Y613500D02*
X602000Y614000D01*
Y636000D02*
X613650Y647650D01*
Y665500D01*
X626350Y613650D02*
X626500Y613500D01*
X626350Y613650D02*
Y665500D01*
X651500Y593500D02*
X651500Y593500D01*
X626500Y593500D02*
X651500D01*
X576500Y613500D02*
X601500D01*
X763750Y569000D02*
X778000Y554750D01*
X649750Y569000D02*
X763750D01*
X636850Y556100D02*
X649750Y569000D01*
X307000Y525000D02*
X342000D01*
X294650Y537350D02*
X307000Y525000D01*
X294650Y537350D02*
Y554250D01*
X222750Y368250D02*
X262250D01*
X262500Y368500D01*
X540500Y505500D02*
X547500Y512500D01*
X540500Y494750D02*
Y505500D01*
X628250Y392500D02*
X636850Y401100D01*
X585500Y382250D02*
X638000D01*
X583000Y379750D02*
X585500Y382250D01*
X638000D02*
X649550Y393800D01*
X778000Y523750D02*
X781250Y520500D01*
X778000Y523750D02*
Y554750D01*
X781250Y520500D02*
X793950D01*
X865500Y487250D02*
Y511750D01*
X856750Y520500D02*
X865500Y511750D01*
X793950Y520500D02*
X856750D01*
X793950Y485250D02*
Y520500D01*
X778000Y397500D02*
X783050Y392450D01*
X805000Y469750D02*
X806650Y471400D01*
X768000Y469750D02*
X805000D01*
X765500Y472250D02*
X768000Y469750D01*
X903000Y427250D02*
X920500Y444750D01*
X865500Y427250D02*
X903000D01*
X903000Y487250D02*
X920500Y469750D01*
X865500Y487250D02*
X903000D01*
X865500Y447250D02*
Y467250D01*
X636850Y539250D02*
Y556100D01*
X819350Y539250D02*
X829250D01*
X740500Y537250D02*
X755500D01*
X765500Y527250D01*
Y472250D02*
Y527250D01*
X806650Y471400D02*
Y485250D01*
X740500Y489750D02*
Y512250D01*
X663000D02*
X720500D01*
X649550Y498800D02*
X663000Y512250D01*
X649550Y485250D02*
Y498800D01*
Y530475D02*
X650275Y529750D01*
X649550Y530475D02*
Y539250D01*
Y529025D02*
X650275Y529750D01*
X649550Y518800D02*
Y529025D01*
X650275Y529750D02*
X683000D01*
X585500Y507250D02*
X638000D01*
X582000Y503750D02*
X585500Y507250D01*
X582000Y495750D02*
Y503750D01*
X638000Y507250D02*
X649550Y518800D01*
X636850Y526100D02*
Y539250D01*
X628000Y517250D02*
X636850Y526100D01*
X540500Y529750D02*
X541750Y528500D01*
X582000D01*
X587500Y539250D02*
X611450D01*
X585100Y536850D02*
X587500Y539250D01*
X585100Y530050D02*
Y536850D01*
X583550Y528500D02*
X585100Y530050D01*
X582000Y528500D02*
X583550D01*
X805000Y344750D02*
X806650Y346400D01*
X765500Y344750D02*
X805000D01*
X763000Y347250D02*
X765500Y344750D01*
X793950Y360250D02*
Y392250D01*
X740500Y412250D02*
X755500D01*
X740500Y412250D02*
X740500Y412250D01*
X755500D02*
X763000Y404750D01*
Y347250D02*
Y404750D01*
X806650Y346400D02*
Y360250D01*
X663000Y387250D02*
X720500D01*
X649550Y373800D02*
X663000Y387250D01*
X649550Y360250D02*
Y373800D01*
X740500Y362250D02*
Y387250D01*
X543000Y404750D02*
X543250Y405000D01*
X582000D01*
X583285Y412535D02*
X585500Y414750D01*
X649550Y393800D02*
Y414250D01*
X636850Y401100D02*
Y414250D01*
X611450D02*
Y414750D01*
X650500Y397250D02*
Y404750D01*
X683000D01*
X307000Y129000D02*
X328000D01*
X335000Y136000D01*
Y211000D01*
X45000Y233000D02*
X70400Y258400D01*
X70800Y258000D02*
X91000D01*
X70400Y258400D02*
X70800Y258000D01*
X91000D02*
X108000Y241000D01*
X149000D01*
X157000Y249000D01*
X174000Y368000D02*
X200000D01*
D66*
X417000Y293250D02*
X419250Y291000D01*
X365000Y357500D02*
X367500Y355000D01*
X502270Y44000D02*
X529000D01*
X529400Y43800D01*
X531000Y43000D01*
X429500Y44000D02*
X456730D01*
X519500Y672000D02*
X558000D01*
X519500D02*
X520000Y671500D01*
X78000Y479000D02*
X129000D01*
X45000Y462000D02*
X50000Y467000D01*
X277500Y151500D02*
Y192500D01*
X644500Y647500D02*
X691500D01*
X125000Y189000D02*
Y212270D01*
X307000Y152000D02*
Y191500D01*
X819525Y345175D02*
X819525D01*
X819350Y345350D02*
X819525Y345175D01*
X819350Y345350D02*
Y360250D01*
X819519Y470181D02*
X819519D01*
X819350Y470350D02*
X819519Y470181D01*
X720500Y537250D02*
Y556500D01*
X720000Y557000D02*
X720500Y556500D01*
X624000Y557000D02*
X624150Y556850D01*
Y539250D02*
Y556850D01*
X721000Y412750D02*
Y433000D01*
X720500Y412250D02*
X721000Y412750D01*
X624000Y434000D02*
X624150Y433850D01*
Y414250D02*
Y433850D01*
X819350Y470350D02*
Y485250D01*
X294650Y500250D02*
X307350D01*
X281950D02*
X294650D01*
X269250D02*
X281950D01*
X485500Y633000D02*
X507000D01*
X485000Y632500D02*
X485500Y633000D01*
X507000D02*
X520000Y646000D01*
Y671500D01*
X558000Y672000D02*
X564500Y665500D01*
X600950D01*
X45000Y512000D02*
X78000Y479000D01*
X45000Y512000D02*
Y670000D01*
X639050Y652950D02*
X644500Y647500D01*
X639050Y652950D02*
Y665500D01*
X626350Y743850D02*
X627500Y745000D01*
X626350Y719500D02*
Y743850D01*
X405000Y355000D02*
X440000Y320000D01*
X367500Y355000D02*
X405000D01*
X440000Y320000D02*
X570000D01*
X660000Y324500D02*
X891250D01*
X640000Y304500D02*
X660000Y324500D01*
X640000Y290000D02*
Y304500D01*
X898000Y234000D02*
Y248000D01*
X914000Y264000D01*
Y301750D01*
X891250Y324500D02*
X914000Y301750D01*
X636750Y463000D02*
X636850Y463100D01*
Y485250D01*
X819250Y507000D02*
X819350Y506900D01*
Y485250D02*
Y506900D01*
X819289Y378019D02*
X819350Y377958D01*
Y360250D02*
Y377958D01*
X636750Y340750D02*
X636850Y340850D01*
Y360250D01*
X570000Y320000D02*
X585000Y305000D01*
Y290000D02*
Y305000D01*
Y242000D02*
Y290000D01*
X555000Y212000D02*
X585000Y242000D01*
X555000Y182500D02*
Y212000D01*
X586000Y290000D02*
X640000D01*
X771500Y57500D02*
Y71500D01*
X764000Y50000D02*
X771500Y57500D01*
X692700Y50000D02*
X764000D01*
X898000Y199000D02*
Y234000D01*
Y199000D02*
X898500Y198500D01*
X682700Y40000D02*
X692700Y50000D01*
X45000Y360000D02*
Y462000D01*
X379000Y113000D02*
Y141000D01*
Y50429D02*
Y113000D01*
X379500Y112500D02*
X442500D01*
X379000Y50429D02*
X387400Y42029D01*
Y40000D02*
Y42029D01*
X45000Y309200D02*
Y334600D01*
Y309200D02*
X70400Y283800D01*
X45000Y334600D02*
X70400D01*
X45000Y258400D02*
X70400Y283800D01*
X45000Y182200D02*
X70400D01*
X125000Y289000D02*
X128000Y292000D01*
X417000Y304000D02*
Y320000D01*
Y304000D02*
X445000D01*
X417000Y293250D02*
Y304000D01*
X418000Y291000D02*
X419250D01*
X45000Y360000D02*
X70400D01*
X379000Y141000D02*
Y164000D01*
X125000Y268000D02*
Y289000D01*
Y268000D02*
X132500Y260500D01*
X134500D01*
X137000Y220000D02*
X144000Y213000D01*
X136500Y220500D02*
X137000Y220000D01*
X134500Y220500D02*
X136500D01*
X428500Y45000D02*
X429500Y44000D01*
D67*
X331250Y282250D02*
X336000Y287000D01*
X319000Y282250D02*
X331250D01*
X336000Y287000D02*
Y299000D01*
X333250Y301750D02*
X336000Y299000D01*
X319000Y301750D02*
X333250D01*
D68*
X910000Y167500D02*
X912500D01*
X910000Y167500D02*
X910000Y167500D01*
X660000D02*
X910000Y167500D01*
X660000Y167500D02*
X665000D01*
X746000Y168000D02*
X746100Y198500D01*
X872500Y290000D02*
X873100Y289400D01*
Y198500D02*
Y289400D01*
X847500Y290000D02*
X847700Y289800D01*
Y198500D02*
Y289800D01*
X822300D02*
X822500Y290000D01*
X822300Y198500D02*
Y289800D01*
X796900Y289400D02*
X797500Y290000D01*
X796900Y198500D02*
Y289400D01*
D69*
X171000Y267000D02*
Y275000D01*
Y267000D02*
X181175Y256825D01*
X202000D01*
X160000Y270000D02*
X179525Y250475D01*
X202000D01*
X125000Y212270D02*
X133230Y220500D01*
X134500D01*
X492000Y129000D02*
X492500Y128500D01*
Y113000D02*
Y128500D01*
X457500Y132500D02*
X458000Y132000D01*
X443000Y132500D02*
X457500D01*
X462500Y179500D02*
X463000Y179000D01*
X462500Y179500D02*
Y197000D01*
X442500Y127500D02*
X443000D01*
X457000Y112500D02*
X457500Y113000D01*
D70*
X175000Y320000D02*
X186250D01*
Y296250D02*
Y320000D01*
X187750D02*
X199000D01*
D71*
X920500Y444750D02*
D03*
D72*
Y469750D02*
D03*
X362000Y40000D02*
D03*
X336600D02*
D03*
X387400D02*
D03*
X45000Y670000D02*
D03*
Y467000D02*
D03*
X682700Y40000D02*
D03*
X230000Y705000D02*
D03*
Y730000D02*
D03*
Y755000D02*
D03*
D73*
X797500Y290000D02*
D03*
X822500D02*
D03*
X847500D02*
D03*
X640000D02*
D03*
X665000D02*
D03*
X690000D02*
D03*
X70400Y182200D02*
D03*
X45000D02*
D03*
X70400Y207600D02*
D03*
X45000D02*
D03*
X70400Y233000D02*
D03*
X45000D02*
D03*
X70400Y258400D02*
D03*
X45000D02*
D03*
X70400Y360000D02*
D03*
X45000Y334600D02*
D03*
X70400D02*
D03*
X45000Y309200D02*
D03*
X70400D02*
D03*
X45000Y283800D02*
D03*
X70400D02*
D03*
X660000Y117500D02*
D03*
X141000Y590000D02*
D03*
X715000Y695500D02*
D03*
X110000Y755000D02*
D03*
X340000D02*
D03*
X407000Y456000D02*
D03*
D74*
X872500Y290000D02*
D03*
X715000D02*
D03*
X191000Y590000D02*
D03*
X457000Y456000D02*
D03*
D75*
X857500Y712500D02*
D03*
D76*
X806700D02*
D03*
X250500Y30500D02*
D03*
X130500D02*
D03*
D77*
X45000Y360000D02*
D03*
X660000Y167500D02*
D03*
X715000Y745500D02*
D03*
X110000Y705000D02*
D03*
X340000D02*
D03*
D78*
X203500Y56500D02*
D03*
X178500Y76500D02*
D03*
Y56500D02*
D03*
X898500Y71500D02*
D03*
X873100D02*
D03*
X847700D02*
D03*
X822300D02*
D03*
X796900D02*
D03*
X771500D02*
D03*
X746100D02*
D03*
X771500Y198500D02*
D03*
X796900D02*
D03*
X822300D02*
D03*
X847700D02*
D03*
X873100D02*
D03*
X898500D02*
D03*
X923900D02*
D03*
D79*
X203500Y76500D02*
D03*
D80*
X311200Y40000D02*
D03*
X657300D02*
D03*
D81*
X923900Y71500D02*
D03*
X746100Y198500D02*
D03*
D82*
X105000Y210000D02*
D03*
Y225000D02*
D03*
X90000Y217500D02*
D03*
Y232500D02*
D03*
X500000Y140000D02*
D03*
X485000D02*
D03*
X470000D02*
D03*
X500000Y155000D02*
D03*
X485000D02*
D03*
X347500Y247500D02*
D03*
Y260000D02*
D03*
X925000Y137500D02*
D03*
Y150000D02*
D03*
X912500D02*
D03*
X862500Y50000D02*
D03*
X850000D02*
D03*
X837500D02*
D03*
X825000D02*
D03*
X25000Y287500D02*
D03*
Y275000D02*
D03*
Y262500D02*
D03*
Y250000D02*
D03*
X22500Y575000D02*
D03*
Y565000D02*
D03*
Y555000D02*
D03*
Y545000D02*
D03*
X875000Y550000D02*
D03*
X819525Y345175D02*
D03*
X819519Y470181D02*
D03*
X660000Y680000D02*
D03*
Y690000D02*
D03*
Y700000D02*
D03*
Y710000D02*
D03*
X635000Y685000D02*
D03*
X625000D02*
D03*
X615000D02*
D03*
X605000D02*
D03*
X635000Y700000D02*
D03*
X625000D02*
D03*
X615000D02*
D03*
X605000D02*
D03*
X687500Y337500D02*
D03*
X700000D02*
D03*
X712500D02*
D03*
X725000D02*
D03*
X475000Y675000D02*
D03*
X462500D02*
D03*
X450000D02*
D03*
X437500D02*
D03*
X362500Y550000D02*
D03*
X350000D02*
D03*
X337500D02*
D03*
X325000D02*
D03*
X250000Y537500D02*
D03*
X237500D02*
D03*
X225000D02*
D03*
X212500D02*
D03*
X80000Y575000D02*
D03*
Y565000D02*
D03*
Y555000D02*
D03*
Y545000D02*
D03*
X520000Y215000D02*
D03*
X887500Y550000D02*
D03*
X900000D02*
D03*
X912500D02*
D03*
X887500Y375000D02*
D03*
X875000D02*
D03*
X900000D02*
D03*
X912500D02*
D03*
X887500Y350000D02*
D03*
X875000D02*
D03*
X912500D02*
D03*
X900000D02*
D03*
X650000Y262500D02*
D03*
X637500D02*
D03*
X625000D02*
D03*
X587500Y212500D02*
D03*
Y200000D02*
D03*
Y187500D02*
D03*
X675000Y200000D02*
D03*
Y212500D02*
D03*
X687500D02*
D03*
Y200000D02*
D03*
X347500Y322500D02*
D03*
X347000Y299000D02*
D03*
X372500Y302500D02*
D03*
Y277500D02*
D03*
X812500Y100000D02*
D03*
X825000D02*
D03*
X837500D02*
D03*
X850000D02*
D03*
X775000Y225000D02*
D03*
X762500D02*
D03*
X750000D02*
D03*
X737500D02*
D03*
Y237500D02*
D03*
X775000D02*
D03*
X762500D02*
D03*
X750000D02*
D03*
X212500Y350000D02*
D03*
X200000D02*
D03*
X187500D02*
D03*
X300000Y337500D02*
D03*
X287500D02*
D03*
X275000D02*
D03*
X150000Y350000D02*
D03*
X137500D02*
D03*
X125000D02*
D03*
X150000Y337500D02*
D03*
X137500D02*
D03*
X125000D02*
D03*
X562500Y250000D02*
D03*
X550000D02*
D03*
Y262500D02*
D03*
Y275000D02*
D03*
X100000Y437500D02*
D03*
X87500D02*
D03*
X75000D02*
D03*
X62500D02*
D03*
X325000Y412500D02*
D03*
X312500D02*
D03*
X300000D02*
D03*
X287500D02*
D03*
X325000Y437500D02*
D03*
X312500D02*
D03*
X300000D02*
D03*
X287500D02*
D03*
X525000Y587500D02*
D03*
X537500D02*
D03*
X550000D02*
D03*
X912500Y625000D02*
D03*
Y612500D02*
D03*
Y600000D02*
D03*
X287500Y787500D02*
D03*
X275000D02*
D03*
X262500D02*
D03*
X187500Y662500D02*
D03*
X175000D02*
D03*
X162500D02*
D03*
X150000D02*
D03*
X75000Y762500D02*
D03*
Y787500D02*
D03*
Y775000D02*
D03*
X25000Y737500D02*
D03*
X37500D02*
D03*
X50000D02*
D03*
X437500Y87500D02*
D03*
X425000D02*
D03*
X412500D02*
D03*
X400000D02*
D03*
X87500Y62500D02*
D03*
Y50000D02*
D03*
Y37500D02*
D03*
Y25000D02*
D03*
X62500Y87500D02*
D03*
X50000D02*
D03*
X37500D02*
D03*
X25000D02*
D03*
X287500Y100000D02*
D03*
X300000D02*
D03*
X312500D02*
D03*
X325000D02*
D03*
X600000Y87500D02*
D03*
Y75000D02*
D03*
Y62500D02*
D03*
Y50000D02*
D03*
X812500Y112500D02*
D03*
X825000D02*
D03*
X837500D02*
D03*
X850000D02*
D03*
X462500Y787500D02*
D03*
X512500D02*
D03*
X500000D02*
D03*
X487500D02*
D03*
X475000D02*
D03*
X462500Y575000D02*
D03*
Y562500D02*
D03*
Y550000D02*
D03*
X325000Y462500D02*
D03*
X312500D02*
D03*
X300000D02*
D03*
X287500D02*
D03*
X462500Y375000D02*
D03*
X475000D02*
D03*
X487500D02*
D03*
X500000D02*
D03*
X750000Y787500D02*
D03*
X737500D02*
D03*
X725000D02*
D03*
X712500D02*
D03*
X850000D02*
D03*
X812500D02*
D03*
X825000D02*
D03*
X837500D02*
D03*
X912500Y737500D02*
D03*
Y725000D02*
D03*
Y712500D02*
D03*
Y700000D02*
D03*
X725000Y625000D02*
D03*
Y612500D02*
D03*
Y600000D02*
D03*
X787500Y625000D02*
D03*
Y612500D02*
D03*
Y600000D02*
D03*
X850000Y625000D02*
D03*
Y612500D02*
D03*
Y600000D02*
D03*
X687500Y462500D02*
D03*
X705000D02*
D03*
X722500D02*
D03*
X507500Y305000D02*
D03*
X465000Y275000D02*
D03*
X562500Y262500D02*
D03*
Y275000D02*
D03*
X347500Y272500D02*
D03*
X406000Y281000D02*
D03*
X537500Y457500D02*
D03*
X582000Y470000D02*
D03*
X262500Y368500D02*
D03*
X279000Y360000D02*
D03*
X552500Y307500D02*
D03*
X537500D02*
D03*
X552500Y337500D02*
D03*
X636750Y463000D02*
D03*
X819250Y507000D02*
D03*
X819289Y378019D02*
D03*
X636750Y340750D02*
D03*
X502500Y85000D02*
D03*
X509000Y94000D02*
D03*
X374000Y265000D02*
D03*
X199000Y224000D02*
D03*
X276000Y273000D02*
D03*
X275999Y284999D02*
D03*
X207000Y214000D02*
D03*
X414000Y149000D02*
D03*
X304000Y289000D02*
D03*
X206000Y199000D02*
D03*
X335000Y211000D02*
D03*
X157000Y249000D02*
D03*
X417000Y320000D02*
D03*
X457250Y241000D02*
D03*
X465375Y248750D02*
D03*
X483500Y258500D02*
D03*
X259750Y188500D02*
D03*
X259500Y202500D02*
D03*
X399000Y181000D02*
D03*
Y122000D02*
D03*
X183000Y268000D02*
D03*
X171000Y275000D02*
D03*
X186250Y296250D02*
D03*
X160000Y270000D02*
D03*
X470000Y170000D02*
D03*
X485000D02*
D03*
X500000D02*
D03*
X470000Y155000D02*
D03*
X442500Y112500D02*
D03*
X555000Y182500D02*
D03*
X457500Y225000D02*
D03*
D83*
X800000Y434000D02*
D03*
Y569000D02*
D03*
X720000Y557000D02*
D03*
X624000D02*
D03*
X721000Y433000D02*
D03*
X624000Y434000D02*
D03*
X582000Y350000D02*
D03*
X748000Y648000D02*
D03*
X475000Y705000D02*
D03*
X576000Y569000D02*
D03*
X485000Y525000D02*
D03*
D84*
X912500Y167500D02*
D03*
M02*
