G04*
G04 #@! TF.GenerationSoftware,Altium Limited,Altium Designer,19.1.8 (144)*
G04*
G04 Layer_Physical_Order=2*
G04 Layer_Color=16711680*
%FSLAX44Y44*%
%MOMM*%
G71*
G01*
G75*
%ADD53R,1.2500X1.0000*%
%ADD54R,1.0000X1.2500*%
%ADD64C,0.3000*%
%ADD65C,0.6000*%
%ADD66C,0.5000*%
%ADD68C,1.0000*%
%ADD71R,2.0000X2.0000*%
%ADD72C,2.0000*%
%ADD73C,1.8000*%
%ADD74R,1.8000X1.8000*%
%ADD75R,3.0000X3.0000*%
%ADD76C,3.0000*%
%ADD77R,1.8000X1.8000*%
%ADD78C,1.6000*%
%ADD79R,1.6000X1.6000*%
%ADD80R,2.0000X2.0000*%
%ADD81R,1.6000X1.6000*%
%ADD82C,0.8000*%
%ADD83C,1.0000*%
%ADD84C,1.5000*%
%ADD85C,1.5000*%
G36*
X910000Y775250D02*
X925000Y760250D01*
X952500D01*
Y680250D01*
X852500D01*
X842500Y690250D01*
X842500Y742750D01*
X835000Y750250D01*
X767500D01*
X762500Y745250D01*
X702500Y745250D01*
X697500Y750250D01*
X697500Y797500D01*
X702500Y802500D01*
X910000D01*
Y775250D01*
D02*
G37*
G36*
X697001Y801327D02*
X695337Y799663D01*
X694674Y798671D01*
X694441Y797500D01*
X694441Y797500D01*
X694441Y750250D01*
X694441Y750250D01*
X694674Y749080D01*
X695337Y748087D01*
X695337Y748087D01*
X700337Y743087D01*
X700337Y743087D01*
X701329Y742424D01*
X702500Y742191D01*
X703000Y741114D01*
Y733500D01*
X727000D01*
Y742191D01*
X762500Y742191D01*
X762500Y742191D01*
X763671Y742424D01*
X764663Y743087D01*
X768767Y747191D01*
X833733D01*
X839441Y741483D01*
X839441Y690250D01*
X839674Y689080D01*
X840337Y688087D01*
X840337Y688087D01*
X850337Y678087D01*
X850337Y678087D01*
X851329Y677424D01*
X852500Y677191D01*
X852500Y677191D01*
X934409D01*
Y575117D01*
X805169D01*
X804035Y575988D01*
X802088Y576794D01*
X800000Y577069D01*
X797912Y576794D01*
X795965Y575988D01*
X794831Y575117D01*
X581169D01*
X580034Y575988D01*
X578088Y576794D01*
X576000Y577069D01*
X573912Y576794D01*
X571965Y575988D01*
X570831Y575117D01*
X529000D01*
X526659Y574652D01*
X524674Y573326D01*
X484329Y532981D01*
X482912Y532794D01*
X480965Y531988D01*
X479294Y530706D01*
X478012Y529035D01*
X477206Y527088D01*
X476931Y525000D01*
X477206Y522912D01*
X478012Y520965D01*
X479294Y519294D01*
X480965Y518012D01*
X482912Y517206D01*
X485000Y516931D01*
X487088Y517206D01*
X489035Y518012D01*
X490706Y519294D01*
X491988Y520965D01*
X492794Y522912D01*
X492981Y524329D01*
X531534Y562882D01*
X570831D01*
X571965Y562012D01*
X573912Y561206D01*
X576000Y560931D01*
X578088Y561206D01*
X580034Y562012D01*
X581169Y562882D01*
X616829D01*
X617455Y561613D01*
X617012Y561035D01*
X616206Y559088D01*
X615931Y557000D01*
X616206Y554912D01*
X617012Y552966D01*
X618294Y551294D01*
X619966Y550012D01*
X621912Y549206D01*
X624000Y548931D01*
X626088Y549206D01*
X628035Y550012D01*
X629706Y551294D01*
X629781Y551392D01*
X714219D01*
X714294Y551294D01*
X715965Y550012D01*
X717912Y549206D01*
X720000Y548931D01*
X722088Y549206D01*
X724035Y550012D01*
X725706Y551294D01*
X726988Y552966D01*
X727794Y554912D01*
X728069Y557000D01*
X727794Y559088D01*
X726988Y561035D01*
X726544Y561613D01*
X727171Y562882D01*
X793883D01*
Y439169D01*
X793012Y438035D01*
X792206Y436088D01*
X791931Y434000D01*
X792206Y431912D01*
X793012Y429966D01*
X794294Y428294D01*
X795965Y427012D01*
X797912Y426206D01*
X800000Y425931D01*
X802088Y426206D01*
X804035Y427012D01*
X805706Y428294D01*
X806988Y429966D01*
X807794Y431912D01*
X808069Y434000D01*
X807794Y436088D01*
X806988Y438035D01*
X806117Y439169D01*
Y562882D01*
X934409D01*
Y550000D01*
X934409Y550000D01*
Y473336D01*
X933165Y473144D01*
X931855Y476306D01*
X929772Y479022D01*
X927056Y481105D01*
X923894Y482415D01*
X920500Y482862D01*
X917106Y482415D01*
X913944Y481105D01*
X911228Y479022D01*
X909145Y476306D01*
X907835Y473144D01*
X907388Y469750D01*
X907835Y466356D01*
X909145Y463194D01*
X911228Y460478D01*
X913129Y459020D01*
X912698Y457750D01*
X907500D01*
Y431750D01*
X933139D01*
X933500Y431750D01*
X934409Y430880D01*
X934409Y204960D01*
X933139Y204528D01*
X931745Y206345D01*
X929447Y208109D01*
X926772Y209217D01*
X926400Y209266D01*
Y198500D01*
Y187734D01*
X926772Y187783D01*
X929447Y188892D01*
X931745Y190655D01*
X933139Y192472D01*
X934409Y192041D01*
Y188387D01*
X924363Y178341D01*
X914723D01*
X912662Y178069D01*
X912500Y178091D01*
X909759Y177730D01*
X907205Y176672D01*
X905011Y174989D01*
X903328Y172795D01*
X902270Y170241D01*
X901909Y167500D01*
X902270Y164759D01*
X903328Y162205D01*
X905011Y160011D01*
X907205Y158328D01*
X909759Y157270D01*
X912500Y156909D01*
X914561Y157181D01*
X914723Y157159D01*
X928750D01*
X928750Y157159D01*
X931491Y157520D01*
X934045Y158578D01*
X936239Y160261D01*
X951230Y175253D01*
X952500Y174727D01*
Y50000D01*
X925000D01*
X910000Y35000D01*
Y7500D01*
X50000D01*
Y35000D01*
X35000Y50000D01*
X7500D01*
Y760000D01*
X35000D01*
X50000Y775000D01*
Y802500D01*
X696515Y802500D01*
X697001Y801327D01*
D02*
G37*
%LPC*%
G36*
X342500Y766774D02*
Y757500D01*
X351774D01*
X351691Y758133D01*
X350482Y761052D01*
X348559Y763559D01*
X346052Y765482D01*
X343133Y766691D01*
X342500Y766774D01*
D02*
G37*
G36*
X337500D02*
X336867Y766691D01*
X333948Y765482D01*
X331441Y763559D01*
X329518Y761052D01*
X328309Y758133D01*
X328226Y757500D01*
X337500D01*
Y766774D01*
D02*
G37*
G36*
X112500D02*
Y757500D01*
X121774D01*
X121691Y758133D01*
X120482Y761052D01*
X118559Y763559D01*
X116052Y765482D01*
X113133Y766691D01*
X112500Y766774D01*
D02*
G37*
G36*
X107500D02*
X106867Y766691D01*
X103948Y765482D01*
X101441Y763559D01*
X99518Y761052D01*
X98309Y758133D01*
X98226Y757500D01*
X107500D01*
Y766774D01*
D02*
G37*
G36*
X121774Y752500D02*
X112500D01*
Y743226D01*
X113133Y743309D01*
X116052Y744518D01*
X118559Y746441D01*
X120482Y748948D01*
X121691Y751867D01*
X121774Y752500D01*
D02*
G37*
G36*
X351774Y752500D02*
X342500D01*
Y743226D01*
X343133Y743309D01*
X346052Y744518D01*
X348559Y746441D01*
X350482Y748948D01*
X351691Y751867D01*
X351774Y752500D01*
D02*
G37*
G36*
X337500D02*
X328226D01*
X328309Y751867D01*
X329518Y748948D01*
X331441Y746441D01*
X333948Y744518D01*
X336867Y743309D01*
X337500Y743226D01*
Y752500D01*
D02*
G37*
G36*
X107500Y752500D02*
X98226D01*
X98309Y751867D01*
X99518Y748948D01*
X101441Y746441D01*
X103948Y744518D01*
X106867Y743309D01*
X107500Y743226D01*
Y752500D01*
D02*
G37*
G36*
X230000Y768112D02*
X226606Y767665D01*
X223444Y766356D01*
X220728Y764272D01*
X218645Y761556D01*
X217335Y758394D01*
X216888Y755000D01*
X217335Y751606D01*
X218645Y748444D01*
X220728Y745728D01*
X223444Y743644D01*
X224674Y743135D01*
Y741865D01*
X223444Y741356D01*
X220728Y739272D01*
X218645Y736556D01*
X217335Y733394D01*
X217217Y732500D01*
X230000D01*
X242783D01*
X242665Y733394D01*
X241355Y736556D01*
X239272Y739272D01*
X236556Y741356D01*
X235326Y741865D01*
Y743135D01*
X236556Y743644D01*
X239272Y745728D01*
X241355Y748444D01*
X242665Y751606D01*
X243112Y755000D01*
X242665Y758394D01*
X241355Y761556D01*
X239272Y764272D01*
X236556Y766356D01*
X233394Y767665D01*
X230000Y768112D01*
D02*
G37*
G36*
X809200Y730341D02*
Y715000D01*
X824541D01*
X824439Y716029D01*
X823410Y719422D01*
X821739Y722549D01*
X819490Y725290D01*
X816749Y727539D01*
X813622Y729210D01*
X810229Y730240D01*
X809200Y730341D01*
D02*
G37*
G36*
X804200Y730341D02*
X803171Y730240D01*
X799778Y729210D01*
X796651Y727539D01*
X793911Y725290D01*
X791661Y722549D01*
X789990Y719422D01*
X788960Y716029D01*
X788859Y715000D01*
X804200D01*
Y730341D01*
D02*
G37*
G36*
X717500Y707274D02*
Y698000D01*
X726774D01*
X726691Y698633D01*
X725482Y701552D01*
X723559Y704059D01*
X721052Y705982D01*
X718133Y707191D01*
X717500Y707274D01*
D02*
G37*
G36*
X712500D02*
X711867Y707191D01*
X708948Y705982D01*
X706441Y704059D01*
X704518Y701552D01*
X703309Y698633D01*
X703226Y698000D01*
X712500D01*
Y707274D01*
D02*
G37*
G36*
X804200Y710000D02*
X788859D01*
X788960Y708971D01*
X789990Y705578D01*
X791661Y702451D01*
X793911Y699710D01*
X796651Y697461D01*
X799778Y695790D01*
X803171Y694761D01*
X804200Y694659D01*
Y710000D01*
D02*
G37*
G36*
X824541D02*
X809200D01*
Y694659D01*
X810229Y694761D01*
X813622Y695790D01*
X816749Y697461D01*
X819490Y699710D01*
X821739Y702451D01*
X823410Y705578D01*
X824439Y708971D01*
X824541Y710000D01*
D02*
G37*
G36*
X352000Y717000D02*
X328000D01*
Y693000D01*
X352000D01*
Y717000D01*
D02*
G37*
G36*
X122000D02*
X98000D01*
Y693000D01*
X122000D01*
Y717000D01*
D02*
G37*
G36*
X242783Y727500D02*
X230000D01*
X217217D01*
X217335Y726606D01*
X218645Y723444D01*
X220728Y720728D01*
X223444Y718644D01*
X224674Y718135D01*
Y716865D01*
X223444Y716356D01*
X220728Y714272D01*
X218645Y711556D01*
X217335Y708394D01*
X216888Y705000D01*
X217335Y701606D01*
X218645Y698444D01*
X220728Y695728D01*
X223444Y693644D01*
X226606Y692335D01*
X230000Y691888D01*
X233394Y692335D01*
X236556Y693644D01*
X239272Y695728D01*
X241355Y698444D01*
X242665Y701606D01*
X243112Y705000D01*
X242665Y708394D01*
X241355Y711556D01*
X239272Y714272D01*
X236556Y716356D01*
X235326Y716865D01*
Y718135D01*
X236556Y718644D01*
X239272Y720728D01*
X241355Y723444D01*
X242665Y726606D01*
X242783Y727500D01*
D02*
G37*
G36*
X726774Y693000D02*
X717500D01*
Y683726D01*
X718133Y683809D01*
X721052Y685018D01*
X723559Y686942D01*
X725482Y689448D01*
X726691Y692367D01*
X726774Y693000D01*
D02*
G37*
G36*
X712500D02*
X703226D01*
X703309Y692367D01*
X704518Y689448D01*
X706441Y686942D01*
X708948Y685018D01*
X711867Y683809D01*
X712500Y683726D01*
Y693000D01*
D02*
G37*
G36*
X45000Y683112D02*
X41606Y682665D01*
X38444Y681356D01*
X35728Y679272D01*
X33644Y676556D01*
X32335Y673394D01*
X31888Y670000D01*
X32335Y666606D01*
X33644Y663444D01*
X35728Y660728D01*
X38444Y658644D01*
X41606Y657335D01*
X45000Y656888D01*
X48394Y657335D01*
X51556Y658644D01*
X54272Y660728D01*
X56356Y663444D01*
X57665Y666606D01*
X58112Y670000D01*
X57665Y673394D01*
X56356Y676556D01*
X54272Y679272D01*
X51556Y681356D01*
X48394Y682665D01*
X45000Y683112D01*
D02*
G37*
G36*
X475000Y713069D02*
X472912Y712794D01*
X470965Y711988D01*
X469294Y710706D01*
X468012Y709035D01*
X467206Y707088D01*
X466931Y705000D01*
X467206Y702912D01*
X468012Y700965D01*
X469294Y699294D01*
X470965Y698012D01*
X472912Y697206D01*
X475000Y696931D01*
X477088Y697206D01*
X479035Y698012D01*
X480169Y698883D01*
X537466D01*
X592674Y643674D01*
X594659Y642348D01*
X597000Y641882D01*
X742831D01*
X743966Y641012D01*
X745912Y640206D01*
X748000Y639931D01*
X750088Y640206D01*
X752035Y641012D01*
X753706Y642294D01*
X754988Y643966D01*
X755794Y645912D01*
X756069Y648000D01*
X755794Y650088D01*
X754988Y652035D01*
X753706Y653706D01*
X752035Y654988D01*
X750088Y655794D01*
X748000Y656069D01*
X745912Y655794D01*
X743966Y654988D01*
X742831Y654118D01*
X599534D01*
X544326Y709326D01*
X542341Y710652D01*
X540000Y711118D01*
X480169D01*
X479035Y711988D01*
X477088Y712794D01*
X475000Y713069D01*
D02*
G37*
G36*
X143500Y601774D02*
Y592500D01*
X152774D01*
X152691Y593133D01*
X151482Y596052D01*
X149558Y598559D01*
X147052Y600482D01*
X144133Y601691D01*
X143500Y601774D01*
D02*
G37*
G36*
X138500Y601774D02*
X137867Y601691D01*
X134948Y600482D01*
X132442Y598559D01*
X130518Y596052D01*
X129309Y593133D01*
X129226Y592500D01*
X138500D01*
Y601774D01*
D02*
G37*
G36*
X152774Y587500D02*
X143500D01*
Y578226D01*
X144133Y578309D01*
X147052Y579518D01*
X149558Y581441D01*
X151482Y583948D01*
X152691Y586867D01*
X152774Y587500D01*
D02*
G37*
G36*
X138500D02*
X129226D01*
X129309Y586867D01*
X130518Y583948D01*
X132442Y581441D01*
X134948Y579518D01*
X137867Y578309D01*
X138500Y578226D01*
Y587500D01*
D02*
G37*
G36*
X203000Y602000D02*
X179000D01*
Y578000D01*
X203000D01*
Y602000D01*
D02*
G37*
G36*
X409500Y467774D02*
Y458500D01*
X418774D01*
X418691Y459133D01*
X417482Y462052D01*
X415559Y464558D01*
X413052Y466482D01*
X410133Y467691D01*
X409500Y467774D01*
D02*
G37*
G36*
X404500D02*
X403867Y467691D01*
X400948Y466482D01*
X398442Y464558D01*
X396518Y462052D01*
X395309Y459133D01*
X395226Y458500D01*
X404500D01*
Y467774D01*
D02*
G37*
G36*
X45000Y480112D02*
X41606Y479665D01*
X38444Y478355D01*
X35728Y476272D01*
X33644Y473556D01*
X32335Y470394D01*
X31888Y467000D01*
X32335Y463606D01*
X33644Y460444D01*
X35728Y457728D01*
X38444Y455644D01*
X41606Y454335D01*
X45000Y453888D01*
X48394Y454335D01*
X51556Y455644D01*
X54272Y457728D01*
X56356Y460444D01*
X57665Y463606D01*
X58112Y467000D01*
X57665Y470394D01*
X56356Y473556D01*
X54272Y476272D01*
X51556Y478355D01*
X48394Y479665D01*
X45000Y480112D01*
D02*
G37*
G36*
X418774Y453500D02*
X409500D01*
Y444226D01*
X410133Y444309D01*
X413052Y445518D01*
X415559Y447441D01*
X417482Y449948D01*
X418691Y452867D01*
X418774Y453500D01*
D02*
G37*
G36*
X404500D02*
X395226D01*
X395309Y452867D01*
X396518Y449948D01*
X398442Y447441D01*
X400948Y445518D01*
X403867Y444309D01*
X404500Y444226D01*
Y453500D01*
D02*
G37*
G36*
X469000Y468000D02*
X445000D01*
Y444000D01*
X469000D01*
Y468000D01*
D02*
G37*
G36*
X624000Y442069D02*
X621912Y441794D01*
X619966Y440988D01*
X618294Y439706D01*
X617012Y438035D01*
X616206Y436088D01*
X615931Y434000D01*
X616206Y431912D01*
X617012Y429966D01*
X618294Y428294D01*
X619966Y427012D01*
X621912Y426206D01*
X624000Y425931D01*
X626088Y426206D01*
X628035Y427012D01*
X628530Y427392D01*
X715219D01*
X715294Y427294D01*
X716965Y426012D01*
X718912Y425206D01*
X721000Y424931D01*
X723088Y425206D01*
X725034Y426012D01*
X726706Y427294D01*
X727988Y428965D01*
X728794Y430912D01*
X729069Y433000D01*
X728794Y435088D01*
X727988Y437034D01*
X726706Y438706D01*
X725034Y439988D01*
X723088Y440794D01*
X721000Y441069D01*
X718912Y440794D01*
X716965Y439988D01*
X715294Y438706D01*
X715219Y438608D01*
X630548D01*
X629706Y439706D01*
X628035Y440988D01*
X626088Y441794D01*
X624000Y442069D01*
D02*
G37*
G36*
X57000Y372000D02*
X33000D01*
Y348000D01*
X57000D01*
Y372000D01*
D02*
G37*
G36*
X582000Y477060D02*
X580173Y476820D01*
X578470Y476115D01*
X577008Y474992D01*
X575886Y473530D01*
X575180Y471827D01*
X574940Y470000D01*
X575180Y468173D01*
X575882Y466477D01*
Y355169D01*
X575012Y354035D01*
X574206Y352088D01*
X573931Y350000D01*
X574206Y347912D01*
X575012Y345965D01*
X576294Y344294D01*
X577966Y343012D01*
X579912Y342206D01*
X582000Y341931D01*
X584088Y342206D01*
X586035Y343012D01*
X587706Y344294D01*
X588988Y345965D01*
X589794Y347912D01*
X590069Y350000D01*
X589794Y352088D01*
X588988Y354035D01*
X588117Y355169D01*
Y466477D01*
X588820Y468173D01*
X589060Y470000D01*
X588820Y471827D01*
X588115Y473530D01*
X586992Y474992D01*
X585530Y476115D01*
X583827Y476820D01*
X582000Y477060D01*
D02*
G37*
G36*
X42500Y346374D02*
X41867Y346291D01*
X38948Y345082D01*
X36442Y343158D01*
X34518Y340652D01*
X33309Y337733D01*
X33226Y337100D01*
X42500D01*
Y346374D01*
D02*
G37*
G36*
X537500Y464560D02*
X535673Y464320D01*
X533970Y463615D01*
X532508Y462492D01*
X531385Y461030D01*
X530680Y459327D01*
X530440Y457500D01*
X530680Y455673D01*
X531385Y453970D01*
X532508Y452508D01*
X532912Y452197D01*
Y312803D01*
X532508Y312492D01*
X531385Y311030D01*
X530680Y309327D01*
X530440Y307500D01*
X530680Y305673D01*
X531385Y303970D01*
X532508Y302507D01*
X533970Y301385D01*
X535673Y300680D01*
X537500Y300440D01*
X539327Y300680D01*
X541030Y301385D01*
X542492Y302507D01*
X543615Y303970D01*
X544320Y305673D01*
X544360Y305974D01*
X545640D01*
X545680Y305673D01*
X546385Y303970D01*
X547508Y302507D01*
X548970Y301385D01*
X550673Y300680D01*
X552500Y300440D01*
X554327Y300680D01*
X556030Y301385D01*
X557492Y302507D01*
X558615Y303970D01*
X559320Y305673D01*
X559560Y307500D01*
X559320Y309327D01*
X558615Y311030D01*
X557492Y312492D01*
X557088Y312803D01*
Y332197D01*
X557492Y332508D01*
X558615Y333970D01*
X559320Y335673D01*
X559560Y337500D01*
X559320Y339327D01*
X558615Y341030D01*
X557492Y342492D01*
X556030Y343615D01*
X554327Y344320D01*
X552500Y344560D01*
X550673Y344320D01*
X548970Y343615D01*
X547508Y342492D01*
X546385Y341030D01*
X545680Y339327D01*
X545440Y337500D01*
X545680Y335673D01*
X546385Y333970D01*
X547508Y332508D01*
X547912Y332197D01*
Y312803D01*
X547508Y312492D01*
X546385Y311030D01*
X545680Y309327D01*
X545640Y309026D01*
X544360D01*
X544320Y309327D01*
X543615Y311030D01*
X542492Y312492D01*
X542088Y312803D01*
Y452197D01*
X542492Y452508D01*
X543615Y453970D01*
X544320Y455673D01*
X544560Y457500D01*
X544320Y459327D01*
X543615Y461030D01*
X542492Y462492D01*
X541030Y463615D01*
X539327Y464320D01*
X537500Y464560D01*
D02*
G37*
G36*
X262500Y375560D02*
X260673Y375320D01*
X258970Y374614D01*
X257508Y373492D01*
X256385Y372030D01*
X255680Y370327D01*
X255440Y368500D01*
X255680Y366673D01*
X256383Y364977D01*
Y303118D01*
X203000D01*
X200659Y302652D01*
X198674Y301326D01*
X194476Y297127D01*
X193135Y297582D01*
X193070Y298077D01*
X192365Y299780D01*
X191242Y301242D01*
X189780Y302364D01*
X188077Y303070D01*
X186250Y303310D01*
X184423Y303070D01*
X182720Y302364D01*
X181257Y301242D01*
X180947Y300838D01*
X177250D01*
X175494Y300489D01*
X174006Y299494D01*
X167756Y293244D01*
X166761Y291756D01*
X166412Y290000D01*
Y280303D01*
X166008Y279993D01*
X164886Y278530D01*
X164180Y276827D01*
X163940Y275000D01*
X164180Y273173D01*
X164886Y271470D01*
X166008Y270008D01*
X167470Y268885D01*
X169173Y268180D01*
X171000Y267940D01*
X172827Y268180D01*
X174530Y268885D01*
X174803Y269095D01*
X175993Y268407D01*
X175940Y268000D01*
X176180Y266173D01*
X176882Y264477D01*
Y255117D01*
X160523D01*
X158827Y255820D01*
X157000Y256060D01*
X155173Y255820D01*
X153470Y255114D01*
X152008Y253993D01*
X150885Y252530D01*
X150261Y251023D01*
X149007Y250482D01*
X117244Y282244D01*
X115756Y283239D01*
X114000Y283588D01*
X102501Y283588D01*
X89244Y296844D01*
X81485Y304604D01*
X82091Y306067D01*
X82503Y309200D01*
X82091Y312333D01*
X80882Y315252D01*
X78959Y317759D01*
X76452Y319682D01*
X73533Y320891D01*
X71305Y321184D01*
X70734Y321260D01*
Y322540D01*
X71305Y322616D01*
X73533Y322909D01*
X76452Y324118D01*
X78959Y326041D01*
X80882Y328548D01*
X82091Y331467D01*
X82174Y332100D01*
X70400D01*
Y337100D01*
X82174D01*
X82091Y337733D01*
X80882Y340652D01*
X78959Y343158D01*
X76452Y345082D01*
X73533Y346291D01*
X71305Y346584D01*
X70734Y346660D01*
Y347940D01*
X71305Y348016D01*
X73533Y348309D01*
X76452Y349518D01*
X78959Y351441D01*
X80882Y353948D01*
X82091Y356867D01*
X82503Y360000D01*
X82091Y363133D01*
X80882Y366052D01*
X78959Y368559D01*
X76452Y370482D01*
X73533Y371691D01*
X70400Y372104D01*
X67267Y371691D01*
X64348Y370482D01*
X61842Y368559D01*
X59918Y366052D01*
X58709Y363133D01*
X58296Y360000D01*
X58709Y356867D01*
X59918Y353948D01*
X61842Y351441D01*
X64348Y349518D01*
X67267Y348309D01*
X69495Y348016D01*
X70066Y347940D01*
Y346660D01*
X69495Y346584D01*
X67267Y346291D01*
X64348Y345082D01*
X61842Y343158D01*
X59918Y340652D01*
X58709Y337733D01*
X58416Y335505D01*
X58340Y334934D01*
X57060D01*
X56984Y335505D01*
X56691Y337733D01*
X55482Y340652D01*
X53559Y343158D01*
X51052Y345082D01*
X48133Y346291D01*
X47500Y346374D01*
Y334600D01*
X45000D01*
Y332100D01*
X33226D01*
X33309Y331467D01*
X34518Y328548D01*
X36442Y326041D01*
X38948Y324118D01*
X41867Y322909D01*
X44095Y322616D01*
X44666Y322540D01*
Y321260D01*
X44095Y321184D01*
X41867Y320891D01*
X38948Y319682D01*
X36442Y317759D01*
X34518Y315252D01*
X33309Y312333D01*
X33226Y311700D01*
X45000D01*
Y306700D01*
X33226D01*
X33309Y306067D01*
X34518Y303148D01*
X36442Y300641D01*
X38948Y298718D01*
X41867Y297509D01*
X44095Y297216D01*
X44666Y297140D01*
Y295860D01*
X44095Y295784D01*
X41867Y295491D01*
X38948Y294282D01*
X36442Y292358D01*
X34518Y289852D01*
X33309Y286933D01*
X32896Y283800D01*
X33309Y280667D01*
X34518Y277748D01*
X36442Y275242D01*
X38948Y273318D01*
X41867Y272109D01*
X44095Y271816D01*
X44666Y271740D01*
Y270460D01*
X44095Y270384D01*
X41867Y270091D01*
X38948Y268882D01*
X36442Y266959D01*
X34518Y264452D01*
X33309Y261533D01*
X33226Y260900D01*
X45000D01*
Y255900D01*
X33226D01*
X33309Y255267D01*
X34518Y252348D01*
X36442Y249841D01*
X38948Y247918D01*
X41867Y246709D01*
X44095Y246416D01*
X44666Y246340D01*
Y245060D01*
X44095Y244984D01*
X41867Y244691D01*
X38948Y243482D01*
X36442Y241558D01*
X34518Y239052D01*
X33309Y236133D01*
X32896Y233000D01*
X33309Y229867D01*
X34518Y226948D01*
X36442Y224442D01*
X38948Y222518D01*
X41867Y221309D01*
X44095Y221016D01*
X44666Y220940D01*
Y219660D01*
X44095Y219584D01*
X41867Y219291D01*
X38948Y218082D01*
X36442Y216159D01*
X34518Y213652D01*
X33309Y210733D01*
X32896Y207600D01*
X33309Y204467D01*
X34518Y201548D01*
X36442Y199042D01*
X38948Y197118D01*
X41867Y195909D01*
X44095Y195616D01*
X44666Y195540D01*
Y194260D01*
X44095Y194184D01*
X41867Y193891D01*
X38948Y192682D01*
X36442Y190758D01*
X34518Y188252D01*
X33309Y185333D01*
X33226Y184700D01*
X45000D01*
Y182200D01*
X47500D01*
Y170426D01*
X48133Y170509D01*
X51052Y171718D01*
X53559Y173641D01*
X55482Y176148D01*
X56691Y179067D01*
X56984Y181295D01*
X57060Y181866D01*
X58340D01*
X58416Y181295D01*
X58709Y179067D01*
X59918Y176148D01*
X61842Y173641D01*
X64348Y171718D01*
X67267Y170509D01*
X67900Y170426D01*
Y182200D01*
X70400D01*
Y184700D01*
X82174D01*
X82091Y185333D01*
X80882Y188252D01*
X78959Y190758D01*
X76452Y192682D01*
X73533Y193891D01*
X71305Y194184D01*
X70734Y194260D01*
Y195540D01*
X71305Y195616D01*
X73533Y195909D01*
X76452Y197118D01*
X78959Y199042D01*
X80882Y201548D01*
X82091Y204467D01*
X82503Y207600D01*
X82091Y210733D01*
X80882Y213652D01*
X78959Y216159D01*
X76452Y218082D01*
X73533Y219291D01*
X71305Y219584D01*
X70734Y219660D01*
Y220940D01*
X71305Y221016D01*
X73533Y221309D01*
X76452Y222518D01*
X78959Y224442D01*
X80882Y226948D01*
X82091Y229867D01*
X82174Y230500D01*
X70400D01*
Y235500D01*
X82174D01*
X82091Y236133D01*
X80882Y239052D01*
X78959Y241558D01*
X76452Y243482D01*
X73533Y244691D01*
X71305Y244984D01*
X70734Y245060D01*
Y246340D01*
X71305Y246416D01*
X73533Y246709D01*
X76452Y247918D01*
X78959Y249841D01*
X80882Y252348D01*
X82091Y255267D01*
X82503Y258400D01*
X82091Y261533D01*
X80882Y264452D01*
X80252Y265273D01*
X80814Y266412D01*
X108099D01*
X203756Y170756D01*
X205244Y169761D01*
X207000Y169412D01*
X377099D01*
X382412Y164100D01*
Y134000D01*
X382761Y132244D01*
X383756Y130756D01*
X392006Y122505D01*
X391940Y122000D01*
X392180Y120173D01*
X392886Y118470D01*
X394007Y117008D01*
X395470Y115885D01*
X397173Y115180D01*
X399000Y114940D01*
X400827Y115180D01*
X402530Y115885D01*
X403992Y117008D01*
X405115Y118470D01*
X405820Y120173D01*
X406060Y122000D01*
X405820Y123827D01*
X405115Y125530D01*
X403992Y126993D01*
X402530Y128115D01*
X400827Y128820D01*
X399000Y129060D01*
X398495Y128994D01*
X391588Y135900D01*
Y166000D01*
X391239Y167756D01*
X390244Y169244D01*
X384250Y175238D01*
X384736Y176412D01*
X393697D01*
X394007Y176007D01*
X395470Y174886D01*
X397173Y174180D01*
X399000Y173940D01*
X400827Y174180D01*
X402530Y174886D01*
X403992Y176007D01*
X405115Y177470D01*
X405820Y179173D01*
X406060Y181000D01*
X405820Y182827D01*
X405115Y184530D01*
X403992Y185992D01*
X402530Y187115D01*
X400827Y187820D01*
X399000Y188060D01*
X397173Y187820D01*
X395470Y187115D01*
X394007Y185992D01*
X393697Y185588D01*
X267264D01*
X266808Y186270D01*
X266594Y186858D01*
X266788Y188332D01*
X284031D01*
X284032Y188332D01*
X371104D01*
X372860Y188681D01*
X373506Y189113D01*
X374051Y189221D01*
X375539Y190216D01*
X421735Y236412D01*
X451947D01*
X452258Y236008D01*
X453720Y234886D01*
X455423Y234180D01*
X457250Y233940D01*
X459077Y234180D01*
X460780Y234886D01*
X462243Y236008D01*
X463364Y237470D01*
X464070Y239173D01*
X464252Y240557D01*
X465339Y241694D01*
X465375Y241690D01*
X467202Y241930D01*
X468905Y242635D01*
X470368Y243758D01*
X471489Y245220D01*
X472195Y246923D01*
X472435Y248750D01*
X472195Y250577D01*
X471489Y252280D01*
X470368Y253742D01*
X468905Y254865D01*
X467202Y255570D01*
X465375Y255810D01*
X463548Y255570D01*
X461845Y254865D01*
X460383Y253742D01*
X460264Y253588D01*
X418000D01*
X416244Y253239D01*
X414756Y252244D01*
X366100Y203588D01*
X338717D01*
X338464Y204858D01*
X338530Y204886D01*
X339992Y206008D01*
X341115Y207470D01*
X341820Y209173D01*
X342060Y211000D01*
X341820Y212827D01*
X341118Y214523D01*
Y282882D01*
X374000D01*
X376341Y283348D01*
X378326Y284674D01*
X407534Y313883D01*
X413477D01*
X415173Y313180D01*
X417000Y312940D01*
X418827Y313180D01*
X420530Y313885D01*
X421992Y315007D01*
X423115Y316470D01*
X423820Y318173D01*
X424060Y320000D01*
X423820Y321827D01*
X423115Y323530D01*
X421992Y324992D01*
X420530Y326115D01*
X418827Y326820D01*
X417000Y327060D01*
X415173Y326820D01*
X413477Y326118D01*
X405000D01*
X402659Y325652D01*
X400674Y324326D01*
X371466Y295117D01*
X307523D01*
X305827Y295820D01*
X304000Y296060D01*
X302173Y295820D01*
X300477Y295117D01*
X293534D01*
X287326Y301326D01*
X285341Y302652D01*
X283000Y303118D01*
X268617D01*
Y364977D01*
X269320Y366673D01*
X269560Y368500D01*
X269320Y370327D01*
X268615Y372030D01*
X267493Y373492D01*
X266030Y374614D01*
X264327Y375320D01*
X262500Y375560D01*
D02*
G37*
G36*
X730000Y314588D02*
X695000D01*
X693244Y314239D01*
X691756Y313244D01*
X686756Y308244D01*
X685761Y306756D01*
X685412Y305000D01*
Y301088D01*
X683948Y300482D01*
X681441Y298559D01*
X679518Y296052D01*
X678309Y293133D01*
X678140Y291854D01*
X676860D01*
X676691Y293133D01*
X675482Y296052D01*
X673559Y298559D01*
X671052Y300482D01*
X668133Y301691D01*
X667500Y301774D01*
Y290000D01*
Y278226D01*
X668133Y278309D01*
X671052Y279518D01*
X673559Y281441D01*
X675482Y283948D01*
X676691Y286867D01*
X676860Y288146D01*
X678140D01*
X678309Y286867D01*
X679518Y283948D01*
X681441Y281441D01*
X683948Y279518D01*
X686867Y278309D01*
X690000Y277896D01*
X693133Y278309D01*
X696052Y279518D01*
X698559Y281441D01*
X700482Y283948D01*
X701691Y286867D01*
X701730Y287163D01*
X703000Y287080D01*
Y278000D01*
X710412D01*
Y271901D01*
X701756Y263244D01*
X700761Y261756D01*
X700412Y260000D01*
Y180000D01*
X700761Y178244D01*
X701756Y176756D01*
X731756Y146756D01*
X733244Y145761D01*
X735000Y145412D01*
X869100D01*
X893912Y120599D01*
Y81506D01*
X892953Y81109D01*
X890655Y79345D01*
X888892Y77047D01*
X887783Y74372D01*
X887405Y71500D01*
X887783Y68628D01*
X888892Y65953D01*
X890655Y63655D01*
X892953Y61891D01*
X895628Y60783D01*
X898500Y60405D01*
X901372Y60783D01*
X904047Y61891D01*
X906345Y63655D01*
X908109Y65953D01*
X909217Y68628D01*
X909595Y71500D01*
X909376Y73161D01*
X910490Y74431D01*
X912000D01*
X912900Y73693D01*
Y60500D01*
X934900D01*
Y82500D01*
X928488D01*
Y111100D01*
X928139Y112856D01*
X927144Y114344D01*
X878244Y163244D01*
X876756Y164239D01*
X875000Y164588D01*
X741900D01*
X719588Y186901D01*
Y253099D01*
X738244Y271756D01*
X739239Y273244D01*
X739588Y275000D01*
Y305000D01*
X739239Y306756D01*
X738244Y308244D01*
X733244Y313244D01*
X731756Y314239D01*
X730000Y314588D01*
D02*
G37*
G36*
X847500Y302104D02*
X844367Y301691D01*
X841448Y300482D01*
X838941Y298559D01*
X837018Y296052D01*
X835809Y293133D01*
X835640Y291854D01*
X834360D01*
X834191Y293133D01*
X832982Y296052D01*
X831059Y298559D01*
X828552Y300482D01*
X825633Y301691D01*
X822500Y302104D01*
X819367Y301691D01*
X816448Y300482D01*
X813941Y298559D01*
X812018Y296052D01*
X810809Y293133D01*
X810640Y291854D01*
X809360D01*
X809191Y293133D01*
X807982Y296052D01*
X806059Y298559D01*
X803552Y300482D01*
X800633Y301691D01*
X797500Y302104D01*
X794367Y301691D01*
X791448Y300482D01*
X788941Y298559D01*
X787018Y296052D01*
X785809Y293133D01*
X785396Y290000D01*
X785809Y286867D01*
X787018Y283948D01*
X788941Y281441D01*
X791448Y279518D01*
X794367Y278309D01*
X797500Y277896D01*
X800633Y278309D01*
X803552Y279518D01*
X806059Y281441D01*
X807982Y283948D01*
X809191Y286867D01*
X809360Y288146D01*
X810640D01*
X810809Y286867D01*
X812018Y283948D01*
X813941Y281441D01*
X816448Y279518D01*
X819367Y278309D01*
X822500Y277896D01*
X825633Y278309D01*
X828552Y279518D01*
X831059Y281441D01*
X832982Y283948D01*
X834191Y286867D01*
X834360Y288146D01*
X835640D01*
X835809Y286867D01*
X837018Y283948D01*
X838941Y281441D01*
X841448Y279518D01*
X844367Y278309D01*
X847500Y277896D01*
X850633Y278309D01*
X853552Y279518D01*
X856059Y281441D01*
X857982Y283948D01*
X859191Y286867D01*
X859230Y287163D01*
X860500Y287080D01*
Y278000D01*
X884500D01*
Y302000D01*
X860500D01*
Y292920D01*
X859230Y292837D01*
X859191Y293133D01*
X857982Y296052D01*
X856059Y298559D01*
X853552Y300482D01*
X850633Y301691D01*
X847500Y302104D01*
D02*
G37*
G36*
X640000D02*
X636867Y301691D01*
X633948Y300482D01*
X631441Y298559D01*
X629518Y296052D01*
X628309Y293133D01*
X627896Y290000D01*
X628309Y286867D01*
X629518Y283948D01*
X631441Y281441D01*
X633948Y279518D01*
X636867Y278309D01*
X640000Y277896D01*
X643133Y278309D01*
X646052Y279518D01*
X648559Y281441D01*
X650482Y283948D01*
X651691Y286867D01*
X651860Y288146D01*
X653140D01*
X653309Y286867D01*
X654518Y283948D01*
X656441Y281441D01*
X658948Y279518D01*
X661867Y278309D01*
X662500Y278226D01*
Y290000D01*
Y301774D01*
X661867Y301691D01*
X658948Y300482D01*
X656441Y298559D01*
X654518Y296052D01*
X653309Y293133D01*
X653140Y291854D01*
X651860D01*
X651691Y293133D01*
X650482Y296052D01*
X648559Y298559D01*
X646052Y300482D01*
X643133Y301691D01*
X640000Y302104D01*
D02*
G37*
G36*
X374000Y272060D02*
X372173Y271820D01*
X370470Y271115D01*
X369007Y269992D01*
X367886Y268530D01*
X367180Y266827D01*
X366940Y265000D01*
X367180Y263173D01*
X367886Y261470D01*
X369007Y260008D01*
X370470Y258885D01*
X372173Y258180D01*
X374000Y257940D01*
X375827Y258180D01*
X377530Y258885D01*
X378992Y260008D01*
X379303Y260412D01*
X475600D01*
X476564Y259447D01*
X476440Y258500D01*
X476680Y256673D01*
X477385Y254970D01*
X478508Y253507D01*
X479970Y252386D01*
X481673Y251680D01*
X483500Y251440D01*
X485327Y251680D01*
X487030Y252386D01*
X488492Y253507D01*
X489614Y254970D01*
X490320Y256673D01*
X490560Y258500D01*
X490320Y260327D01*
X489614Y262030D01*
X488492Y263492D01*
X487030Y264615D01*
X485327Y265320D01*
X483500Y265560D01*
X483437Y265552D01*
X480744Y268244D01*
X479256Y269239D01*
X477500Y269588D01*
X379303D01*
X378992Y269992D01*
X377530Y271115D01*
X375827Y271820D01*
X374000Y272060D01*
D02*
G37*
G36*
X921400Y209266D02*
X921028Y209217D01*
X918353Y208109D01*
X916055Y206345D01*
X914292Y204047D01*
X913183Y201372D01*
X913134Y201000D01*
X921400D01*
Y209266D01*
D02*
G37*
G36*
X774000D02*
Y201000D01*
X782266D01*
X782217Y201372D01*
X781108Y204047D01*
X779345Y206345D01*
X777047Y208109D01*
X774372Y209217D01*
X774000Y209266D01*
D02*
G37*
G36*
X769000D02*
X768628Y209217D01*
X765953Y208109D01*
X763655Y206345D01*
X761891Y204047D01*
X760783Y201372D01*
X760734Y201000D01*
X769000D01*
Y209266D01*
D02*
G37*
G36*
X279000Y367060D02*
X277173Y366820D01*
X275470Y366115D01*
X274008Y364992D01*
X272885Y363530D01*
X272180Y361827D01*
X271940Y360000D01*
X272180Y358173D01*
X272885Y356470D01*
X274008Y355008D01*
X275470Y353885D01*
X277173Y353180D01*
X279000Y352940D01*
X280827Y353180D01*
X282530Y353885D01*
X283992Y355008D01*
X284303Y355412D01*
X325600D01*
X346756Y334256D01*
X348244Y333261D01*
X350000Y332912D01*
X438100D01*
X495412Y275600D01*
Y255000D01*
X495761Y253244D01*
X496756Y251756D01*
X558517Y189995D01*
X557797Y188918D01*
X556827Y189320D01*
X555000Y189560D01*
X553173Y189320D01*
X551470Y188614D01*
X550008Y187492D01*
X548885Y186030D01*
X548180Y184327D01*
X548072Y183502D01*
X547677Y183108D01*
X540500D01*
Y186750D01*
X538108D01*
Y192500D01*
X537681Y194646D01*
X536465Y196465D01*
X526465Y206465D01*
X524646Y207681D01*
X522500Y208108D01*
X471750D01*
Y210500D01*
X468108D01*
Y220000D01*
X467681Y222146D01*
X466465Y223965D01*
X464428Y226002D01*
X464320Y226827D01*
X463615Y228530D01*
X462492Y229992D01*
X461030Y231114D01*
X459327Y231820D01*
X457500Y232060D01*
X455673Y231820D01*
X453970Y231114D01*
X452508Y229992D01*
X451385Y228530D01*
X450680Y226827D01*
X450440Y225000D01*
X450680Y223173D01*
X451385Y221470D01*
X452508Y220007D01*
X453970Y218885D01*
X455673Y218180D01*
X456498Y218071D01*
X456892Y217677D01*
Y210500D01*
X453250D01*
Y194500D01*
X471750D01*
Y196892D01*
X520177D01*
X526892Y190177D01*
Y186750D01*
X524500D01*
Y168250D01*
X527392D01*
Y129323D01*
X511217Y113148D01*
X501750D01*
Y115540D01*
X483250D01*
Y113148D01*
X449783D01*
X449428Y113502D01*
X449320Y114327D01*
X448614Y116030D01*
X447492Y117492D01*
X446030Y118614D01*
X444327Y119320D01*
X443502Y119428D01*
X443108Y119823D01*
Y123250D01*
X445500D01*
Y141750D01*
X429500D01*
Y123250D01*
X431892D01*
Y117500D01*
X432319Y115354D01*
X433535Y113535D01*
X435572Y111498D01*
X435680Y110673D01*
X436385Y108970D01*
X437508Y107507D01*
X438970Y106385D01*
X440673Y105680D01*
X441498Y105571D01*
X443495Y103575D01*
X445314Y102359D01*
X447460Y101932D01*
X483250D01*
Y99540D01*
X486892D01*
Y95000D01*
X487319Y92854D01*
X488535Y91035D01*
X495572Y83998D01*
X495680Y83173D01*
X496385Y81470D01*
X497508Y80008D01*
X498970Y78885D01*
X500673Y78180D01*
X502500Y77940D01*
X504327Y78180D01*
X506030Y78885D01*
X507492Y80008D01*
X508615Y81470D01*
X509320Y83173D01*
X509560Y85000D01*
X509459Y85768D01*
X510496Y87137D01*
X510827Y87180D01*
X512530Y87886D01*
X513992Y89008D01*
X514303Y89412D01*
X548000D01*
X549756Y89761D01*
X551244Y90756D01*
X573244Y112756D01*
X574239Y114244D01*
X574588Y116000D01*
Y185000D01*
X574239Y186756D01*
X573244Y188244D01*
X504588Y256901D01*
Y277500D01*
X504239Y279256D01*
X503244Y280744D01*
X443244Y340744D01*
X441756Y341739D01*
X440000Y342088D01*
X351900D01*
X330744Y363244D01*
X329256Y364239D01*
X327500Y364588D01*
X284303D01*
X283992Y364992D01*
X282530Y366115D01*
X280827Y366820D01*
X279000Y367060D01*
D02*
G37*
G36*
X921400Y196000D02*
X913134D01*
X913183Y195628D01*
X914292Y192953D01*
X916055Y190655D01*
X918353Y188892D01*
X921028Y187783D01*
X921400Y187734D01*
Y196000D01*
D02*
G37*
G36*
X782266D02*
X774000D01*
Y187734D01*
X774372Y187783D01*
X777047Y188892D01*
X779345Y190655D01*
X781108Y192953D01*
X782217Y195628D01*
X782266Y196000D01*
D02*
G37*
G36*
X769000D02*
X760734D01*
X760783Y195628D01*
X761891Y192953D01*
X763655Y190655D01*
X765953Y188892D01*
X768628Y187783D01*
X769000Y187734D01*
Y196000D01*
D02*
G37*
G36*
X757100Y209500D02*
X735100D01*
Y187500D01*
X757100D01*
Y209500D01*
D02*
G37*
G36*
X898500Y209595D02*
X895628Y209217D01*
X892953Y208109D01*
X890655Y206345D01*
X888892Y204047D01*
X887783Y201372D01*
X887405Y198500D01*
X887783Y195628D01*
X888892Y192953D01*
X890655Y190655D01*
X892953Y188892D01*
X895628Y187783D01*
X898500Y187405D01*
X901372Y187783D01*
X904047Y188892D01*
X906345Y190655D01*
X908109Y192953D01*
X909217Y195628D01*
X909595Y198500D01*
X909217Y201372D01*
X908109Y204047D01*
X906345Y206345D01*
X904047Y208109D01*
X901372Y209217D01*
X898500Y209595D01*
D02*
G37*
G36*
X873100D02*
X870228Y209217D01*
X867553Y208109D01*
X865255Y206345D01*
X863492Y204047D01*
X862383Y201372D01*
X862005Y198500D01*
X862383Y195628D01*
X863492Y192953D01*
X865255Y190655D01*
X867553Y188892D01*
X870228Y187783D01*
X873100Y187405D01*
X875972Y187783D01*
X878647Y188892D01*
X880945Y190655D01*
X882709Y192953D01*
X883817Y195628D01*
X884195Y198500D01*
X883817Y201372D01*
X882709Y204047D01*
X880945Y206345D01*
X878647Y208109D01*
X875972Y209217D01*
X873100Y209595D01*
D02*
G37*
G36*
X847700D02*
X844828Y209217D01*
X842153Y208109D01*
X839855Y206345D01*
X838092Y204047D01*
X836983Y201372D01*
X836605Y198500D01*
X836983Y195628D01*
X838092Y192953D01*
X839855Y190655D01*
X842153Y188892D01*
X844828Y187783D01*
X847700Y187405D01*
X850572Y187783D01*
X853247Y188892D01*
X855545Y190655D01*
X857309Y192953D01*
X858417Y195628D01*
X858795Y198500D01*
X858417Y201372D01*
X857309Y204047D01*
X855545Y206345D01*
X853247Y208109D01*
X850572Y209217D01*
X847700Y209595D01*
D02*
G37*
G36*
X822300D02*
X819428Y209217D01*
X816753Y208109D01*
X814455Y206345D01*
X812691Y204047D01*
X811583Y201372D01*
X811205Y198500D01*
X811583Y195628D01*
X812691Y192953D01*
X814455Y190655D01*
X816753Y188892D01*
X819428Y187783D01*
X822300Y187405D01*
X825172Y187783D01*
X827847Y188892D01*
X830145Y190655D01*
X831908Y192953D01*
X833017Y195628D01*
X833395Y198500D01*
X833017Y201372D01*
X831908Y204047D01*
X830145Y206345D01*
X827847Y208109D01*
X825172Y209217D01*
X822300Y209595D01*
D02*
G37*
G36*
X796900D02*
X794028Y209217D01*
X791353Y208109D01*
X789055Y206345D01*
X787291Y204047D01*
X786183Y201372D01*
X785805Y198500D01*
X786183Y195628D01*
X787291Y192953D01*
X789055Y190655D01*
X791353Y188892D01*
X794028Y187783D01*
X796900Y187405D01*
X799772Y187783D01*
X802447Y188892D01*
X804745Y190655D01*
X806508Y192953D01*
X807617Y195628D01*
X807995Y198500D01*
X807617Y201372D01*
X806508Y204047D01*
X804745Y206345D01*
X802447Y208109D01*
X799772Y209217D01*
X796900Y209595D01*
D02*
G37*
G36*
X471750Y190500D02*
X465000D01*
Y185000D01*
X471750D01*
Y190500D01*
D02*
G37*
G36*
X460000D02*
X453250D01*
Y185000D01*
X460000D01*
Y190500D01*
D02*
G37*
G36*
X520500Y186750D02*
X515000D01*
Y180000D01*
X520500D01*
Y186750D01*
D02*
G37*
G36*
X510000D02*
X504500D01*
Y186750D01*
Y180000D01*
X510000D01*
Y186750D01*
D02*
G37*
G36*
X471750Y180000D02*
X465000D01*
Y174500D01*
X471750D01*
Y180000D01*
D02*
G37*
G36*
X460000D02*
X453250D01*
Y174500D01*
X460000D01*
Y180000D01*
D02*
G37*
G36*
X82174Y179700D02*
X72900D01*
Y170426D01*
X73533Y170509D01*
X76452Y171718D01*
X78959Y173641D01*
X80882Y176148D01*
X82091Y179067D01*
X82174Y179700D01*
D02*
G37*
G36*
X42500D02*
X33226D01*
X33309Y179067D01*
X34518Y176148D01*
X36442Y173641D01*
X38948Y171718D01*
X41867Y170509D01*
X42500Y170426D01*
Y179700D01*
D02*
G37*
G36*
X520500Y175000D02*
X515000D01*
Y168250D01*
X520500D01*
Y175000D01*
D02*
G37*
G36*
X510000D02*
X504500D01*
Y168250D01*
X510000D01*
Y175000D01*
D02*
G37*
G36*
X465500Y164250D02*
X460000D01*
Y157500D01*
X465500D01*
Y164250D01*
D02*
G37*
G36*
X455000D02*
X449500D01*
Y157500D01*
X455000D01*
Y164250D01*
D02*
G37*
G36*
X445500D02*
X429500D01*
Y159588D01*
X422500D01*
X420744Y159239D01*
X419256Y158244D01*
X416537Y155526D01*
X415827Y155820D01*
X414000Y156060D01*
X412173Y155820D01*
X410470Y155114D01*
X409008Y153993D01*
X407886Y152530D01*
X407180Y150827D01*
X406940Y149000D01*
X407180Y147173D01*
X407886Y145470D01*
X409008Y144008D01*
X410470Y142886D01*
X412173Y142180D01*
X414000Y141940D01*
X415827Y142180D01*
X417530Y142886D01*
X418993Y144008D01*
X420115Y145470D01*
X420578Y146590D01*
X424400Y150412D01*
X429500D01*
Y145750D01*
X445500D01*
Y164250D01*
D02*
G37*
G36*
X672000Y179500D02*
X648000D01*
Y155500D01*
X672000D01*
Y179500D01*
D02*
G37*
G36*
X465500Y152500D02*
X460000D01*
Y145750D01*
X465500D01*
Y152500D01*
D02*
G37*
G36*
X455000D02*
X449500D01*
Y145750D01*
X455000D01*
Y152500D01*
D02*
G37*
G36*
X465500Y141750D02*
X460000D01*
Y135000D01*
X465500D01*
Y141750D01*
D02*
G37*
G36*
X455000D02*
X449500D01*
Y135000D01*
X455000D01*
Y141750D01*
D02*
G37*
G36*
X501750Y135540D02*
X495000D01*
Y130040D01*
X501750D01*
Y135540D01*
D02*
G37*
G36*
X490000D02*
X483250D01*
Y130040D01*
X490000D01*
Y135540D01*
D02*
G37*
G36*
X465500Y130000D02*
X460000D01*
Y123250D01*
X465500D01*
Y123250D01*
Y130000D01*
D02*
G37*
G36*
X455000D02*
X449500D01*
Y123250D01*
X455000D01*
Y130000D01*
D02*
G37*
G36*
X662500Y129274D02*
Y120000D01*
X671774D01*
X671691Y120633D01*
X670482Y123552D01*
X668559Y126059D01*
X666052Y127982D01*
X663133Y129191D01*
X662500Y129274D01*
D02*
G37*
G36*
X657500D02*
X656867Y129191D01*
X653948Y127982D01*
X651441Y126059D01*
X649518Y123552D01*
X648309Y120633D01*
X648226Y120000D01*
X657500D01*
Y129274D01*
D02*
G37*
G36*
X501750Y125040D02*
X495000D01*
Y119540D01*
X501750D01*
Y123000D01*
Y125040D01*
D02*
G37*
G36*
X490000D02*
X483250D01*
Y123000D01*
Y119540D01*
X490000D01*
Y125040D01*
D02*
G37*
G36*
X671774Y115000D02*
X662500D01*
Y105726D01*
X663133Y105809D01*
X666052Y107018D01*
X668559Y108941D01*
X670482Y111448D01*
X671691Y114367D01*
X671774Y115000D01*
D02*
G37*
G36*
X657500D02*
X648226D01*
X648309Y114367D01*
X649518Y111448D01*
X651441Y108941D01*
X653948Y107018D01*
X656867Y105809D01*
X657500Y105726D01*
Y115000D01*
D02*
G37*
G36*
X873100Y82595D02*
X870228Y82217D01*
X867553Y81109D01*
X865255Y79345D01*
X863492Y77047D01*
X862383Y74372D01*
X862005Y71500D01*
X862383Y68628D01*
X863492Y65953D01*
X865255Y63655D01*
X867553Y61891D01*
X870228Y60783D01*
X873100Y60405D01*
X875972Y60783D01*
X878647Y61891D01*
X880945Y63655D01*
X882709Y65953D01*
X883817Y68628D01*
X884195Y71500D01*
X883817Y74372D01*
X882709Y77047D01*
X880945Y79345D01*
X878647Y81109D01*
X875972Y82217D01*
X873100Y82595D01*
D02*
G37*
G36*
X847700D02*
X844828Y82217D01*
X842153Y81109D01*
X839855Y79345D01*
X838092Y77047D01*
X836983Y74372D01*
X836605Y71500D01*
X836983Y68628D01*
X838092Y65953D01*
X839855Y63655D01*
X842153Y61891D01*
X844828Y60783D01*
X847700Y60405D01*
X850572Y60783D01*
X853247Y61891D01*
X855545Y63655D01*
X857309Y65953D01*
X858417Y68628D01*
X858795Y71500D01*
X858417Y74372D01*
X857309Y77047D01*
X855545Y79345D01*
X853247Y81109D01*
X850572Y82217D01*
X847700Y82595D01*
D02*
G37*
G36*
X822300D02*
X819428Y82217D01*
X816753Y81109D01*
X814455Y79345D01*
X812691Y77047D01*
X811583Y74372D01*
X811205Y71500D01*
X811583Y68628D01*
X812691Y65953D01*
X814455Y63655D01*
X816753Y61891D01*
X819428Y60783D01*
X822300Y60405D01*
X825172Y60783D01*
X827847Y61891D01*
X830145Y63655D01*
X831908Y65953D01*
X833017Y68628D01*
X833395Y71500D01*
X833017Y74372D01*
X831908Y77047D01*
X830145Y79345D01*
X827847Y81109D01*
X825172Y82217D01*
X822300Y82595D01*
D02*
G37*
G36*
X796900D02*
X794028Y82217D01*
X791353Y81109D01*
X789055Y79345D01*
X787291Y77047D01*
X786183Y74372D01*
X785805Y71500D01*
X786183Y68628D01*
X787291Y65953D01*
X789055Y63655D01*
X791353Y61891D01*
X794028Y60783D01*
X796900Y60405D01*
X799772Y60783D01*
X802447Y61891D01*
X804745Y63655D01*
X806508Y65953D01*
X807617Y68628D01*
X807995Y71500D01*
X807617Y74372D01*
X806508Y77047D01*
X804745Y79345D01*
X802447Y81109D01*
X799772Y82217D01*
X796900Y82595D01*
D02*
G37*
G36*
X771500D02*
X768628Y82217D01*
X765953Y81109D01*
X763655Y79345D01*
X761891Y77047D01*
X760783Y74372D01*
X760405Y71500D01*
X760783Y68628D01*
X761891Y65953D01*
X763655Y63655D01*
X765953Y61891D01*
X768628Y60783D01*
X771500Y60405D01*
X774372Y60783D01*
X777047Y61891D01*
X779345Y63655D01*
X781108Y65953D01*
X782217Y68628D01*
X782595Y71500D01*
X782217Y74372D01*
X781108Y77047D01*
X779345Y79345D01*
X777047Y81109D01*
X774372Y82217D01*
X771500Y82595D01*
D02*
G37*
G36*
X746100D02*
X743228Y82217D01*
X740553Y81109D01*
X738255Y79345D01*
X736491Y77047D01*
X735383Y74372D01*
X735005Y71500D01*
X735383Y68628D01*
X736491Y65953D01*
X738255Y63655D01*
X740553Y61891D01*
X743228Y60783D01*
X746100Y60405D01*
X748972Y60783D01*
X751647Y61891D01*
X753945Y63655D01*
X755708Y65953D01*
X756817Y68628D01*
X757195Y71500D01*
X756817Y74372D01*
X755708Y77047D01*
X753945Y79345D01*
X751647Y81109D01*
X748972Y82217D01*
X746100Y82595D01*
D02*
G37*
G36*
X682700Y53112D02*
X679306Y52665D01*
X676144Y51356D01*
X673428Y49272D01*
X671570Y46850D01*
X670300Y47191D01*
Y53000D01*
X659800D01*
Y40000D01*
Y27000D01*
X670300D01*
Y32809D01*
X671570Y33150D01*
X673428Y30728D01*
X676144Y28644D01*
X679306Y27335D01*
X682700Y26888D01*
X686094Y27335D01*
X689256Y28644D01*
X691972Y30728D01*
X694055Y33444D01*
X695365Y36606D01*
X695812Y40000D01*
X695365Y43394D01*
X694055Y46556D01*
X691972Y49272D01*
X689256Y51356D01*
X686094Y52665D01*
X682700Y53112D01*
D02*
G37*
G36*
X214266Y54000D02*
X206000D01*
Y45734D01*
X206371Y45783D01*
X209047Y46891D01*
X211345Y48655D01*
X213108Y50953D01*
X214217Y53628D01*
X214266Y54000D01*
D02*
G37*
G36*
X178500Y87595D02*
X175628Y87217D01*
X172952Y86109D01*
X170655Y84345D01*
X168892Y82047D01*
X167783Y79372D01*
X167405Y76500D01*
X167783Y73628D01*
X168892Y70953D01*
X170655Y68655D01*
X172457Y67272D01*
X172536Y67087D01*
Y65913D01*
X172457Y65728D01*
X170655Y64345D01*
X168892Y62047D01*
X167783Y59372D01*
X167405Y56500D01*
X167783Y53628D01*
X168892Y50953D01*
X170655Y48655D01*
X172952Y46891D01*
X175628Y45783D01*
X178500Y45405D01*
X181371Y45783D01*
X184047Y46891D01*
X185821Y48252D01*
X185977Y48227D01*
X187134Y47453D01*
X188500Y47181D01*
X193500D01*
X194866Y47453D01*
X196023Y48227D01*
X196179Y48252D01*
X197952Y46891D01*
X200628Y45783D01*
X201000Y45734D01*
Y56500D01*
X203500D01*
Y59000D01*
X214266D01*
X214217Y59372D01*
X213108Y62047D01*
X211434Y64230D01*
X211624Y65166D01*
X211737Y65500D01*
X214500D01*
Y87500D01*
X192500D01*
Y87500D01*
X192225Y87274D01*
X192000Y87319D01*
X187500D01*
X186134Y87047D01*
X184977Y86273D01*
X184968Y86260D01*
X184047Y86109D01*
X181371Y87217D01*
X178500Y87595D01*
D02*
G37*
G36*
X387400Y53112D02*
X384006Y52665D01*
X380844Y51356D01*
X378128Y49272D01*
X376045Y46556D01*
X375387Y44969D01*
X374013D01*
X373355Y46556D01*
X371272Y49272D01*
X368556Y51356D01*
X365394Y52665D01*
X362000Y53112D01*
X358606Y52665D01*
X355444Y51356D01*
X352728Y49272D01*
X350644Y46556D01*
X349987Y44969D01*
X348613D01*
X347956Y46556D01*
X345872Y49272D01*
X343156Y51356D01*
X339994Y52665D01*
X339100Y52783D01*
Y40000D01*
Y27217D01*
X339994Y27335D01*
X343156Y28644D01*
X345872Y30728D01*
X347956Y33444D01*
X348613Y35031D01*
X349987D01*
X350644Y33444D01*
X352728Y30728D01*
X355444Y28644D01*
X358606Y27335D01*
X362000Y26888D01*
X365394Y27335D01*
X368556Y28644D01*
X371272Y30728D01*
X373355Y33444D01*
X374013Y35031D01*
X375387D01*
X376045Y33444D01*
X378128Y30728D01*
X380844Y28644D01*
X384006Y27335D01*
X387400Y26888D01*
X390794Y27335D01*
X393956Y28644D01*
X396672Y30728D01*
X398755Y33444D01*
X400065Y36606D01*
X400512Y40000D01*
X400065Y43394D01*
X398755Y46556D01*
X396672Y49272D01*
X393956Y51356D01*
X390794Y52665D01*
X387400Y53112D01*
D02*
G37*
G36*
X654800Y53000D02*
X644300D01*
Y42500D01*
X654800D01*
Y53000D01*
D02*
G37*
G36*
X253000Y48341D02*
Y33000D01*
X268341D01*
X268239Y34029D01*
X267210Y37422D01*
X265539Y40549D01*
X263290Y43289D01*
X260549Y45539D01*
X257422Y47210D01*
X254029Y48239D01*
X253000Y48341D01*
D02*
G37*
G36*
X248000D02*
X246971Y48239D01*
X243578Y47210D01*
X240451Y45539D01*
X237710Y43289D01*
X235461Y40549D01*
X233790Y37422D01*
X232760Y34029D01*
X232659Y33000D01*
X248000D01*
Y48341D01*
D02*
G37*
G36*
X133000D02*
Y33000D01*
X148341D01*
X148239Y34029D01*
X147210Y37422D01*
X145539Y40549D01*
X143289Y43289D01*
X140549Y45539D01*
X137422Y47210D01*
X134029Y48239D01*
X133000Y48341D01*
D02*
G37*
G36*
X128000D02*
X126971Y48239D01*
X123578Y47210D01*
X120451Y45539D01*
X117711Y43289D01*
X115461Y40549D01*
X113790Y37422D01*
X112760Y34029D01*
X112659Y33000D01*
X128000D01*
Y48341D01*
D02*
G37*
G36*
X324200Y53000D02*
X298200D01*
Y27000D01*
X324200D01*
Y32809D01*
X325470Y33150D01*
X327328Y30728D01*
X330044Y28644D01*
X333206Y27335D01*
X334100Y27217D01*
Y40000D01*
Y52783D01*
X333206Y52665D01*
X330044Y51356D01*
X327328Y49272D01*
X325470Y46850D01*
X324200Y47191D01*
Y53000D01*
D02*
G37*
G36*
X654800Y37500D02*
X644300D01*
Y27000D01*
X654800D01*
Y37500D01*
D02*
G37*
G36*
X248000Y28000D02*
X232659D01*
X232760Y26971D01*
X233790Y23578D01*
X235461Y20451D01*
X237710Y17710D01*
X240451Y15461D01*
X243578Y13790D01*
X246971Y12760D01*
X248000Y12659D01*
Y28000D01*
D02*
G37*
G36*
X148341Y28000D02*
X133000D01*
Y12659D01*
X134029Y12760D01*
X137422Y13790D01*
X140549Y15461D01*
X143289Y17710D01*
X145539Y20451D01*
X147210Y23578D01*
X148239Y26971D01*
X148341Y28000D01*
D02*
G37*
G36*
X128000D02*
X112659D01*
X112760Y26971D01*
X113790Y23578D01*
X115461Y20451D01*
X117711Y17710D01*
X120451Y15461D01*
X123578Y13790D01*
X126971Y12760D01*
X128000Y12659D01*
Y28000D01*
D02*
G37*
G36*
X268341Y28000D02*
X253000D01*
Y12659D01*
X254029Y12760D01*
X257422Y13790D01*
X260549Y15461D01*
X263290Y17710D01*
X265539Y20451D01*
X267210Y23578D01*
X268239Y26971D01*
X268341Y28000D01*
D02*
G37*
%LPD*%
G36*
X58416Y333695D02*
X58709Y331467D01*
X59918Y328548D01*
X61842Y326041D01*
X64348Y324118D01*
X67267Y322909D01*
X69495Y322616D01*
X70066Y322540D01*
Y321260D01*
X69495Y321184D01*
X67267Y320891D01*
X64348Y319682D01*
X61842Y317759D01*
X59918Y315252D01*
X58709Y312333D01*
X58341Y309534D01*
X57059D01*
X56691Y312333D01*
X55482Y315252D01*
X53559Y317759D01*
X51052Y319682D01*
X48133Y320891D01*
X45905Y321184D01*
X45334Y321260D01*
Y322540D01*
X45905Y322616D01*
X48133Y322909D01*
X51052Y324118D01*
X53559Y326041D01*
X55482Y328548D01*
X56691Y331467D01*
X56984Y333695D01*
X57060Y334266D01*
X58340D01*
X58416Y333695D01*
D02*
G37*
G36*
X58709Y306067D02*
X59918Y303148D01*
X61842Y300641D01*
X64348Y298718D01*
X67267Y297509D01*
X70066Y297141D01*
Y295860D01*
X67267Y295491D01*
X64348Y294282D01*
X61842Y292358D01*
X59918Y289852D01*
X58709Y286933D01*
X58341Y284134D01*
X57059D01*
X56691Y286933D01*
X55482Y289852D01*
X53559Y292358D01*
X51052Y294282D01*
X48133Y295491D01*
X45905Y295784D01*
X45334Y295860D01*
Y297140D01*
X45905Y297216D01*
X48133Y297509D01*
X51052Y298718D01*
X53559Y300641D01*
X55482Y303148D01*
X56691Y306067D01*
X57059Y308866D01*
X58341D01*
X58709Y306067D01*
D02*
G37*
G36*
Y255267D02*
X59918Y252348D01*
X61842Y249841D01*
X64348Y247918D01*
X67267Y246709D01*
X69495Y246416D01*
X70066Y246340D01*
Y245060D01*
X69495Y244984D01*
X67267Y244691D01*
X64348Y243482D01*
X61842Y241558D01*
X59918Y239052D01*
X58709Y236133D01*
X58341Y233334D01*
X57059D01*
X56691Y236133D01*
X55482Y239052D01*
X53559Y241558D01*
X51052Y243482D01*
X48133Y244691D01*
X45905Y244984D01*
X45334Y245060D01*
Y246340D01*
X45905Y246416D01*
X48133Y246709D01*
X51052Y247918D01*
X53559Y249841D01*
X55482Y252348D01*
X56691Y255267D01*
X57059Y258066D01*
X58341D01*
X58709Y255267D01*
D02*
G37*
G36*
Y204467D02*
X59918Y201548D01*
X61842Y199042D01*
X64348Y197118D01*
X67267Y195909D01*
X69495Y195616D01*
X70066Y195540D01*
Y194260D01*
X69495Y194184D01*
X67267Y193891D01*
X64348Y192682D01*
X61842Y190758D01*
X59918Y188252D01*
X58709Y185333D01*
X58416Y183105D01*
X58340Y182534D01*
X57060D01*
X56984Y183105D01*
X56691Y185333D01*
X55482Y188252D01*
X53559Y190758D01*
X51052Y192682D01*
X48133Y193891D01*
X45905Y194184D01*
X45334Y194260D01*
Y195540D01*
X45905Y195616D01*
X48133Y195909D01*
X51052Y197118D01*
X53559Y199042D01*
X55482Y201548D01*
X56691Y204467D01*
X57059Y207266D01*
X58341D01*
X58709Y204467D01*
D02*
G37*
D53*
X462500Y182500D02*
D03*
Y202500D02*
D03*
X492500Y127540D02*
D03*
Y107540D02*
D03*
D54*
X437500Y155000D02*
D03*
X457500D02*
D03*
Y132500D02*
D03*
X437500D02*
D03*
X512500Y177500D02*
D03*
X532500D02*
D03*
D64*
X477500Y265000D02*
X484000Y258500D01*
X57800Y271000D02*
X110000D01*
X45000Y283800D02*
X57800Y271000D01*
X898500Y71500D02*
Y122500D01*
X871000Y150000D02*
X898500Y122500D01*
X735000Y150000D02*
X871000D01*
X379000Y174000D02*
X387000Y166000D01*
Y134000D02*
Y166000D01*
Y134000D02*
X399000Y122000D01*
X207000Y174000D02*
X379000D01*
X537500Y307500D02*
Y457500D01*
X350000Y337500D02*
X440000D01*
X327500Y360000D02*
X350000Y337500D01*
X279000Y360000D02*
X327500D01*
X440000Y337500D02*
X500000Y277500D01*
Y255000D02*
Y277500D01*
Y255000D02*
X570000Y185000D01*
Y116000D02*
Y185000D01*
X552500Y307500D02*
Y337500D01*
X509000Y94000D02*
X548000D01*
X374000Y265000D02*
X477500D01*
X110000Y271000D02*
X207000Y174000D01*
X199000Y224000D02*
X200250D01*
X212000Y181000D02*
X399000D01*
X114000Y279000D02*
X212000Y181000D01*
X100600Y279000D02*
X114000Y279000D01*
X86000Y293600D02*
X100600Y279000D01*
X276000Y273000D02*
Y273273D01*
X239000Y282250D02*
X273022D01*
X275772Y284999D01*
X275999D01*
X223691Y235691D02*
Y259540D01*
X207000Y219000D02*
X223691Y235691D01*
X207000Y214000D02*
Y219000D01*
X200250Y224000D02*
X202000Y222250D01*
X240335Y275750D02*
X273523D01*
X224125Y259540D02*
X240335Y275750D01*
X223691Y259540D02*
X224125D01*
X221830Y265080D02*
X239000Y282250D01*
X221396Y265080D02*
X221830D01*
X218420Y262104D02*
X221396Y265080D01*
X218420Y261670D02*
Y262104D01*
X218305Y261555D02*
X218420Y261670D01*
X218305Y238555D02*
Y261555D01*
X875000Y160000D02*
X923900Y111100D01*
X414000Y149000D02*
X416500D01*
X422500Y155000D01*
X418000Y249000D02*
X463000D01*
X368000Y199000D02*
X418000Y249000D01*
X262687Y199000D02*
X368000D01*
X419835Y241000D02*
X457250D01*
X372295Y193460D02*
X419835Y241000D01*
X371644Y193460D02*
X372295D01*
X371104Y192920D02*
X371644Y193460D01*
X260000Y201688D02*
X262687Y199000D01*
X465375Y248750D02*
X465375Y248750D01*
X735000Y275000D02*
Y305000D01*
X715000Y255000D02*
X735000Y275000D01*
X715000Y185000D02*
Y255000D01*
X695000Y310000D02*
X730000D01*
X690000Y305000D02*
X695000Y310000D01*
X690000Y290000D02*
Y305000D01*
X715000Y270000D02*
Y290000D01*
X705000Y260000D02*
X715000Y270000D01*
X705000Y180000D02*
Y260000D01*
Y180000D02*
X735000Y150000D01*
X923900Y71500D02*
Y111100D01*
X740000Y160000D02*
X875000D01*
X730000Y310000D02*
X735000Y305000D01*
X715000Y185000D02*
X740000Y160000D01*
X548000Y94000D02*
X570000Y116000D01*
X70400Y309200D02*
X86000Y293600D01*
X202000Y222250D02*
X218305Y238555D01*
X177250Y296250D02*
X186250D01*
X171000Y290000D02*
X177250Y296250D01*
X171000Y275000D02*
Y290000D01*
X273523Y275750D02*
X276000Y273273D01*
X463250Y248750D02*
X465375D01*
X463000Y249000D02*
X463250Y248750D01*
X483500Y258500D02*
X484000D01*
X259750Y188500D02*
Y188687D01*
X259603Y188835D02*
X259750Y188687D01*
X259500Y202188D02*
Y202500D01*
Y202188D02*
X260000Y201688D01*
X260000Y201688D02*
X260000Y201688D01*
X284031Y192920D02*
X371104D01*
X284031Y192920D02*
X284031Y192920D01*
X263687Y192920D02*
X284031D01*
X259603Y188835D02*
X263687Y192920D01*
X422500Y155000D02*
X435000D01*
D65*
X945000Y569000D02*
X945000D01*
X800000D02*
X945000D01*
X597000Y648000D02*
X748000D01*
X540000Y705000D02*
X597000Y648000D01*
X475000Y705000D02*
X540000D01*
X800000Y434000D02*
Y569000D01*
X576000D02*
X800000D01*
X529000D02*
X576000D01*
X485000Y525000D02*
X529000Y569000D01*
X582000Y350000D02*
Y470000D01*
X183000Y222000D02*
X206000Y199000D01*
X183000Y222000D02*
Y249000D01*
X291000Y289000D02*
X304000D01*
X283000Y297000D02*
X291000Y289000D01*
X262000Y297000D02*
X283000D01*
X405000Y320000D02*
X417000D01*
X374000Y289000D02*
X405000Y320000D01*
X335000Y289000D02*
X374000D01*
X304000D02*
X335000D01*
X183000Y249000D02*
Y268000D01*
X157000Y249000D02*
X183000D01*
X335000Y211000D02*
Y289000D01*
X262500Y297500D02*
Y368500D01*
X262000Y297000D02*
X262500Y297500D01*
X203000Y297000D02*
X262000D01*
X183000Y277000D02*
X203000Y297000D01*
X183000Y268000D02*
Y277000D01*
D66*
X45000Y182200D02*
X70400D01*
X45000Y258400D02*
X70400Y233000D01*
X45000Y309200D02*
X70400Y283800D01*
X45000Y334600D02*
X70400D01*
X45000Y309200D02*
Y334600D01*
X624000Y557000D02*
X720000D01*
X625000Y433000D02*
X721000D01*
X624000Y434000D02*
X625000Y433000D01*
X492500Y95000D02*
X502500Y85000D01*
X492500Y95000D02*
Y107540D01*
X442500Y112500D02*
X447460Y107540D01*
X492500D01*
X533000Y127000D02*
Y177000D01*
X532500Y177500D02*
X533000Y177000D01*
X513540Y107540D02*
X533000Y127000D01*
X492500Y107540D02*
X513540D01*
X532500Y177500D02*
Y192500D01*
X522500Y202500D02*
X532500Y192500D01*
X462500Y202500D02*
X522500D01*
X437500Y117500D02*
Y132500D01*
Y117500D02*
X442500Y112500D01*
X550000Y177500D02*
X555000Y182500D01*
X532500Y177500D02*
X550000D01*
X457500Y225000D02*
X462500Y220000D01*
Y202500D02*
Y220000D01*
D68*
X917750Y730250D02*
X945000Y703000D01*
X875500Y772500D02*
X917750Y730250D01*
X912500Y165527D02*
X914723Y167750D01*
X912500Y165527D02*
Y167500D01*
X729358Y772500D02*
X875500D01*
X715000Y758142D02*
X729358Y772500D01*
X715000Y745500D02*
Y758142D01*
D71*
X920500Y444750D02*
D03*
D72*
Y469750D02*
D03*
X362000Y40000D02*
D03*
X336600D02*
D03*
X387400D02*
D03*
X45000Y670000D02*
D03*
Y467000D02*
D03*
X682700Y40000D02*
D03*
X230000Y705000D02*
D03*
Y730000D02*
D03*
Y755000D02*
D03*
D73*
X797500Y290000D02*
D03*
X822500D02*
D03*
X847500D02*
D03*
X640000D02*
D03*
X665000D02*
D03*
X690000D02*
D03*
X70400Y182200D02*
D03*
X45000D02*
D03*
X70400Y207600D02*
D03*
X45000D02*
D03*
X70400Y233000D02*
D03*
X45000D02*
D03*
X70400Y258400D02*
D03*
X45000D02*
D03*
X70400Y360000D02*
D03*
X45000Y334600D02*
D03*
X70400D02*
D03*
X45000Y309200D02*
D03*
X70400D02*
D03*
X45000Y283800D02*
D03*
X70400D02*
D03*
X660000Y117500D02*
D03*
X141000Y590000D02*
D03*
X715000Y695500D02*
D03*
X110000Y755000D02*
D03*
X340000D02*
D03*
X407000Y456000D02*
D03*
D74*
X872500Y290000D02*
D03*
X715000D02*
D03*
X191000Y590000D02*
D03*
X457000Y456000D02*
D03*
D75*
X857500Y712500D02*
D03*
D76*
X806700D02*
D03*
X250500Y30500D02*
D03*
X130500D02*
D03*
D77*
X45000Y360000D02*
D03*
X660000Y167500D02*
D03*
X715000Y745500D02*
D03*
X110000Y705000D02*
D03*
X340000D02*
D03*
D78*
X203500Y56500D02*
D03*
X178500Y76500D02*
D03*
Y56500D02*
D03*
X898500Y71500D02*
D03*
X873100D02*
D03*
X847700D02*
D03*
X822300D02*
D03*
X796900D02*
D03*
X771500D02*
D03*
X746100D02*
D03*
X771500Y198500D02*
D03*
X796900D02*
D03*
X822300D02*
D03*
X847700D02*
D03*
X873100D02*
D03*
X898500D02*
D03*
X923900D02*
D03*
D79*
X203500Y76500D02*
D03*
D80*
X311200Y40000D02*
D03*
X657300D02*
D03*
D81*
X923900Y71500D02*
D03*
X746100Y198500D02*
D03*
D82*
X105000Y210000D02*
D03*
Y225000D02*
D03*
X90000Y217500D02*
D03*
Y232500D02*
D03*
X500000Y140000D02*
D03*
X485000D02*
D03*
X470000D02*
D03*
X500000Y155000D02*
D03*
X485000D02*
D03*
X347500Y247500D02*
D03*
Y260000D02*
D03*
X925000Y137500D02*
D03*
Y150000D02*
D03*
X912500D02*
D03*
X862500Y50000D02*
D03*
X850000D02*
D03*
X837500D02*
D03*
X825000D02*
D03*
X25000Y287500D02*
D03*
Y275000D02*
D03*
Y262500D02*
D03*
Y250000D02*
D03*
X22500Y575000D02*
D03*
Y565000D02*
D03*
Y555000D02*
D03*
Y545000D02*
D03*
X875000Y550000D02*
D03*
X819525Y345175D02*
D03*
X819519Y470181D02*
D03*
X660000Y680000D02*
D03*
Y690000D02*
D03*
Y700000D02*
D03*
Y710000D02*
D03*
X635000Y685000D02*
D03*
X625000D02*
D03*
X615000D02*
D03*
X605000D02*
D03*
X635000Y700000D02*
D03*
X625000D02*
D03*
X615000D02*
D03*
X605000D02*
D03*
X687500Y337500D02*
D03*
X700000D02*
D03*
X712500D02*
D03*
X725000D02*
D03*
X475000Y675000D02*
D03*
X462500D02*
D03*
X450000D02*
D03*
X437500D02*
D03*
X362500Y550000D02*
D03*
X350000D02*
D03*
X337500D02*
D03*
X325000D02*
D03*
X250000Y537500D02*
D03*
X237500D02*
D03*
X225000D02*
D03*
X212500D02*
D03*
X80000Y575000D02*
D03*
Y565000D02*
D03*
Y555000D02*
D03*
Y545000D02*
D03*
X520000Y215000D02*
D03*
X887500Y550000D02*
D03*
X900000D02*
D03*
X912500D02*
D03*
X887500Y375000D02*
D03*
X875000D02*
D03*
X900000D02*
D03*
X912500D02*
D03*
X887500Y350000D02*
D03*
X875000D02*
D03*
X912500D02*
D03*
X900000D02*
D03*
X650000Y262500D02*
D03*
X637500D02*
D03*
X625000D02*
D03*
X587500Y212500D02*
D03*
Y200000D02*
D03*
Y187500D02*
D03*
X675000Y200000D02*
D03*
Y212500D02*
D03*
X687500D02*
D03*
Y200000D02*
D03*
X347500Y322500D02*
D03*
X347000Y299000D02*
D03*
X372500Y302500D02*
D03*
Y277500D02*
D03*
X812500Y100000D02*
D03*
X825000D02*
D03*
X837500D02*
D03*
X850000D02*
D03*
X775000Y225000D02*
D03*
X762500D02*
D03*
X750000D02*
D03*
X737500D02*
D03*
Y237500D02*
D03*
X775000D02*
D03*
X762500D02*
D03*
X750000D02*
D03*
X212500Y350000D02*
D03*
X200000D02*
D03*
X187500D02*
D03*
X300000Y337500D02*
D03*
X287500D02*
D03*
X275000D02*
D03*
X150000Y350000D02*
D03*
X137500D02*
D03*
X125000D02*
D03*
X150000Y337500D02*
D03*
X137500D02*
D03*
X125000D02*
D03*
X562500Y250000D02*
D03*
X550000D02*
D03*
Y262500D02*
D03*
Y275000D02*
D03*
X100000Y437500D02*
D03*
X87500D02*
D03*
X75000D02*
D03*
X62500D02*
D03*
X325000Y412500D02*
D03*
X312500D02*
D03*
X300000D02*
D03*
X287500D02*
D03*
X325000Y437500D02*
D03*
X312500D02*
D03*
X300000D02*
D03*
X287500D02*
D03*
X525000Y587500D02*
D03*
X537500D02*
D03*
X550000D02*
D03*
X912500Y625000D02*
D03*
Y612500D02*
D03*
Y600000D02*
D03*
X287500Y787500D02*
D03*
X275000D02*
D03*
X262500D02*
D03*
X187500Y662500D02*
D03*
X175000D02*
D03*
X162500D02*
D03*
X150000D02*
D03*
X75000Y762500D02*
D03*
Y787500D02*
D03*
Y775000D02*
D03*
X25000Y737500D02*
D03*
X37500D02*
D03*
X50000D02*
D03*
X437500Y87500D02*
D03*
X425000D02*
D03*
X412500D02*
D03*
X400000D02*
D03*
X87500Y62500D02*
D03*
Y50000D02*
D03*
Y37500D02*
D03*
Y25000D02*
D03*
X62500Y87500D02*
D03*
X50000D02*
D03*
X37500D02*
D03*
X25000D02*
D03*
X287500Y100000D02*
D03*
X300000D02*
D03*
X312500D02*
D03*
X325000D02*
D03*
X600000Y87500D02*
D03*
Y75000D02*
D03*
Y62500D02*
D03*
Y50000D02*
D03*
X812500Y112500D02*
D03*
X825000D02*
D03*
X837500D02*
D03*
X850000D02*
D03*
X462500Y787500D02*
D03*
X512500D02*
D03*
X500000D02*
D03*
X487500D02*
D03*
X475000D02*
D03*
X462500Y575000D02*
D03*
Y562500D02*
D03*
Y550000D02*
D03*
X325000Y462500D02*
D03*
X312500D02*
D03*
X300000D02*
D03*
X287500D02*
D03*
X462500Y375000D02*
D03*
X475000D02*
D03*
X487500D02*
D03*
X500000D02*
D03*
X750000Y787500D02*
D03*
X737500D02*
D03*
X725000D02*
D03*
X712500D02*
D03*
X850000D02*
D03*
X812500D02*
D03*
X825000D02*
D03*
X837500D02*
D03*
X912500Y737500D02*
D03*
Y725000D02*
D03*
Y712500D02*
D03*
Y700000D02*
D03*
X725000Y625000D02*
D03*
Y612500D02*
D03*
Y600000D02*
D03*
X787500Y625000D02*
D03*
Y612500D02*
D03*
Y600000D02*
D03*
X850000Y625000D02*
D03*
Y612500D02*
D03*
Y600000D02*
D03*
X687500Y462500D02*
D03*
X705000D02*
D03*
X722500D02*
D03*
X507500Y305000D02*
D03*
X465000Y275000D02*
D03*
X562500Y262500D02*
D03*
Y275000D02*
D03*
X347500Y272500D02*
D03*
X406000Y281000D02*
D03*
X537500Y457500D02*
D03*
X582000Y470000D02*
D03*
X262500Y368500D02*
D03*
X279000Y360000D02*
D03*
X552500Y307500D02*
D03*
X537500D02*
D03*
X552500Y337500D02*
D03*
X636750Y463000D02*
D03*
X819250Y507000D02*
D03*
X819289Y378019D02*
D03*
X636750Y340750D02*
D03*
X502500Y85000D02*
D03*
X509000Y94000D02*
D03*
X374000Y265000D02*
D03*
X199000Y224000D02*
D03*
X276000Y273000D02*
D03*
X275999Y284999D02*
D03*
X207000Y214000D02*
D03*
X414000Y149000D02*
D03*
X304000Y289000D02*
D03*
X206000Y199000D02*
D03*
X335000Y211000D02*
D03*
X157000Y249000D02*
D03*
X417000Y320000D02*
D03*
X457250Y241000D02*
D03*
X465375Y248750D02*
D03*
X483500Y258500D02*
D03*
X259750Y188500D02*
D03*
X259500Y202500D02*
D03*
X399000Y181000D02*
D03*
Y122000D02*
D03*
X183000Y268000D02*
D03*
X171000Y275000D02*
D03*
X186250Y296250D02*
D03*
X160000Y270000D02*
D03*
X470000Y170000D02*
D03*
X485000D02*
D03*
X500000D02*
D03*
X470000Y155000D02*
D03*
X442500Y112500D02*
D03*
X555000Y182500D02*
D03*
X457500Y225000D02*
D03*
D83*
X800000Y434000D02*
D03*
Y569000D02*
D03*
X720000Y557000D02*
D03*
X624000D02*
D03*
X721000Y433000D02*
D03*
X624000Y434000D02*
D03*
X582000Y350000D02*
D03*
X748000Y648000D02*
D03*
X475000Y705000D02*
D03*
X576000Y569000D02*
D03*
X485000Y525000D02*
D03*
D84*
X912500Y167500D02*
D03*
D85*
X945000Y569000D02*
Y703000D01*
Y550000D02*
Y569000D01*
X945000D02*
X945000Y184000D01*
X928750Y167750D02*
X945000Y184000D01*
X914723Y167750D02*
X928750D01*
M02*
